<?xml version="1.0" encoding="UTF-8"?>
<svg id="Layer_1" xmlns="http://www.w3.org/2000/svg" version="1.1" viewBox="0 0 223.58 82.03">
  <!-- Generator: Adobe Illustrator 29.4.0, SVG Export Plug-In . SVG Version: 2.1.0 Build 152)  -->
  <defs>
    <style>
      .st0 {
        fill-rule: evenodd;
      }

      .st0, .st1 {
        fill: #fff;
      }
    </style>
  </defs>
  <g>
    <path class="st1" d="M43.86,34.26h-26.29v-6.02h26.29v6.02h0ZM17.83,34h25.77v-5.51h-25.77v5.51Z"/>
    <path class="st1" d="M30.77,62.29l-.25-.02s-.06-.42-.47-1.24c-.39-.78-1.53-.92-1.54-.92h-8.1c-.86,0-1.55-.25-2.05-.76-.81-.83-.79-2.03-.79-2.09v-23.27h26.3v23.58c0,2.18-2.51,2.54-2.54,2.54h-8.56c-.31,0-.38.05-.85.36l-.18.12c-.59.4-.95,1.68-.96,1.69M17.83,34.26v23.02s-.02,1.15.72,1.9c.44.45,1.07.68,1.86.68h8.12c.07,0,1.3.16,1.76,1.07.19.38.31.68.38.89.17-.44.48-1.13.93-1.42l.18-.12c.48-.32.61-.4,1-.4h8.54c.08,0,2.29-.34,2.29-2.29v-23.32h-25.78,0Z"/>
    <path class="st1" d="M21.44,32.51c-.67,0-1.22-.55-1.22-1.22s.55-1.22,1.22-1.22,1.22.55,1.22,1.22-.55,1.22-1.22,1.22M21.44,30.33c-.53,0-.96.43-.96.96s.43.96.96.96.96-.43.96-.96-.43-.96-.96-.96"/>
    <path class="st1" d="M25.16,32.51c-.67,0-1.22-.55-1.22-1.22s.55-1.22,1.22-1.22,1.22.55,1.22,1.22-.55,1.22-1.22,1.22M25.16,30.33c-.53,0-.96.43-.96.96s.43.96.96.96.96-.43.96-.96-.43-.96-.96-.96"/>
    <path class="st1" d="M28.88,32.51c-.67,0-1.22-.55-1.22-1.22s.55-1.22,1.22-1.22,1.22.55,1.22,1.22-.55,1.22-1.22,1.22M28.88,30.33c-.53,0-.96.43-.96.96s.43.96.96.96.96-.43.96-.96-.43-.96-.96-.96"/>
    <path class="st1" d="M32.61,32.51c-.67,0-1.22-.55-1.22-1.22s.55-1.22,1.22-1.22,1.22.55,1.22,1.22-.55,1.22-1.22,1.22M32.61,30.33c-.53,0-.96.43-.96.96s.43.96.96.96.96-.43.96-.96-.43-.96-.96-.96"/>
    <path class="st1" d="M40.06,32.51c-.67,0-1.22-.55-1.22-1.22s.55-1.22,1.22-1.22,1.22.55,1.22,1.22-.55,1.22-1.22,1.22M40.06,30.33c-.53,0-.96.43-.96.96s.43.96.96.96.96-.43.96-.96-.43-.96-.96-.96"/>
    <path class="st1" d="M36.1,60.12h-10.76l-.04-.04-7.73-7.68v-10.67l.04-.04,7.7-7.74h10.89l.04.04,7.62,7.47v10.97l-.04.04-7.71,7.65h0ZM25.45,59.86h10.54l7.6-7.54v-10.75l-7.5-7.36h-10.67l-7.58,7.62v10.46l7.62,7.57h0Z"/>
    <path class="st1" d="M34.86,57.11h-8.29l-.04-.04-5.97-5.9v-8.22l.04-.04,5.94-5.95h8.38l5.89,5.78v8.45l-.04.04-5.92,5.88h0ZM26.68,56.85h8.07l5.81-5.77v-8.23l-5.74-5.63h-8.17l-5.83,5.83v8l5.86,5.79h0Z"/>
    <path class="st0" d="M33.58,45.7v-.13c.22-.04.4-.06.41-.04h0s-.12.07-.41.17"/>
    <path class="st0" d="M33.18,45.83v-.18c.12-.02.27-.05.41-.08v.13c-.11.04-.24.08-.41.13M33.18,54.08v-.13c.17.14.34.19.34.19,0,0-.14,0-.34-.07"/>
    <path class="st0" d="M32.77,45.92v-.26s.1.06.2.03l.2-.04v.18l-.23.07s-.07,0-.17.02M32.77,53.8v-.38c.05.08.11.17.17.27.07.11.15.19.23.26v.13c-.09-.03-.19-.09-.29-.18-.05-.04-.08-.07-.11-.1"/>
    <path class="st0" d="M28.29,45.68v-.24l.03.03c.07.07.21.09.37.17v.33l-.14-.09c-.09-.06-.18-.13-.26-.2M28.29,53.23v-.22l.23-.13c.06-.03.11-.06.17-.09v.2c-.1-.02-.11.09-.37.22l-.03.02Z"/>
    <path class="st0" d="M28.29,45.43v.24c-.14-.12-.27-.26-.37-.43-.14-.25.22.05.37.19M27.88,53.49v-.24c.12-.08.26-.16.41-.24v.21c-.2.1-.29.17-.41.27"/>
    <path class="st0" d="M27.48,53.91v-.29l.03-.05c.08-.11.21-.21.37-.32v.24l-.16.14c-.08.07-.16.17-.24.28"/>
    <path class="st0" d="M27.48,53.62v.29c-.16.2-.3.42-.38.44-.12.03.2-.47.38-.73"/>
    <path class="st1" d="M28.8,55.22h0s-.17-.3-.17-.51c0-.23.12-.53.22-.72.12-.2.15-.25.24-.49.03-.09.08-.19.14-.3-.05.04-.11.1-.17.17-.18.18-.24.23-.32.23h-.06l-.05-.05c-.05-.07-.03-.15,0-.27.02-.05.03-.09.04-.12v-.03h0s-.03,0-.04.03c-.05.04-.13.11-.27.18-.26.13-.32.18-.5.34l-.07.06c-.11.09-.22.25-.33.39-.16.22-.25.33-.35.35h-.12l-.05-.08c-.08-.16.25-.63.45-.9.19-.25.56-.46,1-.69l.06-.03c.44-.23.92-.52,1.11-.92.14-.31.15-.73.16-1.17v-.45c.03-.61,0-1.79-.06-2.43l-.02-.21c-.03-.26-.1-.51-.23-.76-.2-.37-.57-.61-.84-.78l-.1-.07c-.28-.19-.5-.38-.67-.67-.02-.04-.08-.14-.03-.22l.04-.06h.09c.16,0,.5.34.5.34.02.02.07.04.14.06.14.05.33.12.52.33.22.25.52.41.75.52-.03-.08-.06-.16-.09-.22-.03-.07-.06-.13-.07-.17-.02-.06-.08-.13-.15-.21-.11-.13-.24-.28-.27-.47-.06-.24-.22-.61-.46-.9-.08-.09-.15-.2-.1-.31.03-.06.08-.09.15-.09.11,0,.28.11.36.2.15.18.35.48.44.76.05.16.1.22.27.42.08.09.18.21.31.38.02.03.04.05.06.08v-.07s0-.09-.02-.12v-.77c-.04-.26.16-.77.32-.99.04-.05.09-.12.18-.12h.06l.06.05s.09.11.03.52c-.03.2-.06.72.03,1.08l.03.15v.04c.11-.18.15-.32.15-.32l.03-.05c.06-.07.64-.73.83-.86.03-.02.07-.04.12-.04h.09l.05.09c.08.18-.37.66-.38.67-.09.09-.16.27-.23.47-.06.15-.11.3-.19.45-.05.09-.06.16-.04.18s.13.05.25.02c.21-.04.36-.22.53-.43.04-.04.07-.09.11-.13.13-.14.25-.22.38-.22.08,0,.14.04.18.07l.04.04v.05c0,.09.06.06.1.05l.15-.03c.36-.07.73-.14.86-.14s.16.09.17.12c.02.13.02.16-1.14.51h-.04s-.33,0-.65.19c-.33.19-.41.27-.68.68-.22.33-.36.89-.43,1.7-.07.73-.11,2.44.06,3.28.15.73.54.84.91.95l.08.02c.41.13.58.4.78.71l.04.06c.18.28.5.4.5.4l-.03.25h-.04c-.11,0-.38-.03-.68-.27,0,0-.02-.02-.03-.02,0,.15-.04.32-.19.32-.06,0-.16,0-.3-.41,0,0-.08-.15-.21-.28-.1-.09-.21-.13-.41-.2-.06-.02-.12-.04-.2-.07-.05-.02-.1-.03-.15-.04.14.15.31.33.37.43.03.05.13.16.23.27.14.16.29.32.36.44.17.29.2.39.16.48l-.04.07h-.09c-.05,0-.11-.02-.19-.08-.14-.1-.18-.17-.23-.24-.04-.06-.09-.13-.23-.25-.1-.09-.17-.14-.22-.16l-.24.58-.09-.4c-.03-.14-.14-.54-.25-.69-.08-.11-.17-.18-.29-.27-.09-.06-.18-.13-.27-.22-.03-.03-.06-.06-.08-.09l-.03.09s-.07.2-.22.47-.24.43-.24.43l-.14.23-.15-.38c-.05.04-.13.11-.21.18-.13.11-.2.21-.23.32l-.03.09c-.08.26.04.49.05.5l-.23.13h0ZM31.4,53.98c.07,0,.14.03.23.08-.07-.08-.13-.15-.16-.21-.06-.1-.37-.42-.55-.6l-.15-.15.2-.07s.07-.02.17-.02c.13,0,.27.03.42.08.07.03.14.05.19.07.22.07.37.13.51.26.13.13.22.28.25.34,0-.05,0-.1.03-.15l.04-.04h.06s.06,0,.09.03c-.15-.24-.29-.41-.57-.5l-.08-.02c-.38-.11-.9-.26-1.09-1.15-.18-.86-.13-2.61-.06-3.35.08-.87.23-1.44.47-1.82.11-.16.19-.28.27-.38h0c-.19.04-.39.02-.49-.08-.08-.07-.15-.22,0-.49.07-.14.13-.28.18-.43.02-.06.04-.11.06-.16-.03.03-.05.06-.07.08-.02.06-.09.23-.22.42-.05.09-.11.18-.21.18-.15,0-.17-.14-.22-.37l-.03-.15c-.1-.42-.06-.98-.04-1.17-.08.2-.14.42-.13.53.02.12.02.25.02.38v.4s0,.07.02.11c.03.22.04.34-.03.43l-.04.04h-.08c-.1,0-.19-.07-.36-.29-.13-.17-.23-.28-.3-.37-.09-.11-.15-.18-.2-.26.04.11.12.21.21.31.08.1.16.19.2.29,0,.04.03.09.06.15.12.27.19.45.11.56-.05.08-.14.1-.26.05-.12-.06-.28-.13-.43-.22.1.11.2.23.27.37.22.4.23.43.26.86l.02.21c.06.65.09,1.85.06,2.46v.45c0,.47,0,.91-.18,1.27-.19.41-.6.7-1.01.93.14.06.17.14.16.22.22-.21.33-.29.33-.29h.03l.6-.24-.21.32s-.3.47-.37.69c-.04.11-.07.19-.11.26.14-.12.2-.17.2-.17l.14-.1.08.21s.06-.11.1-.18c.14-.25.2-.43.2-.43l.12-.36.25.04h0s.03.07.17.21c.08.08.16.14.24.2.12.09.24.18.34.32.07.11.14.28.19.43h.02s.05-.04.11-.04"/>
    <path class="st1" d="M27.77,45.24c-.1-.11-.41-.41-.63-.47-.15-.04-.24-.07-.36-.09-.12-.03-.25-.06-.48-.12-.46-.12-.58-.25-.61-.28l.21-.15s.1.09.47.19c.22.06.35.09.47.12s.22.05.37.1c.32.1.7.5.74.55l-.19.18v-.03h0Z"/>
    <path class="st1" d="M26.14,45.85l-.07-.25.45-.13h.84c.45,0,.78.03.79.03l-.03.26s-.32-.03-.76-.03h-.82l-.4.12h0Z"/>
    <path class="st1" d="M28.74,44.15s-.36-.3-.78-.63-.92-.72-.92-.72c-.05-.04-.53-.41-.66-.64l.23-.13c.08.14.4.42.59.56,0,0,.51.39.93.72s.78.63.78.63l-.16.2h0Z"/>
    <path class="st1" d="M29.35,44.38h-.26s0-.86-.03-1.18c-.03-.34,0-.78,0-.8,0,0,0-.62-.03-.91v-.14c-.03-.19-.04-.32-.1-.4l.21-.15c.1.13.11.3.13.53v.13c.04.31.04.92.04.94,0,0-.03.45,0,.77.03.33.03,1.17.03,1.2"/>
    <path class="st1" d="M29.06,42.34s-.51-.31-.82-.75c-.17-.23-.34-.51-.43-.65-.14-.23-.24-.41-.24-.41l.23-.13s.1.17.24.4c.08.14.25.41.41.63.28.39.74.68.74.68l-.14.22h0Z"/>
    <path class="st1" d="M30.49,44.01c-.09-.06-.24-.25-.17-.58.06-.35.22-.58.23-.59l.21.15s-.13.19-.19.49c-.04.23.06.31.07.32l-.15.21h0Z"/>
    <path class="st1" d="M30.82,43.87l-.23-.12s.26-.53.32-.92c0-.07.02-.14.04-.2.07-.32.12-.6-.2-1.1-.24-.37-.41-.58-.55-.74-.1-.12-.19-.22-.26-.34l-.07-.12c-.13-.22-.25-.44-.3-.66l.25-.06c.05.18.15.37.28.59l.07.12c.06.1.13.18.23.3.14.16.33.38.57.77.38.59.3.95.23,1.3,0,.06-.02.12-.04.19-.06.44-.33.98-.34,1"/>
    <path class="st1" d="M31.09,42.92l-.11-.24c.22-.1.38-.48.43-.65,0-.1-.02-.45.03-.73.03-.17.04-.28.04-.42,0-.1,0-.2.02-.32.02-.24.06-.39.13-.6l.06-.19c.09-.34.36-.79.37-.8l.22.13s-.26.43-.34.74l-.06.2c-.06.2-.1.34-.12.56,0,.12-.02.21-.02.3,0,.14,0,.27-.05.46-.05.28-.03.68-.03.68v.04c-.02.07-.21.66-.58.83"/>
    <polygon class="st1" points="31.49 40.78 30.93 40.01 31.14 39.85 31.7 40.63 31.49 40.78"/>
    <path class="st1" d="M30.74,44.03l-.08-.25s.37-.12.7-.44c.33-.33.6-.61.65-.76l.25.08c-.07.21-.34.48-.71.85-.39.38-.79.51-.81.51"/>
    <path class="st1" d="M32.17,44.53l-.18-.18s.55-.55.75-1.03c.2-.49.29-1.2.2-1.62-.09-.45-.12-.59-.12-.59l.25-.05s.03.14.12.6c.1.47,0,1.23-.21,1.77-.22.53-.78,1.09-.8,1.11"/>
    <path class="st1" d="M33.06,43.07l-.17-.2s.39-.32.64-.61c.15-.17.26-.24.35-.3.08-.05.15-.1.25-.21l.19.18c-.13.14-.22.2-.3.25-.09.06-.17.11-.29.25-.27.3-.65.62-.67.63"/>
    <path class="st1" d="M32.66,45.56l-.15-.21.64-.47s.18-.16.52-.3c.23-.08.33-.09.42-.09.07,0,.12,0,.24-.05.26-.11.48-.4.48-.4l.21.15s-.27.35-.59.49c-.17.07-.25.07-.33.07-.07,0-.15,0-.34.08-.33.13-.42.23-.42.23l-.02.02-.66.48h0Z"/>
    <path class="st0" d="M28.67,46.08l-.5.12s.05.18.35.12.42-.14.42-.14l-.27-.09h0Z"/>
    <path class="st1" d="M28.41,46.46c-.23,0-.34-.14-.36-.22l-.04-.13.67-.16.55.19-.21.15s-.15.1-.47.16c-.05,0-.1.02-.14.02"/>
    <path class="st0" d="M26.44,43.63s-.12-.03-.06.21c.06.24.51.66.51.66,0,0,.27.03-.09-.48s-.36-.38-.36-.38"/>
    <path class="st1" d="M26.89,44.63h-.07l-.03-.03c-.05-.05-.47-.45-.54-.72-.03-.14-.02-.23.03-.3,0,0,.02-.02.03-.03v-.04h.14c.08,0,.15.02.45.44.19.28.25.45.18.58-.04.07-.11.11-.19.11"/>
    <path class="st0" d="M27.4,39.51s-.11-.05-.1.19c0,.25.36.75.36.75,0,0,.26.09,0-.48-.24-.57-.27-.46-.27-.46"/>
    <path class="st1" d="M27.69,40.58h-.12l-.02-.05s-.37-.54-.38-.81c0-.13.02-.22.07-.27.04-.04.08-.06.14-.06h.04c.1,0,.18.08.38.54.12.29.14.47.07.58-.04.06-.1.09-.17.09"/>
    <path class="st0" d="M27.78,45.63s-.48.39-.27.42c.21.03.54-.39.54-.39l-.21-.06-.06.03h0Z"/>
    <path class="st1" d="M27.54,46.18h-.05c-.11-.02-.15-.1-.16-.13,0-.05-.05-.18.36-.52l.13-.07.44.12-.12.15c-.06.07-.36.44-.62.44"/>
    <path class="st0" d="M26.05,45.69s-.06-.09-.24,0c-.18.09-.21.27-.21.27,0,0,.09.06.27-.03.18-.09.18-.24.18-.24"/>
    <path class="st1" d="M25.69,46.11c-.09,0-.15-.03-.16-.04l-.07-.05v-.08c.03-.09.11-.27.29-.36.19-.1.36-.03.41.04l.02.03v.04c0,.09-.06.26-.26.36-.08.04-.16.06-.23.06"/>
    <path class="st0" d="M27.69,45.57s-.12-.09-.3-.21c-.18-.12-.51-.12-.51-.12,0,0,.06.3.24.3s.5.03.5.03h.07,0Z"/>
    <path class="st1" d="M28.09,45.7h-.46s-.33-.03-.5-.03c-.28,0-.36-.36-.37-.4l-.03-.16h.16s.38,0,.58.14c.18.13.3.21.3.21l.33.23h-.01Z"/>
    <path class="st0" d="M25.87,44.23s-.21-.3-.3-.47c-.08-.19-.21-.15-.39-.25-.18-.09-.15.09.06.3.21.2.63.42.63.42"/>
    <path class="st1" d="M25.81,44.35s-.43-.22-.66-.44c-.1-.11-.26-.3-.2-.45.04-.1.15-.13.29-.07.05.03.1.04.14.05.11.03.23.07.31.25.09.16.29.45.29.45l-.17.19v.02h0Z"/>
    <path class="st0" d="M26.5,42.11s-.03-.17-.06-.39c-.03-.21-.45-.48-.45-.48,0,0-.04.4.15.57.18.18.36.3.36.3"/>
    <path class="st1" d="M26.67,42.37l-.24-.16s-.19-.13-.38-.31c-.22-.21-.19-.62-.18-.67l.02-.21.18.12c.08.05.47.32.5.57.03.21.05.38.05.38l.05.29h0Z"/>
    <path class="st0" d="M27.01,42.77s-.21-.06-.48-.12c-.27-.06-.68.03-.68.03,0,0,.18.18.51.21s.66-.12.66-.12"/>
    <path class="st1" d="M26.44,43.02h-.1c-.37-.04-.58-.24-.59-.25l-.17-.17.23-.05s.5-.08.74-.02c.28.06.49.12.49.12l.34.1-.32.14s-.3.13-.62.13"/>
    <path class="st0" d="M25.93,44.35s-.09.21-.33.18-.48-.09-.33.06.36.21.54.09.12-.33.12-.33"/>
    <path class="st1" d="M25.61,44.87h0c-.15,0-.3-.07-.42-.19-.03-.03-.12-.12-.07-.22.03-.06.12-.11.38-.08.04,0,.08,0,.13.02h0c.14,0,.19-.1.19-.1l.14-.33.1.34c.03.1.04.34-.17.47-.08.06-.18.09-.28.09"/>
    <path class="st0" d="M26.26,44.29s-.03-.36-.15-.45-.24.03-.12.15c.12.12.26.3.26.3"/>
    <path class="st1" d="M26.42,44.69l-.26-.31s-.14-.17-.26-.29c-.08-.08-.11-.18-.07-.27.05-.13.23-.17.36-.08.15.11.19.44.2.54,0,0,.03.41.03.41Z"/>
    <path class="st0" d="M27.72,43.1s.15-.36.09-.66-.18-.42-.18-.42c0,0-.12.3-.12.51s.21.57.21.57"/>
    <path class="st1" d="M27.74,43.39l-.13-.23s-.23-.4-.23-.63.12-.54.13-.56l.07-.18.14.14s.16.16.22.49-.09.71-.1.73l-.1.24Z"/>
    <path class="st0" d="M28.32,41.28s-.06-.33-.06-.6-.15-.6-.15-.6c0,0-.18.33-.18.48s.15.51.15.51l.24.21h0Z"/>
    <path class="st1" d="M28.52,41.62l-.56-.5c-.03-.06-.17-.39-.17-.56s.17-.48.2-.54l.13-.22.1.24s.16.35.16.65c0,.25.06.57.06.57l.07.37h0Z"/>
    <path class="st0" d="M28.76,39.61s.12.32.12.57.15.72.15.72c0,0-.39-.27-.42-.63s.15-.66.15-.66"/>
    <path class="st1" d="M29.27,41.21l-.31-.21s-.44-.31-.47-.73c-.03-.39.16-.72.16-.73l.14-.24.09.26s.13.35.13.61c0,.18.1.55.14.68l.11.36h0Z"/>
    <path class="st0" d="M29.69,39.64s.15-.38.03-.59-.36-.36-.36-.36c0,0,.06.3.12.51s.21.45.21.45"/>
    <path class="st1" d="M29.72,39.93l-.14-.22s-.16-.26-.22-.48c-.06-.21-.12-.51-.12-.52l-.05-.29.25.16s.27.17.4.41c.15.25,0,.66-.02.7l-.09.24h0Z"/>
    <path class="st0" d="M30.65,41.04s.12-.15.12-.42-.15-.45-.15-.45c0,0-.18.21-.18.39s.12.48.12.48h.09Z"/>
    <path class="st1" d="M30.71,41.17h-.24l-.03-.08s-.13-.33-.13-.53c0-.22.19-.45.21-.48l.1-.12.1.12s.18.22.18.53-.13.48-.15.5l-.04.05h0Z"/>
    <path class="st0" d="M29.18,43.33s-.3-.15-.36-.33-.3-.15-.12.18c.18.33.42.39.42.39l.03-.3.03.06Z"/>
    <path class="st1" d="M29.24,43.74l-.15-.04s-.3-.08-.5-.45c-.09-.16-.11-.29-.05-.39.09-.15.34-.09.41.1,0,.04.05.08.09.12l.03-.27.22.43h0l.18.37-.21-.1-.02.22h0Z"/>
    <path class="st0" d="M30.47,43.07s-.15-.24-.35-.36c-.21-.12-.54-.12-.54-.12,0,0,.18.27.36.38.18.13.54.1.54.1"/>
    <path class="st1" d="M30.37,43.2c-.15,0-.37-.02-.51-.12-.19-.13-.39-.41-.39-.42l-.14-.2h.25s.36,0,.6.13c.24.14.4.39.4.41l.11.18-.21.02h-.11"/>
    <path class="st1" d="M31.07,42.81l.31-.81.08-.05.31-.34.55-.32-.05.28s-.1.52-.3.73c-.19.2-.59.38-.61.38l-.29.13ZM31.59,42.17l-.04.11c.09-.05.17-.11.23-.17.06-.06.11-.18.15-.3h0l-.33.36h0Z"/>
    <path class="st0" d="M31.12,42.41s-.27-.18-.5-.24c-.24-.06-.39.03-.39.03,0,0,.24.15.39.27s.36.15.36.15l.15-.21h0Z"/>
    <path class="st1" d="M31.04,42.76h-.08s-.25-.05-.42-.19c-.15-.11-.38-.26-.38-.26l-.17-.11.17-.11s.12-.07.3-.07c.06,0,.13,0,.19.02.25.06.53.25.54.26l.11.07-.27.38h.01Z"/>
    <path class="st0" d="M28.74,45.63s0-.27-.07-.48c-.06-.21-.15-.09-.15.15s.21.33.21.33"/>
    <path class="st1" d="M28.87,45.83l-.18-.08c-.11-.04-.29-.19-.29-.45s.08-.39.21-.39c.09,0,.16.07.19.21.07.22.07.5.07.51v.2h0Z"/>
    <path class="st0" d="M28.11,43.48s0-.26-.06-.48c-.06-.21-.15-.09-.15.15s.21.33.21.33"/>
    <path class="st1" d="M28.24,43.68l-.18-.07c-.11-.04-.29-.19-.29-.45,0-.24.08-.38.21-.38.09,0,.16.07.19.2.07.23.07.5.07.51v.2h0Z"/>
    <path class="st0" d="M29.36,45.19s-.24-.09-.48-.15c-.24-.06-.42-.03-.42-.03,0,0,.3.26.53.33.24.06.48.06.48.06l-.12-.21h0Z"/>
    <path class="st1" d="M29.71,45.52h-.23s-.26,0-.51-.06c-.26-.07-.56-.33-.59-.36l-.2-.18.26-.05h.14c.11,0,.22,0,.33.04.25.06.48.15.49.15l.04.02.26.44h0Z"/>
    <path class="st0" d="M28.02,45.1s.03-.12-.02-.45c-.07-.33-.3-.36-.3-.36,0,0,.06.18.06.36s.09.45.09.45h.18,0Z"/>
    <path class="st1" d="M28.12,45.23h-.37l-.03-.09s-.1-.29-.1-.49c0-.15-.06-.31-.06-.31l-.07-.2.21.03s.33.05.41.46c.06.34.03.48.02.51l-.02.1h0Z"/>
    <path class="st0" d="M27.46,44.86s-.27.06-.6.12c-.33.06-.48.24-.48.24,0,0,.24.12.42.09s.6-.24.6-.24l.06-.21Z"/>
    <path class="st1" d="M26.74,45.44c-.2,0-.4-.1-.42-.11l-.15-.07.11-.13s.18-.21.56-.28c.32-.06.6-.12.6-.12l.21-.05-.14.47-.05.02s-.44.22-.63.25h-.08"/>
    <polygon class="st1" points="27.65 43.32 27 43.28 27.01 43.02 27.67 43.06 27.65 43.32"/>
    <rect class="st1" x="28.08" y="43.77" width=".56" height=".26"/>
    <path class="st0" d="M28.02,43.55s-.3-.09-.56-.09-.75.06-.19.21c.57.15.75-.12.75-.12"/>
    <path class="st1" d="M27.59,43.84h0c-.11,0-.23-.02-.35-.05-.16-.04-.38-.1-.36-.27,0-.07.03-.2.58-.2.28,0,.59.09.6.09l.16.05-.09.14s-.16.22-.54.22"/>
    <path class="st0" d="M28.5,43.78s.06-.3.06-.54-.24-.69-.24-.69v.63c0,.24.18.6.18.6"/>
    <path class="st1" d="M28.55,44.18l-.17-.34s-.19-.4-.19-.65v-.63l.24-.06s.25.49.25.75-.06.55-.06.56c0,0-.07.37-.07.37Z"/>
    <path class="st0" d="M26.92,42.44s.14-.21.18-.45c.02-.24-.12-.48-.12-.48,0,0-.12.18-.12.39s.03.48.03.48l.03.06Z"/>
    <path class="st1" d="M26.91,42.69l-.15-.29s-.03-.29-.03-.49c0-.25.14-.45.14-.46l.11-.17.11.17s.17.28.14.56c-.04.27-.2.5-.2.51l-.12.17h0Z"/>
    <path class="st0" d="M28.14,41.39s-.21,0-.38-.15c-.18-.15-.66-.21-.54-.03.12.18.27.27.51.27s.42-.09.42-.09"/>
    <path class="st1" d="M27.72,41.61c-.27,0-.46-.1-.61-.32-.06-.1-.04-.17-.02-.2.04-.07.12-.11.24-.11.15,0,.38.06.51.17.14.12.3.12.3.12l.06.24s-.21.1-.48.1"/>
    <path class="st0" d="M28.8,42.05s0,.06-.27.21c-.27.15-.21.45.06.27s.21-.48.21-.48"/>
    <path class="st1" d="M28.44,42.72h0c-.1,0-.18-.06-.21-.16-.04-.14.06-.31.23-.41.18-.1.21-.15.22-.15l.06.05.18-.02s.08.39-.26.61c-.08.05-.15.08-.22.08"/>
    <path class="st0" d="M27.75,40.68s-.18-.09-.39-.06-.21.3.09.27.3-.21.3-.21"/>
    <path class="st1" d="M27.41,41.02c-.21,0-.32-.13-.32-.25,0-.14.11-.26.26-.28h.1c.19,0,.34.07.36.08l.07.04v.08s0,.3-.41.34h-.06"/>
    <path class="st1" d="M29.66,40.06c-.19,0-.37-.05-.7-.29-.16-.11-.22-.23-.18-.34.03-.1.14-.16.29-.16.07,0,.15.02.22.05.15.07.34.15.39.17l.08-.02c.08.17.15.4.07.52-.03.05-.09.08-.15.08M29.07,39.52s.02.02.04.03c.25.18.38.23.48.24,0-.02,0-.05-.02-.08-.06-.02-.25-.1-.41-.17-.03,0-.06-.02-.09-.02"/>
    <path class="st0" d="M29.22,41.81l.3-.54s0,.42-.09.69-.27.36-.27.36v-.51h.06Z"/>
    <path class="st1" d="M29.02,42.53v-.85h.12l.26-.47.24.06s0,.44-.1.73c-.1.31-.31.42-.33.43l-.19.1h0Z"/>
    <path class="st0" d="M29.87,45.43s.18-.21.15-.45-.12-.6-.12-.6c0,0-.15.18-.18.42-.02.24.16.63.16.63"/>
    <path class="st1" d="M29.84,45.67l-.08-.19s-.19-.43-.17-.7c.04-.28.2-.48.21-.49l.16-.19.06.24s.1.37.13.62c.03.29-.17.54-.18.55l-.13.16h0Z"/>
    <path class="st0" d="M29.36,44.53s.18,0,.27-.24c.09-.23-.03-.51-.03-.51,0,0-.21.18-.21.33s-.03.48-.03.48v-.06Z"/>
    <path class="st1" d="M29.22,44.67v-.27h.02c0-.1.02-.22.02-.29,0-.2.21-.39.25-.43l.13-.11.07.16s.14.32.03.6c-.08.22-.25.31-.37.32h-.15v.02h0Z"/>
    <path class="st0" d="M30.26,44.47s-.27-.39-.39-.39.15.39.21.6c.06.21.27.24.27.24l-.09-.45h0Z"/>
    <path class="st1" d="M30.51,45.07l-.18-.03c-.11-.02-.31-.1-.38-.33-.02-.07-.07-.17-.11-.26-.1-.2-.17-.33-.11-.43l.04-.06h.1c.13,0,.29.14.5.43l.02.05.13.63h-.01Z"/>
    <path class="st0" d="M29.22,43.4s.08.18.27-.06c.18-.24.24-.27.24-.27,0,0,0,.3-.09.44-.09.15-.41.18-.41.18l-.03-.36.03.06h-.01Z"/>
    <path class="st1" d="M29.1,43.84l-.05-.49.24-.07.03.05s.03-.03.06-.07c.09-.12.21-.27.28-.31l.19-.09v.21s0,.34-.11.51c-.11.19-.44.23-.51.24h-.13v.02Z"/>
    <path class="st0" d="M29.15,41.07s.15-.06.18-.33-.12-.42-.12-.42c0,0-.12.18-.12.33s.06.42.06.42"/>
    <path class="st1" d="M29.06,41.25l-.03-.15s-.07-.28-.07-.45c0-.18.13-.38.14-.4l.09-.13.11.12s.19.2.15.53c-.04.33-.24.42-.26.43l-.14.06h.01Z"/>
    <path class="st0" d="M30.41,43.57s-.24-.09-.48-.09-.36.06-.36.06c0,0-.12.03.27.18.39.14.57.11.57.11v-.27h0Z"/>
    <path class="st1" d="M30.36,43.98c-.09,0-.27-.02-.57-.13-.25-.1-.38-.17-.37-.3v-.09l.12-.04h0s.13-.06.39-.06.51.09.52.1l.08.03v.47l-.11.02h-.07"/>
    <path class="st1" d="M30.57,41.77c-.3,0-.51-.08-.63-.24l-.03-.05c-.14-.21-.22-.32-.16-.42.02-.05.08-.13.36-.06.35.09.86.48.88.5l.22.17-.27.06s-.17.04-.37.04M30.07,41.26s.04.05.05.08l.03.05c.06.08.2.13.4.13-.15-.1-.34-.21-.49-.25"/>
    <path class="st0" d="M30.5,41.1s-.66-.09-.75-.21,0-.27.21-.18.6.34.6.34l-.06.06h0Z"/>
    <path class="st1" d="M30.54,41.24h-.06c-.33-.05-.73-.13-.83-.27-.07-.09-.08-.19-.04-.28.06-.12.22-.17.39-.1.22.1.6.33.62.34l.14.09-.23.22h0Z"/>
    <path class="st0" d="M30.14,40.62s-.57.09-.74-.21c-.18-.3-.21-.24.12-.15s.62.36.62.36"/>
    <path class="st1" d="M29.95,40.76c-.33,0-.56-.1-.67-.29-.04-.06-.06-.1-.09-.14-.05-.08-.09-.14-.05-.21l.04-.07h.09s.06,0,.12.02c.04,0,.09.03.16.05.36.1.66.38.68.39l.2.18-.27.04h-.2"/>
    <path class="st0" d="M31.12,39.9s.33-.09.33-.33-.09-.62-.09-.62c0,0-.21.26-.21.41s-.03.54-.03.54"/>
    <path class="st1" d="M30.98,40.08l.02-.18s.03-.38.03-.53c0-.18.18-.42.24-.5l.17-.21.06.26s.09.4.09.65c0,.27-.27.41-.43.45l-.18.05h0Z"/>
    <path class="st0" d="M31.03,39.93s.12-.5,0-.71-.27-.3-.27-.3c0,0-.12.48-.03.62.09.15.3.39.3.39"/>
    <path class="st1" d="M31.1,40.2l-.16-.19s-.22-.25-.31-.4c-.11-.18,0-.6.02-.72l.04-.17.15.09s.18.11.31.34c.14.24.04.72,0,.81l-.06.24h.01Z"/>
    <path class="st0" d="M30.97,39.78s-.27-.15-.48-.21c-.21-.06-.27.18.06.33s.42-.12.42-.12"/>
    <path class="st1" d="M30.74,40.08h0c-.07,0-.15-.02-.24-.06-.26-.12-.33-.29-.3-.41.03-.13.16-.21.33-.16.22.07.5.21.51.22l.1.05-.03.1c-.03.09-.14.25-.36.25"/>
    <path class="st0" d="M32.16,39.04s.21-.06.27-.33-.12-.48-.12-.48c0,0-.21.15-.21.33s.06.48.06.48"/>
    <path class="st1" d="M32.06,39.21l-.03-.14s-.06-.32-.06-.51c0-.23.23-.41.26-.43l.1-.07.08.09s.23.26.15.6c-.07.34-.35.42-.36.43l-.14.04h0Z"/>
    <path class="st0" d="M31.9,39.61s.09-.09.36-.18.54-.18.54-.18c0,0-.24.36-.48.45-.24.09-.5.12-.5.12l.09-.21h0Z"/>
    <path class="st1" d="M31.61,39.97l.2-.46s.12-.11.41-.21c.27-.09.54-.18.54-.18l.36-.12-.21.31s-.27.39-.55.49c-.25.09-.52.13-.53.13l-.22.03h0Z"/>
    <path class="st0" d="M34.17,41.85s.33-.12.48-.33c.15-.21.15-.39.15-.39,0,0-.3.12-.44.3-.15.18-.18.42-.18.42"/>
    <path class="st1" d="M34.01,42.04l.03-.21s.04-.28.21-.49c.17-.2.48-.33.5-.34l.18-.07v.19s0,.23-.17.46c-.17.24-.52.37-.54.38l-.2.08h-.01Z"/>
    <path class="st0" d="M34.83,44.17s.27.03.48-.15c.21-.17.24-.51.24-.51,0,0-.3.15-.42.27s-.18.39-.18.39h-.12Z"/>
    <path class="st1" d="M34.78,44.32l.04-.18v-.1h.02c.03-.1.09-.26.19-.35.13-.13.42-.28.45-.3l.21-.11-.02.23s-.03.39-.28.6c-.11.1-.23.14-.34.17h0l-.27.03h0Z"/>
    <path class="st0" d="M31.39,44.95s0-.33-.03-.51c-.03-.17-.09-.38-.09-.38,0,0-.21.42-.18.62.02.21.15.42.15.42,0,0,.15-.15.15-.15Z"/>
    <path class="st1" d="M31.22,45.31l-.09-.15s-.13-.24-.16-.47c-.04-.23.15-.62.19-.7l.15-.3.09.32s.06.21.09.39c.03.2.03.52.03.53v.05l-.3.32h0Z"/>
    <path class="st0" d="M31.78,44.65s.03-.15.06-.38c.03-.25-.03-.42-.03-.42,0,0-.3.15-.24.51.06.35.21.24.21.24v.06h0Z"/>
    <path class="st1" d="M31.73,44.74c-.1,0-.23-.06-.28-.36-.06-.36.18-.58.31-.65l.13-.06.05.14s.07.21.03.48c-.03.24-.06.39-.06.39h-.07l.02.02s-.06.04-.13.04"/>
    <path class="st0" d="M32.35,43.99s.27-.51.03-.39-.3.3-.3.3l.27.09Z"/>
    <path class="st1" d="M32.41,44.15l-.5-.17.04-.12s.09-.23.36-.37c.12-.06.21-.04.26.05.02.04.08.14-.12.52l-.05.1h.01Z"/>
    <path class="st0" d="M32.14,42.62s.17-.48.15-.6c-.03-.12-.15-.08-.27.21-.12.3-.06.6-.06.6l.18-.21h0Z"/>
    <path class="st1" d="M31.88,43.11l-.05-.26s-.07-.34.06-.67c.1-.24.21-.35.33-.35.07,0,.15.04.19.16.03.14-.08.49-.15.68l-.02.04-.35.41h0Z"/>
    <path class="st0" d="M31.7,43.04v-.26s-.21.06-.21.23.21.09.21.09v-.06Z"/>
    <path class="st1" d="M31.59,43.25c-.14,0-.24-.1-.24-.24,0-.22.2-.33.31-.36l.16-.04v.58l-.08.04s-.08.03-.16.03"/>
    <rect class="st1" x="26.05" y="42.13" width=".54" height=".26"/>
    <path class="st0" d="M31.57,45.27s.27-.06.48-.21c.21-.15.3-.33.3-.33,0,0-.53.09-.63.18-.09.09-.15.36-.15.36"/>
    <path class="st1" d="M31.4,45.44l.05-.2s.07-.3.18-.42c.11-.1.49-.18.7-.22l.25-.04-.12.23s-.11.21-.34.37c-.23.17-.52.23-.53.23l-.2.04h0Z"/>
    <path class="st0" d="M32.97,42.71s-.21-.15-.33-.42c-.11-.27-.18-.51-.18-.51,0,0,.31.08.42.3.15.3.06.69.06.69l.03-.06Z"/>
    <path class="st1" d="M33.05,42.94l-.18-.14c-.07-.06-.24-.21-.35-.45-.12-.28-.18-.52-.18-.53l-.05-.21.21.06s.37.1.5.36c.11.21.11.46.09.61l.02.02-.05.14-.02.14h0Z"/>
    <path class="st0" d="M32.8,43.63s.39.03.62-.12c.24-.15.63-.39.42-.39s-.75.18-.75.18l-.3.33h.01Z"/>
    <path class="st1" d="M32.88,43.77h-.09l-.26-.02.49-.55h.03c.06-.03.56-.2.79-.2.14,0,.17.08.18.12.04.14-.09.24-.53.51-.19.12-.47.14-.61.14"/>
    <path class="st0" d="M32.92,41.34s-.09-.24-.36-.3c-.27-.07-.3.12-.06.33.24.21.47-.03.47-.03,0,0-.05,0-.05,0Z"/>
    <path class="st1" d="M32.71,41.58c-.11,0-.21-.04-.3-.12-.17-.14-.24-.3-.19-.42.02-.05.12-.19.37-.13.22.05.35.2.41.29h.29l-.22.22s-.16.16-.36.16"/>
    <path class="st0" d="M31.03,41.61s.12-.09.09-.36-.12-.39-.12-.39l-.12.3.15.45Z"/>
    <path class="st1" d="M30.97,41.82l-.22-.67.22-.55.14.17s.12.16.15.46c.04.33-.12.46-.14.48l-.14.11h0Z"/>
    <path class="st0" d="M31.51,41.79s-.39-.18-.24-.78.18.12.18.12l.06.66h0Z"/>
    <path class="st1" d="M31.66,42l-.2-.09c-.17-.08-.45-.37-.31-.93.05-.18.1-.34.23-.34s.19.13.21.48l.08.88h-.01Z"/>
    <path class="st0" d="M31.7,41.1s.21.06.44-.21c.24-.27.27-.51.27-.51l-.42.24-.29.48h0Z"/>
    <path class="st1" d="M31.75,41.23h-.09l-.16-.05.43-.67.64-.37-.03.25s-.04.28-.3.58c-.2.22-.39.26-.49.26"/>
    <path class="st0" d="M32.94,41.07s.03-.18,0-.39c-.02-.21-.18-.27-.18-.27l-.03.36.21.3h0Z"/>
    <path class="st1" d="M33.02,41.4l-.42-.6.05-.58.16.07c.08.03.23.15.26.37.03.22,0,.42,0,.42l-.05.31h0Z"/>
    <path class="st0" d="M33.36,42.74s0,.12.36.15c.36.03.54-.12.54-.12,0,0-.3-.15-.42-.15s-.48.12-.48.12"/>
    <path class="st1" d="M33.81,43.02h-.1c-.43-.04-.48-.21-.48-.28v-.09l.09-.03c.06-.02.39-.12.52-.12s.4.13.48.17l.18.09-.16.13s-.2.15-.53.15"/>
    <path class="st0" d="M33.15,44.95s.12-.33.12-.47-.03-.42-.03-.42c0,0-.24.23-.24.42s.15.47.15.47"/>
    <path class="st1" d="M33.17,45.27l-.13-.27s-.16-.33-.16-.53c0-.23.23-.46.28-.51l.19-.19.03.26s.03.27.03.43c0,.17-.12.49-.13.52l-.1.28h0Z"/>
    <path class="st0" d="M34.14,44.53s.24-.24.32-.39c.09-.15.21-.39.21-.39,0,0-.3.15-.39.26-.09.13-.14.57-.14.57v-.06h0Z"/>
    <path class="st1" d="M33.96,44.9l.07-.44c.04-.26.09-.43.15-.52.11-.14.38-.28.44-.3l.34-.17-.17.34s-.12.24-.21.4c-.07.12-.23.29-.3.37v.03h-.02l-.28.3h-.02,0Z"/>
    <path class="st0" d="M32.64,45.25l-.06-.45s-.11.18-.11.33.09.39.09.39l.09-.27h0Z"/>
    <path class="st1" d="M32.56,45.92l-.13-.36s-.09-.27-.09-.43c0-.18.12-.38.14-.4l.19-.3.11.83-.21.66h0Z"/>
    <path class="st0" d="M33.66,44.89s.21.09.36.18.3.24.3.24c0,0-.42-.09-.63-.21s-.12-.21-.12-.21c0,0,.09,0,.09,0Z"/>
    <path class="st1" d="M34.71,45.52l-.42-.09s-.44-.09-.67-.22c-.12-.07-.19-.15-.2-.24,0-.08.02-.14.05-.17l.04-.04h.2s.22.11.37.2c.16.1.32.26.33.26l.3.31h0Z"/>
    <path class="st0" d="M32.41,46.02s.21.06.45.18c.24.12.45.12.45.12,0,0-.15-.3-.3-.33-.15-.03-.54.06-.54.06l-.06-.03Z"/>
    <path class="st1" d="M33.51,46.45h-.21s-.24,0-.5-.13c-.12-.06-.23-.11-.32-.14h0l-.13-.05-.33-.11.41-.09v-.03s.03,0,.07.02c.13-.03.4-.08.53-.05.2.04.35.31.39.4l.1.19h0Z"/>
    <path class="st0" d="M33.39,45.82s-.09.27.24.27.6-.03.42-.09c-.18-.06-.59-.17-.59-.17h-.07Z"/>
    <path class="st1" d="M33.63,46.21c-.15,0-.26-.05-.32-.14-.09-.13-.05-.28-.04-.3l.03-.09h.19s.42.12.6.18c.14.05.15.13.14.18-.02.11-.11.16-.6.16"/>
    <path class="st0" d="M34.05,45.57s.12.09.39.15.42-.12.42-.12c0,0-.33-.18-.45-.18s-.27.06-.27.06c0,0-.09.09-.09.09Z"/>
    <path class="st1" d="M34.54,45.87h-.13c-.29-.07-.42-.16-.44-.17l-.13-.09.25-.22s.17-.07.32-.07.43.15.51.19l.14.08-.1.12c-.06.07-.21.18-.42.18"/>
    <path class="st0" d="M33.75,44.62v-.39s-.15.09-.24.3c-.09.21-.12.33-.12.33l.33-.3s.03.06.03.06Z"/>
    <path class="st1" d="M33.14,45.25l.12-.43s.04-.13.13-.35c.1-.24.27-.35.29-.36l.2-.12v.62l-.09.02v.02l-.65.6Z"/>
    <path class="st0" d="M33.69,45.52s-.3-.18-.72-.06c-.42.11-.47.11-.06.14.42.03.87-.06.87-.06l-.09-.03h0Z"/>
    <path class="st1" d="M33.1,45.74h-.2c-.31-.02-.39-.03-.4-.15,0-.12.07-.15.32-.21l.11-.03c.11-.03.22-.05.33-.05.29,0,.48.12.49.12l.07.02-.02.25s-.34.07-.7.07"/>
    <path class="st0" d="M33.9,41.96s.12-.18.18-.36,0-.36-.12-.18-.18.75-.18.75l.12-.21Z"/>
    <path class="st1" d="M33.89,42.24l-.24-.08c0-.06.07-.61.2-.81.11-.16.26-.17.34-.06.07.1.05.25,0,.35-.06.19-.19.38-.19.39l-.11.2h0Z"/>
    <polygon class="st1" points="32.84 43.29 32.45 43.02 32.6 42.81 32.99 43.08 32.84 43.29"/>
    <path class="st1" d="M30.89,25.74c-5.1,0-8.6-1.07-8.63-1.08-.18-.06-1.05-.37-1.19-.71-.11-.29.14-.48.27-.58.03-.03.08-.06.09-.08,0-.01-.08-.15-.17-.26l-.63-.53.48-.8-.1-.53c-.09-.07-.28-.22-.3-.47s.13-.5.45-.76c.87-.68,5.69-2.02,9.67-1.88,3.88.15,8.55.77,10.02,2.06.56.49.33,1.12.13,1.35-.09.1-.13.16-.16.19l.41.81-.65.42c-.03.13-.08.36-.08.46,0,0,.02.05.04.09.09.19.3.64-.35.95-.68.32-4.76,1.33-9.31,1.33M20.97,22.44l.48.41c.09.11.26.35.23.52-.03.09-.1.14-.18.21-.16.12-.22.19-.19.28.06.15.58.41,1.03.56.03,0,3.5,1.07,8.56,1.07,4.51,0,8.54-.99,9.2-1.3.41-.2.32-.41.22-.61-.03-.07-.06-.13-.06-.19,0-.17.09-.53.1-.57v-.05l.55-.36-.35-.73s0-.08.24-.35c.09-.11.35-.59-.11-.98-1.42-1.25-6.2-1.86-9.86-2-3.85-.14-8.68,1.18-9.5,1.82-.24.19-.37.38-.35.53.02.18.21.29.22.3l.05.03.14.74-.41.69v-.02h0Z"/>
    <path class="st1" d="M30.94,25.5c-3.05,0-7.68-.89-7.73-.9-.39-.07-1.06-.23-1.07-.54,0-.22.27-.39.94-.55l.54-.13c1.78-.44,3.47-.86,7.25-.86,4.12,0,7.76,1.01,7.79,1.02.44.05.99.17,1,.43,0,.21-.25.36-.95.53-2.67.66-5.29.99-7.79.99M30.89,22.78c-3.75,0-5.42.41-7.19.85l-.54.13c-.69.17-.75.29-.75.3.04.07.45.22.86.29.05,0,4.65.9,7.68.9,2.48,0,5.09-.33,7.73-.99.52-.13.68-.22.73-.26-.1-.07-.44-.15-.78-.19-.06-.01-3.66-1.02-7.74-1.02"/>
    <path class="st1" d="M40.89,21.29s-2.69-2.21-10.03-2.21-9.62,2.09-9.64,2.11l-.18-.19c.09-.09,2.36-2.18,9.82-2.18s10.09,2.17,10.2,2.27l-.17.2h0Z"/>
    <path class="st1" d="M40.8,21.44s-2.61-2.12-9.95-2.12-9.56,2.06-9.58,2.08l-.18-.19c.09-.09,2.31-2.15,9.76-2.15s10.01,2.09,10.11,2.18l-.17.2h0Z"/>
    <path class="st1" d="M40.35,23.49s-3.65-1.58-9.3-1.58h-.17c-6.22.03-9.25,1.52-9.28,1.54l-.12-.23s3.11-1.54,9.4-1.57h.17c5.71,0,9.37,1.58,9.4,1.6l-.1.24h0Z"/>
    <path class="st1" d="M21.3,23.78l-.11-.23s3.41-1.62,9.7-1.65h.17c5.71,0,9.37,1.58,9.4,1.6l-.1.24s-3.65-1.58-9.3-1.58h-.17c-6.22.03-9.56,1.61-9.59,1.63"/>
    <path class="st1" d="M23.53,21.17c-.2,0-.35-.16-.35-.35s.16-.35.35-.35.35.16.35.35-.16.35-.35.35"/>
    <path class="st1" d="M27.62,20.3c-.2,0-.35-.16-.35-.35s.16-.35.35-.35.36.16.36.35-.16.35-.36.35"/>
    <path class="st1" d="M27.79,21.77c-.19,0-.35-.16-.35-.35s.16-.35.35-.35.36.16.36.35-.16.35-.36.35"/>
    <path class="st1" d="M23.75,22.48c-.19,0-.35-.16-.35-.35s.16-.35.35-.35.36.16.36.35-.16.35-.36.35"/>
    <path class="st1" d="M34.11,20.36c-.2,0-.35-.16-.35-.36s.16-.35.35-.35.35.16.35.35-.16.36-.35.36"/>
    <path class="st1" d="M34.17,21.74c-.2,0-.35-.16-.35-.35s.15-.35.35-.35.35.16.35.35-.16.35-.35.35"/>
    <path class="st1" d="M38.23,22.36c-.2,0-.35-.15-.35-.35s.16-.35.35-.35.35.16.35.35-.16.35-.35.35"/>
    <path class="st1" d="M38.5,21.17c-.2,0-.35-.15-.35-.35s.16-.35.35-.35.35.16.35.35-.16.35-.35.35"/>
    <path class="st1" d="M25.65,21.62c-.5,0-.87-.2-.89-.48-.03-.33.38-.62.96-.68.59-.07,1.05.14,1.08.46,0,.1-.02.21-.09.3-.16.19-.48.34-.86.38-.07,0-.13.01-.19.01M25.92,20.71h-.17c-.47.05-.74.27-.73.4,0,.12.27.25.64.25h.16c.35-.04.59-.17.68-.29.03-.04.04-.08.04-.11,0-.12-.25-.24-.62-.24"/>
    <path class="st1" d="M25.62,21.76c-.6,0-1.03-.25-1.06-.61-.02-.13.03-.27.13-.4.19-.24.58-.42,1.01-.46.69-.07,1.24.2,1.29.6.04.41-.46.78-1.14.85-.07,0-.15.01-.22.01M25.9,20.54c-.06,0-.12,0-.18.01-.36.04-.68.18-.83.36-.06.07-.08.14-.07.21.02.24.47.43,1,.37.57-.06.93-.34.91-.57-.03-.22-.38-.38-.82-.38"/>
    <path class="st1" d="M36.27,21.55c-.08,0-.17,0-.25-.02-.37-.05-.7-.21-.84-.41-.07-.1-.1-.2-.09-.31.04-.32.51-.51,1.09-.42.37.05.7.2.84.41.07.1.1.2.09.31-.04.26-.37.44-.84.44M35.91,20.63c-.34,0-.56.12-.57.22,0,.04,0,.08.04.12.11.14.37.26.67.31.07.01.15.02.22.02.35,0,.57-.11.59-.22,0-.04,0-.07-.04-.12-.09-.12-.33-.26-.67-.3-.08-.01-.16-.02-.23-.02"/>
    <path class="st1" d="M36.26,21.69c-.09,0-.19,0-.28-.02-.42-.06-.8-.25-.99-.5-.1-.13-.14-.27-.12-.4.06-.4.62-.65,1.31-.55.43.06.79.24.98.48.1.13.14.27.12.41-.05.34-.47.58-1.03.58M35.89,20.46c-.41,0-.73.15-.76.35,0,.07,0,.14.07.21.14.19.46.35.82.4.52.07.98-.1,1.01-.34,0-.07,0-.14-.07-.21-.14-.19-.46-.34-.81-.39-.09-.01-.17-.02-.25-.02"/>
    <path class="st1" d="M30.89,21.45l-1.92-.94,1.86-1.09,1.84,1.15s-1.78.88-1.78.88ZM29.51,20.5l1.37.67,1.25-.62-1.32-.82-1.31.77h.01Z"/>
    <path class="st1" d="M30.9,21.64l-.06-.03-2.2-1.08,2.18-1.28,2.18,1.35-2.11,1.03h.01ZM29.18,20.51l1.71.84,1.57-.77-1.65-1.02-1.64.96h0Z"/>
    <polygon class="st1" points="21.49 23.13 21.31 22.94 22.48 21.8 21.24 21.77 21.24 21.51 23.11 21.55 21.49 23.13"/>
    <polygon class="st1" points="40.34 23.14 39.09 21.87 40.66 21.39 40.74 21.64 39.57 22 40.52 22.96 40.34 23.14"/>
    <path class="st1" d="M21.38,23.06l-.75-.55.48-.88,1.6.04-1.33,1.4h0ZM20.96,22.43l.38.28.77-.81-.85-.02-.3.55Z"/>
    <path class="st1" d="M40.45,23l-.99-1.1,1.29-.39.49.97-.79.51h0ZM39.92,22.03l.57.64.4-.27-.29-.58-.69.21h0Z"/>
    <rect class="st1" x="30.7" y="20.03" width=".3" height=".42"/>
    <rect class="st1" x="30.57" y="19.9" width=".56" height=".68"/>
    <path class="st0" d="M30.39,20.89s.08-.01.1-.03.03-.04.03-.1v-.63c0-.06,0-.09-.03-.1,0,0-.05-.02-.1-.03v-.04h.46c.13,0,.22.02.28.06.07.04.1.11.1.21,0,.04-.02.09-.04.13-.02.04-.06.07-.12.1-.04.01-.09.03-.13.03h-.19v.27c0,.06,0,.09.02.11.02.01.05.02.1.03v.04h-.48v-.04h0Z"/>
    <path class="st1" d="M31,21.05h-.74v-.29h.12v-.64h0l-.11-.02v-.28h.59c.14,0,.26.02.34.07s.17.14.17.32c0,.06-.02.13-.06.2-.04.07-.1.11-.18.16-.07.02-.13.04-.18.04h-.07v.14h.12v.3h0,0Z"/>
    <path class="st0" d="M30.92,20.41s.06-.09.06-.19c0-.06,0-.12-.03-.16-.02-.04-.06-.06-.12-.06-.03,0-.05,0-.06.01,0,0-.02.02-.02.04v.39c.09,0,.14-.01.17-.03"/>
    <path class="st1" d="M30.75,20.57h-.13v-.52c0-.06.04-.11.06-.13.06-.05.11-.05.15-.05.11,0,.2.05.24.14.03.05.04.13.04.21,0,.09,0,.22-.12.29-.06.04-.13.05-.24.05"/>
    <path class="st1" d="M36.33,32.51c-.67,0-1.21-.55-1.21-1.22s.54-1.22,1.21-1.22,1.22.55,1.22,1.22-.55,1.22-1.22,1.22M36.33,30.33c-.53,0-.95.43-.95.96s.43.96.95.96.96-.43.96-.96-.43-.96-.96-.96"/>
    <path class="st1" d="M52.28,52.42h-1.43l-.26.97s-.09,0-.14.02h-.28s-.09,0-.13-.02l1.23-4.19s.09,0,.15-.02h.31c.05,0,.1,0,.15.02l1.22,4.19s-.09,0-.14.02-.1,0-.15,0h-.14c-.05,0-.09,0-.13-.02l-.26-.97ZM50.99,51.91h1.15l-.58-2.14-.57,2.14h0Z"/>
    <path class="st1" d="M53.52,52.85c.09.04.2.08.31.1.11.02.23.04.34.04.08,0,.16,0,.23-.03.07-.02.14-.05.19-.09s.1-.09.13-.14c.03-.06.05-.12.05-.19,0-.08,0-.14-.04-.19s-.06-.09-.11-.13c-.04-.03-.09-.06-.15-.09-.06-.02-.12-.05-.19-.07l-.18-.08c-.22-.09-.39-.2-.49-.32s-.15-.27-.15-.47c0-.26.08-.47.25-.63s.42-.23.75-.23c.14,0,.27.02.4.04.13.03.25.06.34.1,0,.08-.02.16-.04.23-.02.08-.04.15-.07.22-.08-.03-.17-.06-.27-.09-.11-.03-.22-.04-.34-.04s-.24.03-.34.08c-.1.05-.15.14-.15.27,0,.07,0,.12.04.17s.06.09.1.12c.04.03.09.06.14.08s.11.05.18.07l.23.09c.08.03.16.07.24.11s.14.1.19.16.1.14.13.23.05.2.05.33c0,.14-.03.28-.08.39-.05.12-.13.22-.22.3-.1.08-.21.15-.35.2s-.29.07-.45.07-.32,0-.44-.04c-.13-.02-.24-.06-.35-.1,0-.08.02-.16.04-.24.02-.08.05-.16.08-.24"/>
    <path class="st1" d="M55.72,52.85c.09.04.2.08.31.1.11.02.23.04.34.04.08,0,.16,0,.23-.03.07-.02.14-.05.19-.09s.1-.09.13-.14c.03-.06.05-.12.05-.19,0-.08,0-.14-.04-.19s-.06-.09-.11-.13c-.04-.03-.09-.06-.15-.09-.06-.02-.12-.05-.19-.07l-.18-.08c-.22-.09-.39-.2-.49-.32s-.15-.27-.15-.47c0-.26.08-.47.25-.63s.42-.23.75-.23c.14,0,.27.02.4.04.13.03.25.06.34.1,0,.08-.02.16-.04.23-.02.08-.04.15-.07.22-.08-.03-.17-.06-.27-.09-.11-.03-.22-.04-.34-.04s-.24.03-.34.08c-.1.05-.15.14-.15.27,0,.07,0,.12.04.17s.06.09.1.12c.04.03.09.06.14.08s.11.05.18.07l.23.09c.08.03.16.07.24.11s.14.1.19.16.1.14.13.23.05.2.05.33c0,.14-.03.28-.08.39-.05.12-.13.22-.22.3-.1.08-.21.15-.35.2s-.29.07-.45.07-.32,0-.44-.04c-.13-.02-.24-.06-.35-.1,0-.08.02-.16.04-.24.02-.08.05-.16.08-.24"/>
    <path class="st1" d="M58.5,52.04c0,.33.08.57.23.72.14.15.36.23.64.23.25,0,.48-.05.71-.15.03.06.05.13.07.21.02.08.03.17.03.25-.11.05-.24.09-.38.12s-.29.04-.46.04c-.24,0-.45-.04-.63-.11-.18-.07-.32-.18-.43-.32-.11-.14-.2-.3-.25-.49-.05-.19-.08-.4-.08-.62s.03-.43.08-.62.13-.36.23-.5c.11-.14.24-.25.4-.34.16-.08.35-.13.56-.13.19,0,.35.04.49.11s.26.17.35.29c.1.12.17.27.22.44s.07.35.07.55v.32s-1.85,0-1.85,0ZM59.83,51.61c0-.11,0-.21-.04-.31-.03-.1-.07-.19-.12-.26-.05-.07-.12-.13-.19-.18-.08-.04-.17-.07-.28-.07-.21,0-.38.07-.49.22-.11.14-.18.34-.21.6h1.33Z"/>
    <path class="st1" d="M60.93,52.85c.09.04.2.08.31.1.11.02.23.04.34.04.08,0,.16,0,.23-.03.07-.02.14-.05.19-.09s.1-.09.13-.14c.03-.06.05-.12.05-.19,0-.08,0-.14-.04-.19s-.06-.09-.11-.13c-.04-.03-.09-.06-.15-.09-.06-.02-.12-.05-.19-.07l-.18-.08c-.22-.09-.39-.2-.49-.32s-.15-.27-.15-.47c0-.26.08-.47.25-.63s.42-.23.75-.23c.14,0,.27.02.4.04.13.03.25.06.34.1,0,.08-.02.16-.04.23-.02.08-.04.15-.07.22-.08-.03-.17-.06-.27-.09-.11-.03-.22-.04-.34-.04s-.24.03-.34.08c-.1.05-.15.14-.15.27,0,.07,0,.12.04.17s.06.09.1.12c.04.03.09.06.14.08s.11.05.18.07l.23.09c.08.03.16.07.24.11s.14.1.19.16.1.14.13.23.05.2.05.33c0,.14-.03.28-.08.39-.05.12-.13.22-.22.3-.1.08-.21.15-.35.2s-.29.07-.45.07-.32,0-.44-.04c-.13-.02-.24-.06-.35-.1,0-.08.02-.16.04-.24.02-.08.05-.16.08-.24"/>
    <path class="st1" d="M63.14,52.85c.09.04.2.08.31.1.11.02.23.04.34.04.08,0,.16,0,.23-.03.07-.02.14-.05.19-.09s.1-.09.13-.14c.03-.06.05-.12.05-.19,0-.08,0-.14-.04-.19s-.06-.09-.11-.13c-.04-.03-.09-.06-.15-.09-.06-.02-.12-.05-.19-.07l-.18-.08c-.22-.09-.39-.2-.49-.32s-.15-.27-.15-.47c0-.26.08-.47.25-.63s.42-.23.75-.23c.14,0,.27.02.4.04.13.03.25.06.34.1,0,.08-.02.16-.04.23-.02.08-.04.15-.07.22-.08-.03-.17-.06-.27-.09-.11-.03-.22-.04-.34-.04s-.24.03-.34.08c-.1.05-.15.14-.15.27,0,.07,0,.12.04.17s.06.09.1.12c.04.03.09.06.14.08s.11.05.18.07l.23.09c.08.03.16.07.24.11s.14.1.19.16.1.14.13.23.05.2.05.33c0,.14-.03.28-.08.39-.05.12-.13.22-.22.3-.1.08-.21.15-.35.2s-.29.07-.45.07-.32,0-.44-.04c-.13-.02-.24-.06-.35-.1,0-.08.02-.16.04-.24.02-.08.05-.16.08-.24"/>
    <path class="st1" d="M66.61,53.46c-.21,0-.39-.04-.55-.12-.16-.08-.29-.19-.39-.33-.1-.14-.18-.31-.23-.5s-.08-.4-.08-.62.03-.43.08-.62.13-.36.23-.49c.11-.14.24-.25.39-.33.16-.08.34-.12.55-.12s.39.04.55.12c.16.08.29.19.39.33.1.14.18.3.23.49.05.19.08.4.08.62s-.03.43-.08.62-.13.36-.23.5c-.1.14-.24.25-.39.33-.16.08-.34.12-.55.12M66.61,53c.24,0,.42-.1.53-.29.12-.19.17-.46.17-.81s-.06-.62-.17-.81c-.11-.19-.29-.29-.53-.29s-.42.1-.53.29c-.11.19-.17.46-.17.81s.06.62.17.81c.11.19.29.29.53.29"/>
    <path class="st1" d="M68.5,50.4s.08,0,.11-.02h.23s.07,0,.11.02c0,.06.02.14.03.23,0,.1.02.18.02.24.07-.13.17-.25.29-.34.12-.1.27-.15.46-.15h.16s0,.07.02.11v.27s0,.1-.02.15h-.16c-.09,0-.19,0-.27.04-.09.03-.16.08-.23.15-.07.07-.12.17-.16.3-.04.13-.06.29-.06.5v1.49s-.08,0-.13.02h-.26c-.05,0-.09,0-.13-.02v-2.99h0Z"/>
    <path class="st1" d="M71.77,51.42c0-.23-.05-.39-.16-.48s-.26-.13-.46-.13c-.12,0-.24,0-.34.03-.11.02-.21.05-.31.08-.07-.13-.1-.28-.1-.46.12-.04.25-.08.39-.1.14-.02.28-.04.41-.04.35,0,.62.09.8.27.18.18.27.46.27.85v1.87c-.12.03-.27.06-.45.1-.18.03-.35.05-.54.05-.17,0-.33-.02-.46-.05-.14-.03-.26-.09-.35-.17-.1-.08-.17-.18-.22-.3s-.08-.27-.08-.44.03-.31.09-.44c.06-.13.15-.23.25-.32.1-.08.23-.15.36-.19.14-.04.28-.06.43-.06h.28c.07,0,.13,0,.18.02v-.11.02h.01ZM71.77,51.99c-.05,0-.12-.02-.2-.02h-.2c-.22,0-.38.04-.5.13-.11.09-.17.23-.17.41,0,.12.02.21.06.27.04.07.09.12.15.15.06.04.12.06.19.06h.45c.08,0,.16-.02.23-.04v-.95h0Z"/>
    <path class="st1" d="M73.12,50.86h-.41l-.02-.08.9-1.12h.04v.74h.68c.01.07.02.14.02.22v.12s0,.08-.02.12h-.68v1.36c0,.16,0,.29.02.39.01.1.03.17.06.22.03.05.07.09.12.1.05.02.11.03.19.03h.17s.1-.02.14-.03c.02.08.04.16.04.24v.22c-.07.02-.14.03-.22.04-.08,0-.16.02-.25.02-.25,0-.45-.07-.59-.2-.14-.14-.21-.36-.21-.68v-1.7h.02,0Z"/>
    <path class="st1" d="M75.94,53.46c-.21,0-.39-.04-.55-.12-.16-.08-.29-.19-.39-.33-.1-.14-.18-.31-.23-.5s-.08-.4-.08-.62.03-.43.08-.62.13-.36.23-.49c.11-.14.24-.25.39-.33.16-.08.34-.12.55-.12s.39.04.55.12c.16.08.29.19.39.33.1.14.18.3.23.49.05.19.08.4.08.62s-.03.43-.08.62-.13.36-.23.5-.24.25-.39.33c-.16.08-.34.12-.55.12M75.94,53c.24,0,.42-.1.53-.29.12-.19.17-.46.17-.81s-.06-.62-.17-.81c-.11-.19-.29-.29-.53-.29s-.42.1-.53.29c-.11.19-.17.46-.17.81s.06.62.17.81c.11.19.29.29.53.29"/>
    <path class="st1" d="M51.8,57.98c0-.23-.05-.39-.16-.48s-.26-.13-.46-.13c-.12,0-.24,0-.34.03-.11.02-.21.05-.31.08-.07-.13-.1-.28-.1-.46.12-.04.25-.08.39-.1.14-.02.28-.04.41-.04.35,0,.62.09.8.27.18.18.27.46.27.85v1.87c-.12.03-.27.06-.45.1-.18.03-.35.05-.54.05-.17,0-.33-.02-.46-.05-.14-.03-.26-.09-.35-.17-.1-.08-.17-.18-.22-.3s-.08-.27-.08-.44.03-.31.09-.44c.06-.13.15-.23.25-.32.1-.08.23-.15.36-.19.14-.04.28-.06.43-.06h.28c.07,0,.13,0,.18.02v-.11.02h.01ZM51.8,58.55c-.05,0-.12-.02-.2-.02h-.2c-.22,0-.38.04-.5.13-.11.09-.17.23-.17.41,0,.12.02.21.06.27.04.07.09.12.15.15.06.04.12.06.19.06h.45c.08,0,.16-.02.23-.04v-.95h0Z"/>
    <path class="st1" d="M53.03,55.68s.08,0,.13-.02h.26c.05,0,.09,0,.13.02v3.37c0,.11,0,.19.03.26.02.06.04.11.07.14.03.03.06.05.1.06h.24s.08,0,.1-.02c.03.14.05.28.05.44-.05.02-.11.03-.18.04h-.19c-.1,0-.2,0-.28-.04-.09-.03-.16-.07-.23-.13-.07-.06-.12-.15-.16-.25-.04-.1-.06-.23-.06-.39v-3.5h0v.02Z"/>
    <path class="st1" d="M54.55,55.68s.08,0,.13-.02h.26c.05,0,.09,0,.13.02v3.37c0,.11,0,.19.03.26.02.06.04.11.07.14.03.03.06.05.1.06h.24s.08,0,.1-.02c.03.14.05.28.05.44-.05.02-.11.03-.18.04h-.19c-.1,0-.2,0-.28-.04-.09-.03-.16-.07-.23-.13-.07-.06-.12-.15-.16-.25-.04-.1-.06-.23-.06-.39v-3.5h0v.02Z"/>
    <path class="st1" d="M56.46,58.6c0,.33.08.57.23.72.14.15.36.23.64.23.25,0,.48-.05.71-.15.03.06.05.13.07.21.02.08.03.17.03.25-.11.05-.24.09-.38.12s-.29.04-.46.04c-.24,0-.45-.04-.63-.11-.18-.07-.32-.18-.43-.32-.11-.14-.2-.3-.25-.49-.05-.19-.08-.4-.08-.62s.03-.43.08-.62.13-.36.23-.5c.11-.14.24-.25.4-.34.16-.08.35-.13.56-.13.19,0,.35.04.49.11s.26.17.35.29c.1.12.17.27.22.44s.07.35.07.55v.32s-1.85,0-1.85,0ZM57.8,58.17c0-.11,0-.21-.04-.31-.03-.1-.07-.19-.12-.26-.05-.07-.12-.13-.19-.18-.08-.04-.17-.07-.28-.07-.21,0-.38.07-.49.22-.11.14-.18.34-.21.6h1.33Z"/>
    <path class="st1" d="M60.18,55.76c.05,0,.11,0,.19-.02.07,0,.15,0,.22-.02.08,0,.16,0,.24-.02h.23c.19,0,.38.02.55.06s.33.12.46.22c.13.1.24.24.31.42.08.17.12.39.12.65s-.04.5-.12.68-.19.33-.32.43c-.14.11-.29.19-.46.23-.17.04-.35.07-.53.07h-.18c-.05,0-.11,0-.16-.02v1.52c-.08,0-.17.02-.27.02h-.26v-4.2h-.02v-.02ZM60.72,57.92c.06,0,.1,0,.15.02h.18c.11,0,.22,0,.32-.04.11-.03.2-.07.29-.14s.15-.16.2-.27.08-.26.08-.45c0-.16-.02-.29-.07-.4s-.11-.2-.18-.26c-.08-.07-.17-.11-.28-.14s-.23-.04-.35-.04-.24,0-.34.02v1.7h0Z"/>
    <path class="st1" d="M64.05,60.02c-.21,0-.39-.04-.55-.12-.16-.08-.29-.19-.39-.33-.1-.14-.18-.31-.23-.5s-.08-.4-.08-.62.03-.43.08-.62.13-.36.23-.49c.11-.14.24-.25.39-.33.16-.08.34-.12.55-.12s.39.04.55.12c.16.08.29.19.39.33.1.14.18.3.23.49.05.19.08.4.08.62s-.03.43-.08.62-.13.36-.23.5c-.1.14-.24.25-.39.33-.16.08-.34.12-.55.12M64.05,59.56c.24,0,.42-.1.53-.29.12-.19.17-.46.17-.81s-.06-.62-.17-.81c-.11-.19-.29-.29-.53-.29s-.42.1-.53.29c-.11.19-.17.46-.17.81s.06.62.17.81c.11.19.29.29.53.29"/>
    <path class="st1" d="M65.93,55.68s.08,0,.13-.02h.26c.05,0,.09,0,.13.02v3.37c0,.11,0,.19.03.26.02.06.04.11.07.14.03.03.06.05.1.06h.24s.08,0,.1-.02c.03.14.05.28.05.44-.05.02-.11.03-.18.04h-.19c-.1,0-.2,0-.28-.04-.09-.03-.16-.07-.23-.13-.07-.06-.12-.15-.16-.25-.04-.1-.06-.23-.06-.39v-3.5h0v.02Z"/>
    <path class="st1" d="M67.61,57.42h-.34s0-.07-.02-.11v-.24s0-.08.02-.11h.85v2.99s-.08,0-.13.02h-.25c-.05,0-.09,0-.13-.02v-2.53ZM67.49,56.3v-.6c.05,0,.09,0,.15-.02h.28c.05,0,.1,0,.14.02v.6s-.09,0-.14.02h-.27c-.05,0-.1,0-.15-.02"/>
    <path class="st1" d="M69.01,57.42h-.41l-.02-.08.9-1.12h.04v.74h.68c0,.07.02.14.02.22v.12s0,.08-.02.12h-.68v1.36c0,.16,0,.29.02.39,0,.1.03.17.06.22.03.05.07.09.12.1.05.02.11.03.19.03h.17c.05,0,.1-.02.14-.03.02.08.04.16.04.24v.22c-.07.02-.14.03-.22.04-.08,0-.16.02-.25.02-.25,0-.45-.07-.59-.2-.14-.14-.21-.36-.21-.68v-1.7h.02Z"/>
    <path class="st1" d="M70.9,57.42h-.34s0-.07-.02-.11v-.24s0-.08.02-.11h.85v2.99s-.08,0-.13.02h-.25c-.05,0-.09,0-.13-.02v-2.53ZM70.79,56.3v-.6c.05,0,.09,0,.15-.02h.28c.05,0,.1,0,.14.02v.6s-.09,0-.14.02h-.27c-.05,0-.1,0-.15-.02"/>
    <path class="st1" d="M74,59.43s.05.12.07.2c.02.08.03.16.04.25-.21.09-.44.13-.71.13-.45,0-.79-.14-1.01-.42s-.34-.66-.34-1.14c0-.22.03-.43.08-.62.06-.19.14-.36.25-.49.11-.14.25-.25.41-.33.17-.08.36-.12.57-.12.15,0,.28,0,.39.03.11.02.22.05.32.09,0,.07,0,.14-.02.23s-.04.16-.07.23c-.17-.07-.37-.1-.59-.1-.27,0-.47.1-.6.3s-.2.46-.2.79c0,.37.07.65.23.82.15.17.36.26.62.26.11,0,.2,0,.29-.02s.18-.04.27-.08"/>
    <path class="st1" d="M74.66,55.68s.08,0,.13-.02h.26s.09,0,.13.02v1.74s.07-.11.12-.18c.05-.06.11-.12.17-.17.07-.05.15-.1.24-.13.09-.03.19-.05.3-.05.31,0,.54.1.69.3s.22.49.22.87v1.89s-.08,0-.13.02h-.26s-.09,0-.13-.02v-1.74c0-.28-.04-.48-.12-.61s-.21-.2-.38-.2c-.09,0-.19.02-.27.05-.09.04-.16.1-.23.18s-.12.18-.16.31-.06.28-.06.47v1.53s-.08,0-.13.02h-.26s-.09,0-.13-.02v-4.27h0Z"/>
    <path class="st1" d="M78.04,58.6c0,.33.08.57.23.72.14.15.36.23.64.23.25,0,.48-.05.71-.15.03.06.05.13.07.21.02.08.03.17.03.25-.11.05-.24.09-.38.12s-.29.04-.46.04c-.24,0-.45-.04-.63-.11s-.32-.18-.43-.32-.2-.3-.25-.49c-.05-.19-.08-.4-.08-.62s.03-.43.08-.62.13-.36.23-.5c.11-.14.24-.25.4-.34.16-.08.35-.13.56-.13.19,0,.35.04.49.11.14.07.26.17.35.29.1.12.17.27.22.44s.07.35.07.55v.32h-1.85ZM79.37,58.17c0-.11-.01-.21-.04-.31-.03-.1-.07-.19-.12-.26s-.12-.13-.19-.18c-.08-.04-.17-.07-.28-.07-.21,0-.38.07-.49.22-.11.14-.18.34-.21.6h1.33Z"/>
    <path class="st1" d="M83.94,57.78s.09,0,.13-.02h.28s.09,0,.13.02v2.05c-.07.04-.15.07-.24.09-.09.03-.18.04-.27.06-.1,0-.19.02-.28.03h-.27c-.28,0-.53-.05-.76-.15-.23-.1-.41-.24-.57-.42-.15-.18-.27-.41-.35-.67-.08-.26-.12-.56-.12-.9s.04-.64.13-.9c.08-.27.2-.5.36-.69.16-.19.34-.34.56-.44.21-.1.45-.16.72-.16.2,0,.37,0,.52.04.15.03.28.07.4.12,0,.09-.02.17-.04.25-.02.08-.05.16-.08.24-.1-.04-.2-.07-.32-.09-.11-.03-.26-.04-.43-.04-.19,0-.35.04-.51.11-.15.07-.28.18-.39.32-.11.14-.19.32-.25.52-.06.21-.09.45-.09.71s.03.51.09.71.15.37.26.5c.11.13.24.23.4.3.15.06.32.1.51.1.11,0,.21,0,.29-.02.08,0,.16-.03.21-.05v-1.64l-.02.02Z"/>
    <path class="st1" d="M85.45,57.42h-.34s-.01-.07-.02-.11v-.24s0-.08.02-.11h.85v2.99s-.08,0-.13.02h-.25s-.09,0-.13-.02v-2.53ZM85.34,56.3s-.01-.1-.01-.15v-.3s0-.1.01-.15c.05,0,.09,0,.15-.02h.28s.1,0,.14.02c0,.04,0,.09.01.15v.3s0,.1-.01.15c-.04,0-.09,0-.14.02h-.27s-.1,0-.15-.02"/>
    <path class="st1" d="M87.85,60.02c-.21,0-.39-.04-.55-.12-.16-.08-.29-.19-.39-.33-.1-.14-.18-.31-.23-.5s-.08-.4-.08-.62.03-.43.08-.62.13-.36.23-.49c.11-.14.24-.25.39-.33.16-.08.34-.12.55-.12s.39.04.55.12c.16.08.29.19.39.33.1.14.18.3.23.49.05.19.08.4.08.62s-.03.43-.08.62-.13.36-.23.5-.24.25-.39.33c-.16.08-.34.12-.55.12M87.85,59.56c.24,0,.42-.1.53-.29.12-.19.17-.46.17-.81s-.06-.62-.17-.81c-.11-.19-.29-.29-.53-.29s-.42.1-.53.29c-.11.19-.17.46-.17.81s.06.62.17.81c.11.19.29.29.53.29"/>
    <path class="st1" d="M89.3,56.96s.1,0,.15-.02h.29s.1,0,.14.02l.73,2.47.74-2.47s.08,0,.13-.02h.27s.1,0,.15.02l-1.05,2.99s-.09,0-.14.02h-.25s-.09,0-.13-.02l-1.04-2.99h.01Z"/>
    <path class="st1" d="M93.79,57.98c0-.23-.05-.39-.16-.48-.11-.09-.26-.13-.46-.13-.12,0-.24,0-.34.03-.11.02-.21.05-.31.08-.07-.13-.1-.28-.1-.46.12-.04.25-.08.39-.1.14-.02.28-.04.41-.04.35,0,.62.09.8.27s.27.46.27.85v1.87c-.12.03-.27.06-.45.1-.18.03-.35.05-.54.05-.17,0-.33-.02-.46-.05-.14-.03-.26-.09-.35-.17-.1-.08-.17-.18-.22-.3s-.08-.27-.08-.44.03-.31.09-.44c.06-.13.15-.23.25-.32.1-.08.23-.15.36-.19.14-.04.28-.06.43-.06h.28c.07,0,.13,0,.18.02v-.11.02h.01ZM93.79,58.55s-.12-.02-.2-.02h-.2c-.22,0-.38.04-.5.13-.11.09-.17.23-.17.41,0,.12.02.21.06.27.04.07.09.12.15.15.06.04.12.06.19.06h.45c.08,0,.16-.02.23-.04v-.95h0Z"/>
    <path class="st1" d="M95.03,56.96s.08,0,.11-.02h.22s.07,0,.11.02c0,.06.02.14.03.24,0,.1.02.18.02.25.03-.07.08-.13.13-.2.05-.07.12-.13.18-.18.07-.05.15-.09.24-.13.09-.03.19-.05.3-.05.31,0,.54.1.68.29.15.2.22.49.22.87v1.89s-.08,0-.13.02h-.26s-.09,0-.13-.02v-1.74c0-.27-.04-.48-.12-.61s-.2-.2-.37-.2c-.1,0-.19.02-.28.06s-.17.1-.23.18c-.07.08-.12.19-.16.32s-.06.29-.06.47v1.51s-.08,0-.13.02h-.26s-.09,0-.13-.02v-2.99l.02.02h0Z"/>
    <path class="st1" d="M98.18,57.42h-.34s-.01-.07-.02-.11v-.24s0-.08.02-.11h.85v2.99s-.08,0-.13.02h-.25s-.09,0-.13-.02v-2.53ZM98.06,56.3s-.01-.1-.01-.15v-.3s0-.1.01-.15c.05,0,.09,0,.15-.02h.28s.1,0,.14.02c0,.04,0,.09.01.15v.3s0,.1-.01.15c-.04,0-.09,0-.14.02h-.27s-.1,0-.15-.02"/>
    <path class="st1" d="M99.47,55.68s.08,0,.13-.02h.26s.09,0,.13.02v3.37c0,.11,0,.19.03.26.02.06.04.11.07.14s.06.05.1.06h.24s.08,0,.1-.02c.03.14.05.28.05.44-.05.02-.11.03-.18.04h-.19c-.1,0-.2,0-.28-.04-.09-.03-.16-.07-.23-.13s-.12-.15-.16-.25-.06-.23-.06-.39v-3.5h-.01v.02Z"/>
    <path class="st1" d="M101.15,57.42h-.34s-.01-.07-.02-.11v-.24s0-.08.02-.11h.85v2.99s-.08,0-.13.02h-.25s-.09,0-.13-.02v-2.53ZM101.04,56.3s-.01-.1-.01-.15v-.3s0-.1.01-.15c.05,0,.09,0,.15-.02h.28s.1,0,.14.02c0,.04,0,.09.01.15v.3s0,.1-.01.15c-.04,0-.09,0-.14.02h-.27s-.1,0-.15-.02"/>
    <path class="st1" d="M50.57,28.41c.23-.03.45-.05.66-.07.2-.02.43-.03.68-.03.29,0,.58.03.86.08s.54.15.77.28c.23.14.41.32.55.55s.21.52.21.88c0,.21-.03.4-.08.56s-.12.3-.2.43c-.08.12-.17.23-.27.32s-.19.16-.27.21l-.14.09,1.39,2.42c-.11,0-.22.02-.33.03-.12,0-.24.02-.36.02-.2,0-.4-.02-.6-.05l-1.5-2.66.19-.1c.07-.04.16-.08.27-.14s.21-.13.31-.22c.1-.09.18-.19.25-.32s.1-.27.1-.44c0-.33-.1-.58-.29-.74-.19-.16-.44-.23-.74-.23-.12,0-.22,0-.32.02v4.83c-.09,0-.19.02-.29.03h-.57c-.1,0-.2-.02-.31-.03v-5.72h.03,0Z"/>
    <path class="st1" d="M55.22,28.41h3.25c.03.16.05.32.05.49,0,.18-.02.34-.05.5h-2.09v1.24h1.66c.03.17.05.33.05.49,0,.17-.02.34-.05.5h-1.66v1.51h2.14c.03.16.05.32.05.49,0,.18-.02.34-.05.5h-3.3v-5.72Z"/>
    <path class="st1" d="M62.43,31.16c.2-.03.39-.05.57-.05s.38.02.58.05v2.81c-.28.1-.57.17-.86.2-.3.03-.56.05-.78.05-.47,0-.87-.07-1.22-.22s-.64-.35-.87-.61c-.23-.26-.41-.57-.53-.93s-.18-.75-.18-1.18.06-.82.18-1.18.3-.68.53-.94c.23-.27.52-.47.85-.62s.72-.22,1.15-.22c.25,0,.49.02.71.05.22.03.45.1.69.2,0,.16-.04.31-.09.47-.05.15-.11.3-.18.46-.19-.06-.35-.11-.49-.13-.14-.03-.31-.04-.51-.04-.51,0-.9.17-1.18.5-.27.33-.41.82-.41,1.48s.14,1.14.41,1.46.67.48,1.19.48c.09,0,.17,0,.24-.02.07,0,.14-.02.2-.03v-2.04h0Z"/>
    <path class="st1" d="M64.45,28.41c.2-.03.39-.05.58-.05s.39.02.59.05v5.72c-.2.03-.4.05-.58.05-.2,0-.39-.02-.59-.05v-5.72Z"/>
    <path class="st1" d="M68.9,34.22c-.43,0-.8-.07-1.11-.22s-.57-.35-.77-.62c-.2-.26-.35-.57-.45-.93s-.15-.75-.15-1.17.05-.82.15-1.18c.1-.36.25-.68.45-.94.2-.27.46-.47.77-.62s.68-.22,1.11-.22.8.07,1.11.22.57.36.77.62c.2.27.35.58.45.94.1.36.15.76.15,1.18s-.05.82-.15,1.17-.25.67-.45.93c-.2.26-.46.47-.77.62-.31.15-.68.22-1.11.22M68.9,33.25c.82,0,1.23-.66,1.23-1.97,0-.66-.1-1.15-.3-1.48s-.51-.49-.93-.49c-.83,0-1.25.66-1.25,1.97s.41,1.97,1.24,1.97"/>
    <path class="st1" d="M72.19,28.41c.16-.03.32-.05.47-.05.16,0,.32.02.49.05l2.21,3.65v-3.65c.19-.03.37-.05.55-.05.17,0,.32.02.48.05v5.72c-.17.03-.32.05-.46.05-.15,0-.31-.02-.49-.05l-2.23-3.64v3.64c-.17.03-.34.05-.52.05s-.34-.02-.51-.05v-5.72h.01Z"/>
    <path class="st1" d="M77.35,28.41h3.25c.03.16.05.32.05.49,0,.18-.02.34-.05.5h-2.09v1.24h1.66c.03.17.05.33.05.49,0,.17-.02.34-.05.5h-1.66v1.51h2.14c.03.16.05.32.05.49,0,.18-.02.34-.05.5h-3.3v-5.72h0Z"/>
    <path class="st1" d="M50.52,36.25c.24-.02.49-.04.74-.05s.5-.02.76-.02.54.03.81.08c.27.05.52.15.74.3.22.15.4.35.54.61.14.26.21.6.21,1.01s-.07.75-.21,1.01-.31.46-.53.61-.46.25-.73.3c-.27.05-.53.08-.79.08h-.37v1.84c-.1.02-.2.03-.29.03h-.56c-.1,0-.2-.02-.31-.03v-5.75h0v-.02ZM51.68,39.2c.06,0,.12.02.18.02h.2c.13,0,.26-.02.39-.05s.24-.09.34-.17c.1-.08.18-.18.23-.31.06-.13.09-.29.09-.48s-.03-.36-.09-.5-.14-.24-.23-.33c-.1-.08-.21-.14-.34-.18-.13-.03-.26-.05-.39-.05h-.16c-.05,0-.12,0-.22.02v2.03h0Z"/>
    <path class="st1" d="M54.97,36.28c.1-.02.2-.03.29-.03h.57c.1,0,.19.02.29.03v2.97c0,.32,0,.6.04.83.02.23.07.42.14.57.07.15.17.26.3.33.13.07.3.11.51.11s.38-.04.5-.11c.13-.07.23-.18.3-.33s.12-.34.14-.57.04-.51.04-.83v-2.97c.11-.02.21-.03.3-.03h.57c.1,0,.2.02.3.03v3.22c0,.39-.03.74-.1,1.06-.06.32-.18.6-.34.82-.16.23-.38.41-.66.53s-.63.19-1.05.19-.77-.06-1.05-.19c-.28-.12-.5-.3-.66-.53-.17-.23-.28-.5-.34-.82s-.09-.68-.09-1.06v-3.22h0Z"/>
    <path class="st1" d="M63.32,39.03c.2-.03.39-.05.57-.05s.38.02.58.05v2.81c-.28.1-.57.17-.86.2-.3.03-.56.05-.78.05-.47,0-.87-.07-1.22-.22s-.64-.35-.87-.61c-.23-.26-.41-.57-.53-.93s-.18-.75-.18-1.18.06-.82.18-1.18.3-.68.53-.94c.23-.27.52-.47.85-.62s.72-.22,1.15-.22c.25,0,.49.02.71.05s.45.1.69.2c0,.16-.04.31-.09.47-.05.15-.11.3-.18.46-.19-.06-.35-.11-.49-.13-.14-.03-.31-.04-.51-.04-.51,0-.9.17-1.18.5-.27.33-.41.82-.41,1.48s.14,1.14.41,1.46.67.48,1.19.48c.09,0,.17,0,.24-.02.07,0,.14-.02.2-.03v-2.04h0Z"/>
    <path class="st1" d="M65.34,36.28c.2-.03.39-.05.57-.05s.38.02.58.05v4.72h1.98c.02.09.03.18.03.26v.48c0,.08-.02.17-.03.26h-3.13s0-5.72,0-5.72Z"/>
    <path class="st1" d="M69.1,36.28c.2-.03.39-.05.58-.05s.39.02.59.05v5.72c-.2.03-.4.05-.58.05-.2,0-.39-.02-.59-.05v-5.72Z"/>
    <path class="st1" d="M72.55,36.28c.11,0,.22-.03.32-.04h.64c.1,0,.21.02.34.04l1.79,5.72c-.22.03-.43.05-.64.05s-.4-.02-.59-.05l-.32-1.15h-1.89l-.33,1.15c-.19.03-.37.05-.55.05-.2,0-.39-.02-.58-.05l1.81-5.72h0ZM73.83,39.89l-.66-2.4-.69,2.4h1.35Z"/>
  </g>
  <g>
    <g>
      <path class="st1" d="M110.66,60.19v-10.09h3.92c1.16,0,2.1.32,2.82.96.72.65,1.07,1.52,1.07,2.62,0,1.03-.41,1.91-1.23,2.6-.83.7-1.95,1.04-3.41,1.04h-.74v2.86h-2.44,0ZM113.1,52v3.46h.83c.71,0,1.23-.16,1.57-.47.33-.32.49-.73.49-1.25,0-1.16-.57-1.74-1.71-1.74,0,0-1.18,0-1.18,0ZM124.65,60.37c-.62,0-1.2-.08-1.73-.22-.53-.15-1.02-.38-1.48-.69s-.82-.76-1.08-1.34c-.27-.58-.4-1.26-.4-2.04v-5.98h2.46v5.89c0,1.59.75,2.4,2.24,2.4s2.24-.9,2.24-2.69v-5.59h2.38v5.64c0,.84-.13,1.58-.4,2.2-.27.63-.63,1.1-1.07,1.45-.46.34-.94.59-1.46.75s-1.08.24-1.68.24h0s-.02-.02-.02-.02ZM136.2,60.33c-1.73,0-3.08-.43-4.06-1.28s-1.47-2.13-1.47-3.83c0-1.79.47-3.12,1.42-3.98.95-.85,2.36-1.28,4.22-1.28,1.02,0,2.02.21,3.03.62l-.65,1.76c-.43-.1-.71-.18-.86-.22s-.36-.08-.65-.1c-.28-.04-.59-.05-.91-.05-.96,0-1.73.26-2.29.76-.57.5-.84,1.29-.84,2.35s.31,1.87.93,2.42c.62.55,1.41.82,2.4.82h.65v-3.09h2.43v4.55c-1.01.39-2.12.59-3.32.59h0l-.03-.03h0ZM141.82,60.19v-10.09h2.43v8.17h4.2v1.91h-6.63ZM149.88,60.19v-10.09h2.43v10.09h-2.43ZM153.58,60.19l3.88-10.09h3.12l3.4,10.09h-2.51l-.96-2.95h-3.41l-1.1,2.95h-2.43.01ZM157.74,55.48h2.19l-1.02-3.88-1.19,3.88h.02Z"/>
      <path class="st1" d="M193.86,49.03s-.58-.61-.58-1.35.58-1.35.58-1.35c0,0,.58.61.58,1.35s-.58,1.35-.58,1.35ZM189.47,48.04s-.33.77-.08,1.47c.26.7,1.01,1.07,1.01,1.07,0,0,.33-.77.08-1.47-.26-.7-1.01-1.07-1.01-1.07h0ZM187.12,52.13c-.37-.65-1.18-.88-1.18-.88,0,0-.2.82.18,1.46.37.65,1.18.88,1.18.88,0,0,.2-.82-.18-1.46ZM194.44,52.97c0-.3-.09-.58-.21-.81-.16-.33-.37-.55-.37-.55,0,0-.1.1-.22.28-.16.25-.36.64-.36,1.07,0,.75.58,1.35.58,1.35,0,0,.58-.61.58-1.35h0ZM189.25,54.7s.02.84.55,1.37,1.37.55,1.37.55c0,0-.02-.84-.55-1.37s-1.37-.55-1.37-.55ZM198.32,49.52c.26-.7-.08-1.47-.08-1.47,0,0-.75.37-1.01,1.07s.08,1.47.08,1.47c0,0,.75-.37,1.01-1.07ZM201.59,52.71c.37-.65.18-1.46.18-1.46,0,0-.81.24-1.18.88-.37.65-.18,1.46-.18,1.46,0,0,.81-.24,1.18-.88ZM196.55,56.6s.84-.02,1.37-.55.55-1.37.55-1.37c0,0-.84.02-1.37.55s-.55,1.37-.55,1.37ZM203.94,51.3v7.69c0,.22-.09.42-.24.57l-5.44,5.44c-.15.15-.36.24-.57.24h-7.69c-.22,0-.42-.09-.57-.24l-5.44-5.44c-.15-.15-.24-.36-.24-.57v-7.69c0-.22.09-.42.24-.57l5.44-5.44c.15-.15.36-.24.57-.24h7.69c.22,0,.42.09.57.24l5.44,5.44c.15.15.24.36.24.57h0ZM187.59,48.76c.28,1.06.88,1.95,1.67,2.72-.31.21-.62.44-.91.68-.7-.72-1.29-1.55-1.66-2.51l-1.77,1.77c.08,1.45.9,2.5,1.94,3.47,1.16-2.22,3.23-3.29,5.1-4.26.06-.03.11-.06.17-.09.36.28.73.51,1.11.74-.25.13-.49.26-.74.39-1.94,1.01-3.8,1.96-4.73,4.03.04.03.09.07.12.1.92.79,1.85,1.59,2.45,2.58.46-.95,1.19-1.74,2.05-2.46.34.23.66.45.98.67-1.39,1.1-2.39,2.32-2.39,4.01v3.46h5.78v-3.46c0-2.53-2.28-4.03-4.69-5.63-.62-.41-1.25-.83-1.87-1.27.32-.24.66-.46,1.02-.66.47.33.97.66,1.47.99,1.88,1.23,3.81,2.51,4.69,4.35.6-1,1.53-1.79,2.45-2.58.05-.04.09-.08.12-.11-.37-.8-.87-1.43-1.46-1.96.3-.25.61-.5.89-.77.57.53,1.08,1.16,1.48,1.93,1.03-.97,1.85-2.01,1.93-3.46l-1.77-1.77c-.93,2.43-3.25,3.97-5.37,5.35-.09.07-.19.12-.28.19-.31-.25-.65-.48-.98-.72.21-.14.42-.28.63-.42,2.29-1.51,4.46-2.94,5.1-5.3l-2.51-2.51c-.28,1.63-1.06,2.73-2.09,3.59-.4-.21-.77-.41-1.12-.62,1-.73,1.74-1.63,2.01-3.02h-5.11c.47,2.37,2.34,3.34,4.46,4.44.56.29,1.14.59,1.71.93-.31.27-.65.53-1.01.78-.41-.23-.83-.45-1.24-.66-2.27-1.18-4.6-2.39-5.11-5.45l-2.51,2.51h.02-.03ZM189.83,63.77v-3.14c0-1.64-1.24-2.71-2.69-3.95-.77-.66-1.59-1.38-2.24-2.22v4.39l4.92,4.92h0ZM202.81,58.85v-4.39c-.64.85-1.46,1.56-2.24,2.22-1.44,1.23-2.69,2.31-2.69,3.95v3.14l4.92-4.92h0Z"/>
    </g>
    <g>
      <path class="st1" d="M109.97,25.71l1.74-4.47h1.4l1.52,4.47h-1.13l-.43-1.31h-1.53l-.49,1.31h-1.09.01ZM111.84,23.62h.99l-.46-1.72-.53,1.72Z"/>
      <path class="st1" d="M119.47,25.78c-.4-.02-.74-.11-1.01-.29s-.55-.43-.84-.75l-.51-.59h-.58v1.54h-1.09v-4.47h1.76c.53,0,.96.12,1.27.37s.47.61.47,1.09c0,.53-.25.93-.73,1.21l.46.49c.26.27.59.46,1.02.57l-.25.83h.03ZM116.54,23.41h.37c.62,0,.92-.23.92-.69,0-.23-.06-.39-.17-.49-.11-.09-.31-.15-.6-.15h-.52v1.33h0Z"/>
      <path class="st1" d="M121.23,25.71v-3.62h-1.42v-.84h3.93v.84h-1.42v3.62h-1.09,0Z"/>
      <path class="st1" d="M124.54,25.71v-4.47h1.09v4.47h-1.09Z"/>
      <path class="st1" d="M109.95,33.11l1.23-3.09h.64l1.11,3.09h-.5l-.38-1.08h-1.19l-.43,1.08h-.48ZM110.99,31.67h.92l-.44-1.33-.49,1.33h0Z"/>
      <path class="st1" d="M114.41,34.1c-.29,0-.58-.04-.84-.1l.08-.38c.28.06.5.09.68.09.23,0,.4-.04.51-.1.11-.08.17-.22.17-.45v-.19c-.14.11-.31.18-.51.18-.11,0-.23,0-.32-.02-.09,0-.2-.05-.29-.09-.1-.05-.19-.11-.26-.21-.07-.09-.12-.21-.17-.35-.05-.15-.07-.33-.07-.54,0-.41.11-.72.34-.94s.51-.33.86-.33c.24,0,.53.03.87.09v2.46c0,.29-.09.51-.29.65s-.45.22-.75.22h0ZM114.52,32.78c.14,0,.3-.06.47-.16v-1.53c-.16-.03-.3-.05-.42-.05-.26,0-.45.09-.56.25-.12.16-.18.38-.18.65,0,.3.06.51.17.65s.28.2.52.2h0Z"/>
      <path class="st1" d="M117.43,33.16c-.39,0-.68-.09-.88-.28s-.3-.49-.3-.93c0-.86.38-1.29,1.13-1.29.62,0,.92.4.92,1.21v.16h-1.58c0,.16.03.28.07.39s.1.18.18.23c.09.05.17.09.26.1s.2.03.33.03c.14,0,.35-.03.63-.09l.08.36c-.23.08-.49.11-.81.11h-.03ZM116.71,31.71h1.1c0-.22-.04-.39-.12-.52s-.21-.19-.37-.19-.3.07-.42.18-.17.29-.19.53h0Z"/>
      <path class="st1" d="M119.05,33.11v-2.39h.46v.27c.31-.22.59-.32.83-.32.14,0,.26.02.36.06s.17.09.23.13c.06.06.09.12.12.22s.05.17.06.25v1.8h-.46v-1.46c0-.21-.03-.36-.09-.46s-.18-.13-.36-.13c-.17,0-.41.09-.69.25v1.8h-.46v-.02Z"/>
      <path class="st1" d="M121.81,33.11v-.35l1.34-1.65h-1.24v-.39h1.77v.33l-1.35,1.67h1.37v.38h-1.9.01Z"/>
      <path class="st1" d="M124.67,30.33l-.34-.35.34-.34.35.34-.35.35ZM124.44,33.11v-2.39h.46v2.39h-.46Z"/>
      <path class="st1" d="M126.37,33.14c-.24,0-.42-.06-.54-.17s-.19-.28-.19-.51c0-.14.03-.26.09-.36.06-.09.14-.17.24-.23s.2-.09.3-.1c.1-.02.21-.03.33-.03h.53v-.28c0-.16-.05-.27-.13-.32-.09-.06-.23-.09-.44-.09-.13,0-.34.04-.64.11l-.09-.34c.25-.1.52-.16.84-.16s.53.06.68.16.23.28.23.51v1.25c0,.11.08.18.22.19l-.02.35h-.09c-.12,0-.24-.03-.34-.08s-.16-.12-.18-.22c0,0-.02.02-.06.04-.03.03-.06.04-.07.05-.02,0-.04.03-.08.05-.04.02-.07.04-.09.05-.03,0-.06.03-.1.05s-.09.03-.12.04c-.04,0-.09,0-.13.02s-.09,0-.15,0h.02l-.02.02h0ZM126.48,32.78c.06,0,.12,0,.2-.03s.13-.04.18-.06.1-.05.17-.08.09-.05.1-.05v-.55l-.52.02c-.16,0-.29.04-.39.1s-.13.16-.13.27c0,.25.13.36.39.36h0v.02h0Z"/>
      <path class="st1" d="M132.4,33.16c-.36,0-.67-.2-.94-.54l-.51-.7c-.07,0-.15.02-.26.02h-.37v1.18h-.47v-3.09h1.07c.33,0,.59.08.78.24s.29.39.29.7c0,.4-.19.68-.57.84l.45.59c.15.21.37.34.65.41l-.1.36h-.02ZM130.32,31.56h.4c.52,0,.78-.2.78-.59,0-.21-.06-.35-.16-.45-.1-.09-.28-.13-.51-.13h-.5v1.18h0Z"/>
      <path class="st1" d="M134.15,33.16c-.39,0-.68-.09-.88-.28s-.3-.49-.3-.93c0-.86.38-1.29,1.13-1.29.62,0,.92.4.92,1.21v.16h-1.58c0,.16.03.28.07.39s.1.18.18.23c.09.05.17.09.26.1s.2.03.33.03c.14,0,.35-.03.63-.09l.08.36c-.23.08-.49.11-.81.11h-.03ZM133.43,31.71h1.1c0-.22-.04-.39-.12-.52s-.21-.19-.37-.19-.3.07-.42.18-.17.29-.19.53h0Z"/>
      <path class="st1" d="M136.65,34.1c-.29,0-.58-.04-.84-.1l.08-.38c.28.06.5.09.68.09.23,0,.4-.04.51-.1.11-.08.17-.22.17-.45v-.19c-.14.11-.31.18-.51.18-.11,0-.23,0-.32-.02-.09,0-.2-.05-.29-.09-.1-.05-.19-.11-.26-.21-.07-.09-.12-.21-.17-.35-.05-.15-.07-.33-.07-.54,0-.41.11-.72.34-.94s.51-.33.86-.33c.24,0,.53.03.87.09v2.46c0,.29-.09.51-.29.65s-.45.22-.75.22h0ZM136.76,32.78c.14,0,.3-.06.47-.16v-1.53c-.16-.03-.3-.05-.42-.05-.26,0-.45.09-.56.25-.12.16-.18.38-.18.65,0,.3.06.51.17.65s.28.2.52.2h0Z"/>
      <path class="st1" d="M138.87,30.33l-.34-.35.34-.34.35.34-.35.35ZM138.64,33.11v-2.39h.46v2.39h-.46Z"/>
      <path class="st1" d="M141,33.16c-.35,0-.63-.1-.83-.32s-.29-.51-.29-.9.1-.71.32-.94c.21-.23.49-.34.84-.34.37,0,.65.1.84.32s.28.53.28.93-.1.71-.32.93-.49.32-.84.32h0ZM141.03,32.79c.44,0,.65-.29.65-.87,0-.11,0-.23-.03-.32s-.06-.19-.09-.28c-.05-.09-.11-.16-.21-.21s-.2-.08-.33-.08c-.25,0-.42.09-.52.26s-.15.38-.15.64c0,.58.23.87.68.87h0Z"/>
      <path class="st1" d="M142.94,33.11v-2.39h.46v.27c.31-.22.59-.32.83-.32.14,0,.26.02.36.06s.17.09.23.13c.06.06.09.12.12.22s.05.17.06.25v1.8h-.46v-1.46c0-.21-.03-.36-.09-.46s-.18-.13-.36-.13c-.17,0-.41.09-.69.25v1.8h-.46v-.02Z"/>
      <path class="st1" d="M146.44,33.14c-.24,0-.42-.06-.54-.17s-.19-.28-.19-.51c0-.14.03-.26.09-.36.06-.09.14-.17.24-.23s.2-.09.3-.1c.1-.02.21-.03.33-.03h.53v-.28c0-.16-.05-.27-.13-.32-.09-.06-.23-.09-.44-.09-.13,0-.34.04-.64.11l-.09-.34c.25-.1.52-.16.84-.16s.53.06.68.16.23.28.23.51v1.25c0,.11.08.18.22.19l-.02.35h-.09c-.12,0-.24-.03-.34-.08s-.16-.12-.18-.22c0,0-.02.02-.06.04-.03.03-.06.04-.07.05-.02,0-.04.03-.08.05-.04.02-.07.04-.09.05-.03,0-.06.03-.1.05s-.09.03-.12.04c-.04,0-.09,0-.13.02s-.09,0-.15,0h.02l-.02.02h0ZM146.56,32.78c.06,0,.12,0,.2-.03s.13-.04.18-.06.1-.05.17-.08.09-.05.1-.05v-.55l-.52.02c-.16,0-.29.04-.39.1s-.13.16-.13.27c0,.25.13.36.39.36h0v.02h0Z"/>
      <path class="st1" d="M148.69,33.11v-3.29h.46v3.29h-.46Z"/>
      <path class="st1" d="M151.01,33.16c-.39,0-.68-.09-.88-.28s-.3-.49-.3-.93c0-.86.38-1.29,1.13-1.29.62,0,.92.4.92,1.21v.16h-1.58c0,.16.03.28.07.39s.1.18.18.23c.09.05.17.09.26.1s.2.03.33.03c.14,0,.35-.03.63-.09l.08.36c-.23.08-.49.11-.81.11h-.03ZM150.28,31.71h1.1c0-.22-.04-.39-.12-.52s-.21-.19-.37-.19-.3.07-.42.18-.17.29-.19.53h0Z"/>
      <path class="st1" d="M153.78,34.07v-3.35h.46v.19c.22-.16.44-.25.65-.25.32,0,.57.09.74.29s.27.48.27.87c0,.24-.03.45-.09.63s-.16.31-.28.42c-.11.09-.25.17-.39.22s-.29.07-.46.07c-.09,0-.24,0-.44-.04v.95h-.46,0ZM154.69,32.79c.24,0,.42-.09.54-.25s.19-.38.19-.64-.05-.47-.14-.63-.27-.23-.51-.23c-.13,0-.3.06-.52.18v1.51c.22.03.37.05.45.05h-.01Z"/>
      <path class="st1" d="M157.71,33.16c-.39,0-.68-.09-.88-.28s-.3-.49-.3-.93c0-.86.38-1.29,1.13-1.29.62,0,.92.4.92,1.21v.16h-1.58c0,.16.03.28.07.39s.1.18.18.23c.09.05.17.09.26.1s.2.03.33.03c.14,0,.35-.03.63-.09l.08.36c-.23.08-.49.11-.81.11h-.03ZM156.98,31.71h1.1c0-.22-.04-.39-.12-.52s-.21-.19-.37-.19-.3.07-.42.18-.17.29-.19.53h0Z"/>
      <path class="st1" d="M159.32,33.11v-2.39h.46v.32c.07-.1.16-.19.28-.27s.25-.1.4-.1c.11,0,.21,0,.29.04l-.07.39c-.09-.02-.18-.03-.29-.03-.12,0-.24.03-.35.09-.1.07-.19.14-.26.24v1.72h-.46,0Z"/>
      <path class="st1" d="M162.45,33.11v-3.29h.46v3.29h-.46Z"/>
      <path class="st1" d="M164.26,33.14c-.24,0-.41-.06-.54-.17-.12-.11-.19-.28-.19-.51,0-.14.03-.26.09-.36.06-.09.14-.17.24-.23.09-.05.2-.09.3-.1s.21-.03.33-.03h.53v-.28c0-.16-.05-.27-.13-.32-.09-.06-.23-.09-.44-.09-.13,0-.34.04-.64.11l-.09-.34c.25-.1.52-.16.84-.16s.53.06.69.16c.15.1.23.28.23.51v1.25c0,.11.08.18.22.19l-.02.35h-.09c-.12,0-.24-.03-.34-.08-.09-.05-.16-.12-.18-.22,0,0-.02.02-.06.04-.03.03-.06.04-.07.05-.02,0-.04.03-.08.05-.04.02-.07.04-.09.05-.03,0-.06.03-.1.05s-.09.03-.12.04c-.04,0-.09,0-.13.02h-.15v.02h0ZM164.38,32.78c.06,0,.12,0,.2-.03s.13-.04.18-.06.1-.05.17-.08.09-.05.1-.05v-.55l-.52.02c-.16,0-.29.04-.39.1s-.13.16-.13.27c0,.25.13.36.39.36h0v.02h0Z"/>
      <path class="st1" d="M110.95,38.56v-2.7h-1.04v-.39h2.56v.39h-1.04v2.7h-.48,0Z"/>
      <path class="st1" d="M113.86,38.6c-.39,0-.68-.09-.88-.28s-.3-.49-.3-.93c0-.86.38-1.29,1.13-1.29.62,0,.92.4.92,1.21v.16h-1.58c0,.16.03.28.07.39s.1.18.18.23c.09.05.17.09.26.1s.2.03.33.03c.14,0,.35-.03.63-.09l.08.36c-.23.08-.49.11-.81.11h-.03ZM113.15,37.15h1.1c0-.22-.04-.39-.12-.52s-.21-.19-.37-.19-.3.07-.42.18-.17.29-.19.53h0Z"/>
      <path class="st1" d="M116.6,38.59c-.46,0-.78-.09-.98-.29s-.3-.51-.3-.95c0-.38.1-.68.32-.91s.5-.33.87-.33c.28,0,.5.05.69.14l-.13.35c-.18-.08-.37-.11-.56-.11-.22,0-.39.08-.52.22-.13.14-.2.36-.2.64,0,.31.06.53.18.66s.34.2.66.2h.17c.06,0,.11-.02.18-.03s.1-.02.12-.02l.08.36c-.22.06-.42.09-.59.09h0v-.02h.01Z"/>
      <path class="st1" d="M117.9,38.56v-2.39h.46v.27c.31-.22.59-.32.83-.32.14,0,.26.02.36.06s.17.09.23.13c.06.06.09.12.12.22s.05.17.06.25v1.8h-.46v-1.46c0-.21-.03-.36-.09-.46s-.18-.13-.36-.13c-.17,0-.41.09-.69.25v1.8h-.46v-.02Z"/>
      <path class="st1" d="M121.84,38.6c-.35,0-.63-.1-.83-.32s-.29-.51-.29-.9.1-.71.32-.94c.21-.23.49-.34.84-.34.37,0,.65.1.84.32s.28.53.28.93-.1.71-.32.93-.49.32-.84.32h0ZM121.87,38.23c.44,0,.65-.29.65-.87,0-.11,0-.23-.03-.32s-.06-.19-.09-.28c-.05-.09-.11-.16-.21-.21s-.2-.08-.33-.08c-.25,0-.42.09-.52.26s-.15.38-.15.64c0,.58.23.87.68.87h0Z"/>
      <path class="st1" d="M123.77,38.56v-3.29h.46v3.29h-.46Z"/>
      <path class="st1" d="M126.02,38.6c-.35,0-.63-.1-.83-.32s-.29-.51-.29-.9.1-.71.32-.94c.21-.23.49-.34.84-.34.37,0,.65.1.84.32s.28.53.28.93-.1.71-.32.93-.49.32-.84.32h0ZM126.05,38.23c.44,0,.65-.29.65-.87,0-.11,0-.23-.03-.32s-.06-.19-.09-.28c-.05-.09-.11-.16-.21-.21s-.2-.08-.33-.08c-.25,0-.42.09-.52.26s-.15.38-.15.64c0,.58.23.87.68.87h0Z"/>
      <path class="st1" d="M128.84,39.54c-.29,0-.58-.04-.84-.1l.08-.38c.28.06.5.09.68.09.23,0,.4-.04.51-.1.11-.08.17-.22.17-.45v-.19c-.14.11-.31.18-.51.18-.11,0-.23,0-.32-.02-.09,0-.2-.05-.29-.09-.1-.05-.19-.11-.26-.21-.07-.09-.12-.21-.17-.35-.05-.15-.07-.33-.07-.54,0-.41.11-.72.34-.94s.51-.33.86-.33c.24,0,.53.03.87.09v2.46c0,.29-.09.51-.29.65s-.45.22-.75.22h0ZM128.95,38.22c.14,0,.3-.06.47-.16v-1.53c-.16-.03-.3-.05-.42-.05-.26,0-.45.09-.56.25-.12.16-.18.38-.18.65,0,.3.06.51.17.65s.28.2.52.2h0Z"/>
      <path class="st1" d="M131.06,35.78l-.34-.35.34-.34.35.34-.35.35ZM130.83,38.56v-2.39h.46v2.39h-.46Z"/>
      <path class="st1" d="M132.77,38.59c-.24,0-.42-.06-.54-.17s-.19-.28-.19-.51c0-.14.03-.26.09-.36.06-.09.14-.17.24-.23s.2-.09.3-.1c.1-.02.21-.03.33-.03h.53v-.28c0-.16-.05-.27-.13-.32-.09-.06-.23-.09-.44-.09-.13,0-.34.04-.64.11l-.09-.34c.25-.1.52-.16.84-.16s.53.06.68.16.23.28.23.51v1.25c0,.11.08.18.22.19l-.02.35h-.09c-.12,0-.24-.03-.34-.08s-.16-.12-.18-.22c0,0-.02.02-.06.04-.03.03-.06.04-.07.05-.02,0-.04.03-.08.05-.04.02-.07.04-.09.05-.03,0-.06.03-.1.05s-.09.03-.12.04c-.04,0-.09,0-.13.02s-.09,0-.15,0h.02l-.02.02h0ZM132.87,38.22c.06,0,.12,0,.2-.03s.13-.04.18-.06.1-.05.17-.08.09-.05.1-.05v-.55l-.52.02c-.16,0-.29.04-.39.1s-.13.16-.13.27c0,.25.13.36.39.36h0v.02h0Z"/>
      <path class="st1" d="M135.01,39.11c.08-.2.11-.39.11-.59v-.44h.48v.21c0,.31-.07.58-.2.81h-.4.01Z"/>
      <path class="st1" d="M137.91,35.78l-.34-.35.34-.34.35.34-.35.35ZM137.69,38.56v-2.39h.46v2.39h-.46Z"/>
      <path class="st1" d="M139.09,38.56v-3.29h.46v3.29h-.46Z"/>
      <path class="st1" d="M142.18,38.56v-2.7h-1.04v-.39h2.56v.39h-1.04v2.7h-.48,0Z"/>
      <path class="st1" d="M144.06,38.56v-2.39h.46v.32c.07-.1.16-.19.28-.27s.25-.1.4-.1c.11,0,.21,0,.29.04l-.08.39c-.09-.02-.18-.03-.29-.03-.12,0-.24.03-.35.09s-.19.14-.26.24v1.72h-.46.01Z"/>
      <path class="st1" d="M146.54,38.59c-.24,0-.42-.06-.54-.17s-.19-.28-.19-.51c0-.14.03-.26.09-.36.06-.09.14-.17.24-.23s.2-.09.3-.1c.1-.02.21-.03.33-.03h.53v-.28c0-.16-.05-.27-.13-.32-.09-.06-.23-.09-.44-.09-.13,0-.34.04-.64.11l-.09-.34c.25-.1.52-.16.84-.16s.53.06.68.16.23.28.23.51v1.25c0,.11.08.18.22.19l-.02.35h-.09c-.12,0-.24-.03-.34-.08s-.16-.12-.18-.22c0,0-.02.02-.06.04-.03.03-.06.04-.07.05-.02,0-.04.03-.08.05-.04.02-.07.04-.09.05-.03,0-.06.03-.1.05s-.09.03-.12.04c-.04,0-.09,0-.13.02s-.09,0-.15,0h.02l-.02.02h0ZM146.64,38.22c.06,0,.12,0,.2-.03s.13-.04.18-.06.1-.05.17-.08.09-.05.1-.05v-.55l-.52.02c-.16,0-.29.04-.39.1s-.13.16-.13.27c0,.25.13.36.39.36h0v.02h0Z"/>
      <path class="st1" d="M149.36,38.6c-.28,0-.53-.03-.76-.1l.07-.36c.34.06.56.09.65.09.18,0,.31-.03.41-.09s.14-.13.14-.23c0-.09-.04-.15-.12-.21s-.19-.1-.3-.15-.24-.09-.36-.14-.22-.13-.3-.24-.12-.24-.12-.39c0-.22.09-.39.25-.5s.38-.18.64-.18c.21,0,.43.04.65.1l-.08.35c-.25-.06-.44-.09-.59-.09-.13,0-.24.03-.3.09s-.1.12-.1.21.04.16.12.22.18.11.3.16.24.09.36.14c.11.06.22.13.3.23s.12.23.12.37c0,.13-.03.25-.09.35-.06.09-.14.17-.24.23-.09.05-.2.09-.3.1-.1.02-.21.03-.32.03h-.03Z"/>
      <path class="st1" d="M151.11,39.46v-2.95h-.35v-.34h.35v-.19c0-.29.08-.5.23-.64s.35-.19.61-.19c.14,0,.28.02.39.06l-.08.37c-.09-.02-.19-.03-.29-.03-.13,0-.24.04-.29.1-.07.08-.09.18-.09.34v.17h.52v.34h-.52v2.95h-.48Z"/>
      <path class="st1" d="M153.77,38.6c-.39,0-.68-.09-.88-.28s-.3-.49-.3-.93c0-.86.38-1.29,1.13-1.29.62,0,.92.4.92,1.21v.16h-1.58c0,.16.03.28.07.39s.1.18.18.23c.09.05.17.09.26.1s.2.03.33.03c.14,0,.35-.03.63-.09l.08.36c-.23.08-.49.11-.81.11h-.03ZM153.06,37.15h1.1c0-.22-.04-.39-.12-.52s-.21-.19-.37-.19-.3.07-.42.18-.17.29-.19.53h0Z"/>
      <path class="st1" d="M155.39,38.56v-2.39h.46v.32c.07-.1.16-.19.28-.27s.25-.1.4-.1c.11,0,.21,0,.29.04l-.08.39c-.09-.02-.18-.03-.29-.03-.12,0-.24.03-.35.09s-.19.14-.26.24v1.72h-.46.01Z"/>
      <path class="st1" d="M157.58,35.78l-.34-.35.34-.34.35.34-.35.35ZM157.35,38.56v-2.39h.46v2.39h-.46Z"/>
      <path class="st1" d="M158.76,38.56v-2.39h.46v.28c.28-.22.54-.33.79-.33.34,0,.56.11.66.35.29-.24.58-.35.85-.35.14,0,.26.02.36.07.1.04.17.09.23.14.05.06.09.13.11.22s.05.17.05.24v1.78h-.46v-1.46c0-.2-.03-.34-.09-.45-.06-.09-.17-.14-.35-.14-.19,0-.41.09-.65.25,0,.08.02.16.02.28v1.53h-.46v-1.46c0-.2-.03-.35-.09-.45-.06-.09-.17-.14-.35-.14s-.39.09-.65.26v1.79h-.46s.03-.02.03-.02Z"/>
      <path class="st1" d="M164.22,38.6c-.39,0-.68-.09-.89-.28-.2-.18-.3-.49-.3-.93,0-.86.38-1.29,1.13-1.29.62,0,.92.4.92,1.21v.16h-1.58c0,.16.03.28.07.39s.1.18.18.23c.09.05.17.09.26.1.09.02.2.03.33.03.14,0,.35-.03.63-.09l.08.36c-.23.08-.49.11-.81.11h-.02ZM163.51,37.15h1.1c0-.22-.04-.39-.12-.52s-.21-.19-.37-.19-.3.07-.42.18c-.1.12-.17.29-.19.53h0Z"/>
      <path class="st1" d="M165.85,38.56v-2.39h.46v.27c.31-.22.59-.32.83-.32.14,0,.26.02.36.06.09.04.17.09.23.13.06.06.09.12.12.22s.05.17.06.25v1.8h-.46v-1.46c0-.21-.03-.36-.09-.46s-.18-.13-.36-.13c-.17,0-.41.09-.69.25v1.8h-.46v-.02Z"/>
      <path class="st1" d="M169.77,38.6h-.27c-.07,0-.14-.02-.23-.05s-.16-.06-.21-.1c-.05-.05-.09-.12-.11-.22-.04-.09-.05-.22-.05-.36v-1.34h-.35v-.36h.35v-.49h.46v.49h.75v.36h-.75v1.34c0,.14.03.24.08.28.06.04.16.07.33.07.15,0,.29-.02.42-.07l.07.38c-.18.05-.34.08-.47.08h-.02Z"/>
      <path class="st1" d="M171.86,38.6c-.35,0-.63-.1-.83-.32s-.29-.51-.29-.9.1-.71.31-.94.49-.34.84-.34c.37,0,.65.1.84.32s.28.53.28.93-.1.71-.32.93c-.21.22-.49.32-.84.32h.01ZM171.89,38.23c.44,0,.65-.29.65-.87,0-.11,0-.23-.03-.32s-.06-.19-.09-.28c-.05-.09-.11-.16-.21-.21s-.2-.08-.33-.08c-.25,0-.42.09-.51.26-.1.17-.15.38-.15.64,0,.58.23.87.68.87h-.01Z"/>
      <path class="st1" d="M111.24,44.05h-.27c-.07,0-.14-.02-.23-.05s-.16-.06-.2-.1c-.05-.05-.09-.12-.12-.22s-.05-.22-.05-.36v-1.34h-.35v-.36h.35v-.49h.46v.49h.75v.36h-.75v1.34c0,.14.03.24.08.28.06.04.16.07.33.07.15,0,.29-.02.42-.07l.07.38c-.18.05-.34.08-.47.08h-.02Z"/>
      <path class="st1" d="M113.39,44.06c-.39,0-.68-.09-.88-.28-.2-.18-.3-.49-.3-.93,0-.86.38-1.29,1.13-1.29.62,0,.92.4.92,1.21v.16h-1.58c0,.16.03.28.07.39s.1.18.18.24c.09.05.17.09.26.1s.2.03.33.03c.14,0,.35-.03.63-.09l.08.36c-.23.08-.49.11-.81.11h-.03ZM112.67,42.6h1.1c0-.22-.04-.39-.12-.52s-.21-.19-.37-.19-.3.07-.42.18-.17.29-.19.53h0Z"/>
      <path class="st1" d="M116.13,44.05c-.46,0-.78-.09-.98-.29s-.3-.51-.3-.96c0-.38.1-.68.32-.91s.5-.33.87-.33c.28,0,.5.05.69.14l-.13.35c-.18-.08-.37-.11-.56-.11-.22,0-.39.08-.52.22-.13.14-.2.36-.2.64,0,.31.06.53.18.66s.34.2.66.2h.17c.06,0,.11-.02.18-.03s.1-.02.12-.02l.08.36c-.22.06-.42.09-.59.09h.01Z"/>
      <path class="st1" d="M117.43,44v-2.39h.46v.27c.31-.22.59-.32.83-.32.14,0,.26.02.36.06s.17.09.23.13c.06.06.09.12.12.22s.05.17.06.25v1.8h-.46v-1.46c0-.21-.03-.36-.09-.46s-.18-.13-.36-.13c-.17,0-.41.09-.69.25v1.8h-.46v-.02Z"/>
      <path class="st1" d="M121.37,44.06c-.35,0-.63-.1-.83-.32s-.29-.51-.29-.9.1-.71.32-.94c.21-.23.49-.34.84-.34.37,0,.65.1.84.32s.28.53.28.93-.1.71-.32.92-.49.32-.84.32h0ZM121.4,43.68c.44,0,.65-.29.65-.87,0-.11,0-.23-.03-.32s-.06-.19-.09-.28c-.05-.09-.11-.16-.21-.21-.09-.05-.2-.08-.33-.08-.25,0-.42.09-.52.26s-.15.38-.15.64c0,.58.23.87.68.87h0Z"/>
      <path class="st1" d="M123.31,44v-3.29h.46v3.29h-.46Z"/>
      <path class="st1" d="M125.56,44.06c-.35,0-.63-.1-.83-.32s-.29-.51-.29-.9.1-.71.32-.94c.21-.23.49-.34.84-.34.37,0,.65.1.84.32s.28.53.28.93-.1.71-.32.92-.49.32-.84.32h0ZM125.59,43.68c.44,0,.65-.29.65-.87,0-.11,0-.23-.03-.32s-.06-.19-.09-.28c-.05-.09-.11-.16-.21-.21-.09-.05-.2-.08-.33-.08-.25,0-.42.09-.52.26s-.15.38-.15.64c0,.58.23.87.68.87h0Z"/>
      <path class="st1" d="M128.37,44.99c-.29,0-.58-.04-.84-.1l.08-.38c.28.06.5.09.68.09.23,0,.4-.04.51-.1s.17-.22.17-.45v-.19c-.14.11-.31.18-.51.18-.11,0-.23,0-.32-.02s-.2-.05-.29-.09-.19-.11-.26-.21c-.07-.09-.12-.21-.17-.35-.05-.15-.07-.33-.07-.54,0-.41.11-.72.34-.94.23-.22.51-.33.86-.33.24,0,.53.03.87.09v2.47c0,.29-.09.51-.29.65s-.45.22-.75.22h0ZM128.48,43.68c.14,0,.3-.06.47-.16v-1.53c-.16-.03-.3-.05-.42-.05-.26,0-.45.09-.56.25-.12.16-.18.38-.18.65,0,.3.06.51.17.65s.28.2.52.2h0Z"/>
      <path class="st1" d="M130.59,41.22l-.34-.35.34-.34.35.34-.35.35ZM130.37,44v-2.39h.46v2.39h-.46Z"/>
      <path class="st1" d="M132.89,44.05c-.46,0-.78-.09-.98-.29s-.3-.51-.3-.96c0-.38.1-.68.32-.91s.5-.33.87-.33c.28,0,.5.05.69.14l-.13.35c-.18-.08-.37-.11-.56-.11-.22,0-.39.08-.52.22-.13.14-.2.36-.2.64,0,.31.06.53.18.66s.34.2.66.2h.17c.06,0,.11-.02.18-.03s.1-.02.12-.02l.08.36c-.22.06-.42.09-.59.09h.01Z"/>
      <path class="st1" d="M135.16,44.06c-.35,0-.63-.1-.83-.32s-.29-.51-.29-.9.1-.71.32-.94c.21-.23.49-.34.84-.34.37,0,.65.1.84.32s.28.53.28.93-.1.71-.32.92-.49.32-.84.32h0ZM135.19,43.68c.44,0,.65-.29.65-.87,0-.11,0-.23-.03-.32s-.06-.19-.09-.28c-.05-.09-.11-.16-.21-.21-.09-.05-.2-.08-.33-.08-.25,0-.42.09-.52.26s-.15.38-.15.64c0,.58.23.87.68.87h0Z"/>
      <path class="st1" d="M139.28,44.06c-.39,0-.68-.09-.88-.28-.2-.18-.3-.49-.3-.93,0-.86.38-1.29,1.13-1.29.62,0,.92.4.92,1.21v.16h-1.58c0,.16.03.28.07.39s.1.18.18.24c.09.05.17.09.26.1s.2.03.33.03c.14,0,.35-.03.63-.09l.08.36c-.23.08-.49.11-.81.11h-.03ZM138.57,42.6h1.1c0-.22-.04-.39-.12-.52s-.21-.19-.37-.19-.3.07-.42.18-.17.29-.19.53h0Z"/>
      <path class="st1" d="M142.06,44v-3.29h.46v3.29h-.46Z"/>
      <path class="st1" d="M143.24,41.67c.09-.17.12-.35.12-.55v-.42h.44v.25c0,.28-.07.51-.21.72,0,0-.35,0-.35,0Z"/>
      <path class="st1" d="M144.58,44v-3.09h.47v3.09h-.47Z"/>
      <path class="st1" d="M146.06,44v-2.39h.46v.27c.31-.22.59-.32.83-.32.14,0,.26.02.36.06s.17.09.23.13c.06.06.09.12.12.22s.05.17.06.25v1.8h-.46v-1.46c0-.21-.03-.36-.09-.46s-.18-.13-.36-.13c-.17,0-.41.09-.69.25v1.8h-.46v-.02Z"/>
      <path class="st1" d="M149.03,44v-2.39h.46v.27c.31-.22.59-.32.83-.32.14,0,.26.02.36.06s.17.09.23.13c.06.06.09.12.12.22s.05.17.06.25v1.8h-.46v-1.46c0-.21-.03-.36-.09-.46s-.18-.13-.36-.13c-.17,0-.41.09-.69.25v1.8h-.46v-.02Z"/>
      <path class="st1" d="M152.97,44.06c-.35,0-.63-.1-.83-.32s-.29-.51-.29-.9.1-.71.32-.94c.21-.23.49-.34.84-.34.37,0,.65.1.84.32s.28.53.28.93-.1.71-.32.92-.49.32-.84.32h0ZM153,43.68c.44,0,.65-.29.65-.87,0-.11,0-.23-.03-.32s-.06-.19-.09-.28c-.05-.09-.11-.16-.21-.21-.09-.05-.2-.08-.33-.08-.25,0-.42.09-.52.26s-.15.38-.15.64c0,.58.23.87.68.87h0Z"/>
      <path class="st1" d="M155.4,44l-.81-2.39h.5l.47,1.54.14.5.16-.5.53-1.53h.47l-.88,2.39h-.61.03,0Z"/>
      <path class="st1" d="M158.03,44.04c-.24,0-.42-.06-.54-.18-.12-.11-.19-.28-.19-.51,0-.14.03-.26.09-.36.06-.09.14-.17.24-.23.1-.05.2-.09.3-.1.1-.02.21-.03.33-.03h.53v-.28c0-.16-.05-.27-.13-.32-.09-.06-.23-.09-.44-.09-.13,0-.34.04-.64.11l-.09-.34c.25-.1.52-.16.84-.16s.53.06.68.16.23.28.23.51v1.25c0,.11.08.18.22.19l-.02.35h-.09c-.12,0-.24-.02-.34-.07s-.16-.12-.18-.22c0,0-.02.02-.06.04-.03.03-.06.04-.07.05-.02,0-.04.03-.08.05-.04.02-.07.04-.09.05s-.06.03-.1.05-.09.03-.12.04c-.04,0-.09,0-.13.02h-.15.02l-.02.02h0ZM158.13,43.68c.06,0,.12,0,.2-.03s.13-.04.18-.06.1-.05.17-.08c.07-.03.09-.05.1-.05v-.55l-.51.02c-.16,0-.29.04-.39.1s-.13.16-.13.27c0,.25.13.36.39.36h0v.02h-.01Z"/>
      <path class="st1" d="M160.06,44v-.35l1.34-1.65h-1.23v-.39h1.77v.33l-1.35,1.67h1.37v.38h-1.9,0Z"/>
      <path class="st1" d="M162.91,41.22l-.34-.35.34-.34.35.34-.35.35ZM162.69,44v-2.39h.46v2.39h-.46Z"/>
      <path class="st1" d="M165.06,44.06c-.35,0-.63-.1-.83-.32s-.29-.51-.29-.9.1-.71.31-.94.49-.34.84-.34c.37,0,.65.1.84.32s.28.53.28.93-.1.71-.32.92c-.21.22-.49.32-.84.32h.01ZM165.08,43.68c.44,0,.65-.29.65-.87,0-.11,0-.23-.03-.32s-.06-.19-.09-.28c-.05-.09-.11-.16-.21-.21-.09-.05-.2-.08-.33-.08-.25,0-.42.09-.51.26-.1.17-.15.38-.15.64,0,.58.23.87.68.87h-.01Z"/>
      <path class="st1" d="M166.99,44v-2.39h.46v.27c.31-.22.59-.32.83-.32.14,0,.26.02.35.06s.17.09.23.13c.06.06.09.12.12.22s.05.17.06.25v1.8h-.46v-1.46c0-.21-.03-.36-.09-.46s-.18-.13-.36-.13-.41.09-.69.25v1.8h-.46v-.02h0Z"/>
      <path class="st1" d="M170.99,44.06c-.39,0-.68-.09-.88-.28-.2-.18-.3-.49-.3-.93,0-.86.38-1.29,1.13-1.29.62,0,.93.4.93,1.21v.16h-1.58c0,.16.03.28.07.39s.09.18.18.24c.09.05.17.09.26.1s.2.03.33.03c.14,0,.35-.03.63-.09l.08.36c-.23.08-.49.11-.81.11h-.04ZM170.28,42.6h1.1c0-.22-.04-.39-.12-.52s-.21-.19-.37-.19-.3.07-.42.18c-.1.12-.17.29-.19.53h0Z"/>
    </g>
  </g>
</svg>