<?xml version="1.0" encoding="UTF-8"?>
<svg id="Layer_1" xmlns="http://www.w3.org/2000/svg" version="1.1" viewBox="0 0 207.12 69.28">
  <!-- Generator: Adobe Illustrator 29.4.0, SVG Export Plug-In . SVG Version: 2.1.0 Build 152)  -->
  <defs>
    <style>
      .st0 {
        fill: #c58a2b;
      }

      .st0, .st1, .st2, .st3, .st4, .st5, .st6, .st7, .st8, .st9, .st10, .st11, .st12, .st13, .st14, .st15, .st16, .st17, .st18, .st19, .st20, .st21, .st22, .st23 {
        fill-rule: evenodd;
      }

      .st1, .st24 {
        fill: #fff;
      }

      .st2 {
        fill: #9d5825;
      }

      .st3 {
        fill: #ebba1e;
      }

      .st25 {
        fill: #118f4c;
      }

      .st4 {
        fill: #a46127;
      }

      .st5 {
        fill: #e1ab25;
      }

      .st6 {
        fill: #208fce;
      }

      .st7, .st26 {
        fill: #efb61d;
      }

      .st27 {
        fill: #1e1719;
      }

      .st8 {
        fill: #c1832b;
      }

      .st9 {
        fill: #b3732a;
      }

      .st10 {
        fill: #af6d29;
      }

      .st28 {
        fill: #585856;
      }

      .st29 {
        fill: #2077bd;
      }

      .st11 {
        fill: #a96528;
      }

      .st12 {
        fill: #00a083;
      }

      .st13 {
        fill: #e3322a;
      }

      .st14 {
        fill: #e11f26;
      }

      .st15 {
        fill: #f2c318;
      }

      .st16 {
        fill: #cc912a;
      }

      .st17 {
        fill: #fed60f;
      }

      .st18 {
        fill: #d8a128;
      }

      .st19 {
        fill: #d1982a;
      }

      .st20 {
        fill: #eaeaec;
      }

      .st21 {
        fill: #bd7b2a;
      }

      .st22 {
        fill: #e5b322;
      }

      .st23 {
        fill: #fcce08;
      }
    </style>
  </defs>
  <g>
    <rect class="st26" x="12.03" y="21.75" width="26.03" height="5.77"/>
    <path class="st27" d="M38.19,27.64H11.9v-6.02h26.29v6.02ZM12.16,27.38h25.77v-5.51H12.16v5.51Z"/>
    <path class="st6" d="M12.03,27.51v23.15s-.07,2.71,2.71,2.71h8.12s1.22.14,1.64,1c.43.86.48,1.28.48,1.28,0,0,.37-1.33,1.01-1.76.64-.42.72-.5,1.11-.5h8.54s2.42-.33,2.42-2.42v-23.45H12.03Z"/>
    <path class="st27" d="M25.1,55.68l-.25-.02s-.06-.42-.47-1.24-1.53-.92-1.54-.92h-8.1c-.86,0-1.55-.25-2.05-.76-.81-.83-.79-2.03-.79-2.09v-23.27h26.3v23.58c0,2.18-2.51,2.54-2.54,2.54h-8.56c-.31,0-.38.05-.85.36l-.18.12c-.59.4-.95,1.68-.96,1.69M12.16,27.64v23.02s-.02,1.15.72,1.9c.44.45,1.07.68,1.86.68h8.12c.07,0,1.3.16,1.76,1.07.19.38.31.68.38.89.17-.44.48-1.13.93-1.42l.18-.12c.48-.32.61-.4,1-.4h8.54c.08-.01,2.29-.34,2.29-2.29v-23.32H12.16Z"/>
    <path class="st25" d="M14.68,24.67c0-.6.49-1.09,1.09-1.09s1.09.49,1.09,1.09-.49,1.09-1.09,1.09-1.09-.48-1.09-1.09"/>
    <path class="st27" d="M15.77,25.89c-.67,0-1.22-.55-1.22-1.22s.55-1.22,1.22-1.22,1.22.55,1.22,1.22-.55,1.22-1.22,1.22M15.77,23.72c-.53,0-.96.43-.96.96s.43.96.96.96.96-.43.96-.96-.43-.96-.96-.96"/>
    <path class="st25" d="M18.41,24.67c0-.6.49-1.09,1.09-1.09s1.09.49,1.09,1.09-.49,1.09-1.09,1.09-1.09-.49-1.09-1.09"/>
    <path class="st27" d="M19.5,25.9c-.67,0-1.22-.55-1.22-1.22s.55-1.22,1.22-1.22,1.22.55,1.22,1.22-.55,1.22-1.22,1.22M19.5,23.72c-.53,0-.96.43-.96.96s.43.96.96.96.96-.43.96-.96-.43-.96-.96-.96"/>
    <path class="st25" d="M22.13,24.67c0-.6.49-1.09,1.09-1.09s1.09.49,1.09,1.09-.48,1.09-1.09,1.09-1.09-.49-1.09-1.09"/>
    <path class="st27" d="M23.22,25.9c-.67,0-1.22-.55-1.22-1.22s.55-1.22,1.22-1.22,1.22.55,1.22,1.22-.55,1.22-1.22,1.22M23.22,23.72c-.53,0-.96.43-.96.96s.43.96.96.96.96-.43.96-.96-.43-.96-.96-.96"/>
    <path class="st25" d="M25.85,24.67c0-.6.49-1.09,1.09-1.09s1.09.49,1.09,1.09-.49,1.09-1.09,1.09-1.09-.49-1.09-1.09"/>
    <path class="st27" d="M26.95,25.9c-.67,0-1.22-.55-1.22-1.22s.55-1.22,1.22-1.22,1.22.55,1.22,1.22-.55,1.22-1.22,1.22M26.95,23.72c-.53,0-.96.43-.96.96s.43.96.96.96.96-.43.96-.96-.43-.96-.96-.96"/>
    <path class="st25" d="M33.3,24.67c0-.6.49-1.09,1.09-1.09s1.09.49,1.09,1.09-.49,1.09-1.09,1.09-1.09-.49-1.09-1.09"/>
    <path class="st27" d="M34.39,25.9c-.67,0-1.22-.55-1.22-1.22s.55-1.22,1.22-1.22,1.22.55,1.22,1.22-.55,1.22-1.22,1.22M34.39,23.72c-.53,0-.96.43-.96.96s.43.96.96.96.96-.43.96-.96-.43-.96-.96-.96"/>
    <polygon class="st14" points="30.47 27.47 19.69 27.47 12.03 35.17 12.03 45.73 19.73 53.37 30.37 53.37 38.05 45.76 38.05 34.9 30.47 27.47"/>
    <path class="st27" d="M30.43,53.5h-10.76l-.04-.04-7.73-7.68v-10.67l.04-.04,7.7-7.74h10.89l.04.04,7.62,7.47v10.97l-.04.04-7.71,7.65ZM19.78,53.25h10.54l7.6-7.54v-10.75l-7.5-7.36h-10.67l-7.58,7.62v10.46l7.62,7.57Z"/>
    <polygon class="st20" points="29.2 30.48 20.93 30.48 15.02 36.39 15.02 44.5 20.96 50.36 29.14 50.36 35.02 44.53 35.02 36.18 29.2 30.48"/>
    <path class="st27" d="M29.19,50.49h-8.29l-.04-.04-5.97-5.9v-8.22l.04-.04,5.94-5.95h8.38l5.89,5.78v8.45l-.04.04-5.92,5.88ZM21.01,50.24h8.07l5.81-5.77v-8.23l-5.74-5.63h-8.17l-5.83,5.83v8l5.86,5.79Z"/>
    <path class="st2" d="M27.92,39.09v-.13c.22-.04.4-.06.41-.04h0s-.12.07-.41.17"/>
    <path class="st4" d="M27.51,39.22v-.18c.12-.02.27-.05.41-.08v.13c-.11.04-.24.08-.41.13M27.51,47.46v-.13c.17.14.34.19.34.19,0,0-.14.01-.34-.07"/>
    <path class="st11" d="M27.1,39.3v-.26s.1.06.2.03l.2-.04v.18l-.23.07s-.07,0-.17.02M27.1,47.19v-.38c.05.08.11.17.17.27.07.11.15.19.23.26v.13c-.09-.03-.19-.09-.29-.18-.05-.04-.08-.07-.11-.1"/>
    <path class="st10" d="M26.7,39.43v-.4c.23-.24.34-.13.34-.13,0,0,0,.09.06.14v.26c-.11.02-.25.05-.41.12M26.7,47.15v-.73c.18.09.3.22.41.38v.38c-.19-.17-.13-.14-.13.07,0,.69-.24-.03-.24-.03,0,0-.01-.03-.04-.08"/>
    <path class="st9" d="M26.29,38v-.16s.04-.04.06-.05c.11-.07.05.06-.06.21M26.29,39.67v-.2c.13-.11.25-.27.39-.43l.02-.02v.4s-.09.04-.14.07c-.11.07-.2.12-.27.18M26.29,46.76v-.47c.08.03.16.05.24.07.06.02.12.04.17.07v.72c-.04-.07-.11-.17-.2-.25-.06-.06-.12-.1-.21-.14M26.29,47.93v-.31c.09.1.16.19.21.27.13.21.27.47.03.3-.15-.11-.17-.16-.24-.25"/>
    <path class="st21" d="M25.88,38.59v-.33c.14-.16.31-.33.41-.42v.16c-.07.11-.17.22-.24.3-.07.07-.12.17-.17.29M25.88,40.16v-.5s.05,0,.08-.01c.13-.03.23-.09.33-.17v.2c-.15.12-.25.24-.41.49M25.88,46.61v-.53c.13.11.27.17.41.21v.47c-.11-.05-.24-.09-.41-.15M25.88,47.55v-.41s.02.03.02.04c.06.09.24.28.39.45v.31c-.04-.05-.1-.12-.21-.23-.08-.07-.15-.12-.2-.16"/>
    <path class="st8" d="M25.47,41.32v-2.52c.05-.1.07-.17.07-.17,0,0,.15-.18.34-.37v.34c-.08.2-.16.44-.27.66-.09.17-.08.28-.01.34.06.06.16.08.29.06v.5l-.04.05c-.18.28-.3.67-.37,1.11M25.47,46.53v-1.15c.09.35.24.56.41.7v.53h-.04c-.16-.07-.28-.08-.37-.08M25.47,47.43v-.75c.13.13.32.33.41.45v.42c-.14-.08-.19-.05-.19-.05l-.12.29s-.04-.17-.1-.36"/>
    <path class="st0" d="M25.07,37.62v-.42s.02.27,0,.42M25.07,46.81v-8.23c0,.06.02.11.03.16.09.39.09.54.23.3.06-.09.11-.18.14-.24v2.53c-.03.21-.06.42-.08.64-.06.69-.12,2.45.06,3.31l.02.09v1.15c-.09,0-.14.02-.14.02,0,0,.06.06.14.14v.75c-.04-.14-.1-.29-.16-.38-.07-.1-.15-.17-.24-.24"/>
    <path class="st16" d="M24.66,46.46v-7.09c.15.1.07-.23.05-.44-.03-.27,0-.57-.03-.77-.03-.21.15-.69.3-.9.03-.04.06-.06.07-.06,0,0,.01,0,.01,0v.43c-.03.18-.05.6,0,.95v8.24c-.1-.08-.21-.16-.33-.27-.03-.03-.06-.06-.08-.09"/>
    <path class="st19" d="M24.26,46.94v-7.1c.08,0,.05-.12,0-.26v-.67c.05.06.11.14.18.23.1.13.17.2.21.23v7.09c-.13-.15-.13-.21-.13-.21l-.12.35s-.04.14-.15.35"/>
    <path class="st18" d="M23.85,38.86v-.56h0c.07.23.15.29.42.61v.67c-.05-.13-.12-.28-.15-.35-.04-.11-.17-.23-.27-.37M23.85,47.17v-.81c.05-.09.09-.15.09-.15l-.09.03v-.69c.07-.08.13-.18.18-.28.21-.45.15-1.04.18-1.67.03-.63,0-1.82-.06-2.45-.06-.63-.03-.57-.27-1.02l-.03-.05v-.45c.12.07.25.13.35.18.03.01.04.01.06.02v7.1s-.04.07-.06.1c-.15.27-.24.42-.24.42l-.12-.3h0Z"/>
    <path class="st5" d="M23.44,37.94v-.34c.13.15.32.44.41.7v.56c-.07-.09-.13-.18-.15-.28-.04-.18-.13-.41-.25-.63M23.44,39.64v-.28c.13.11.27.21.41.28v.45c-.11-.18-.26-.33-.41-.46M23.44,46.53v-.6c.15-.11.29-.23.41-.36v.69l-.15.05s-.08.06-.25.23M23.44,47.51v-.32c.04-.07.07-.15.11-.27.05-.16.2-.41.3-.57v.81s-.13.1-.36.3l-.05.04Z"/>
    <path class="st22" d="M23.44,47.2v.32c-.19.16-.17.15-.25.44-.09.3.05.57.06.59,0-.02-.15-.27-.15-.44,0-.19.09-.45.21-.66.06-.1.1-.17.13-.24M23.44,37.6v.34c-.06-.11-.14-.23-.22-.33-.25-.3.08-.17.21-.03v.02ZM23.03,39.35v-.34c.09.05.18.11.28.22.04.05.09.09.13.13v.28c-.14-.12-.28-.21-.41-.29M23.03,46.38v-.2c.14-.08.28-.16.41-.25v.6l-.13.13c-.27.27-.27.24-.21.03.06-.21.13-.24-.03-.3-.02,0-.03-.01-.04-.01"/>
    <path class="st3" d="M22.63,39.06v-.24l.03.03c.07.07.21.09.37.17v.33l-.14-.09c-.09-.06-.18-.13-.26-.2M22.63,46.61v-.22l.23-.13c.06-.03.11-.06.17-.09v.2c-.1-.02-.11.09-.37.22l-.03.02Z"/>
    <path class="st15" d="M22.62,38.82v.24c-.14-.12-.27-.26-.37-.43-.14-.25.22.05.37.19M22.22,46.88v-.24c.12-.08.26-.16.41-.24v.21c-.2.1-.29.17-.41.27"/>
    <path class="st23" d="M21.81,47.29v-.29l.03-.05c.08-.11.21-.21.37-.32v.24l-.16.14c-.08.07-.16.17-.24.28"/>
    <path class="st17" d="M21.81,47v.29c-.16.2-.3.42-.38.44-.12.03.2-.47.38-.73"/>
    <path class="st27" d="M23.13,48.6h0s-.17-.3-.17-.51c0-.23.12-.53.22-.72.12-.2.15-.25.24-.49.03-.09.08-.19.14-.3-.05.04-.11.1-.17.17-.18.18-.24.23-.32.23h-.06l-.05-.05c-.05-.07-.03-.15,0-.27.02-.05.03-.09.04-.12,0,0,0-.02,0-.03h0s-.03.01-.04.03c-.05.04-.13.11-.27.18-.26.13-.32.18-.5.34l-.07.06c-.11.09-.22.25-.33.39-.16.22-.25.33-.35.35h-.04s-.08,0-.08,0l-.05-.08c-.08-.16.25-.63.45-.9.19-.25.56-.46,1-.69l.06-.03c.44-.23.92-.52,1.11-.92.14-.31.15-.73.16-1.17,0-.15,0-.3.01-.45.03-.61,0-1.79-.06-2.43l-.02-.21q-.04-.39-.23-.76c-.2-.37-.57-.61-.84-.78l-.1-.07c-.28-.19-.5-.38-.67-.67-.02-.04-.08-.14-.03-.22l.04-.06h.09c.16,0,.5.34.5.34.02.02.07.04.14.06.14.05.33.12.52.33.22.25.52.41.75.52-.03-.08-.06-.16-.09-.22-.03-.07-.06-.13-.07-.17-.02-.06-.08-.13-.15-.21-.11-.13-.24-.28-.27-.47-.06-.24-.22-.61-.46-.9-.08-.09-.15-.2-.1-.31.03-.06.08-.09.15-.09.11,0,.28.11.36.2.15.18.35.48.44.76.05.16.1.22.27.42.08.09.18.21.31.38.02.03.04.05.06.08,0-.02,0-.05,0-.07,0-.04-.01-.09-.02-.12-.01-.14-.01-.29-.01-.42,0-.13,0-.25-.01-.35-.04-.26.16-.77.32-.99.04-.05.09-.12.18-.12h.06l.06.05s.09.11.03.52c-.03.2-.06.72.03,1.08l.03.15s0,.03,0,.04c.11-.18.15-.32.15-.32l.03-.05c.06-.07.64-.73.83-.86.03-.02.07-.04.12-.04h.09l.05.09c.08.18-.37.66-.38.67-.09.09-.16.27-.23.47-.06.15-.11.3-.19.45-.05.09-.06.16-.04.18.02.02.13.05.25.02.21-.04.36-.22.53-.43.04-.04.07-.09.11-.13.13-.14.25-.22.38-.22.08,0,.14.04.18.07l.04.04v.05c0,.09.06.06.1.05l.15-.03c.36-.07.73-.14.86-.14s.16.09.17.12c.02.13.02.16-1.14.51h-.04s-.33,0-.65.19c-.33.19-.41.27-.68.68-.22.33-.36.89-.43,1.7-.07.73-.11,2.44.06,3.28.15.73.54.84.91.95l.08.02c.41.13.58.4.78.71l.04.06c.18.28.5.4.5.4l-.03.25h-.04c-.11,0-.38-.03-.68-.27-.01,0-.02-.02-.03-.02,0,.15-.04.32-.19.32-.06,0-.16,0-.3-.41,0,0-.08-.15-.21-.28-.1-.09-.21-.13-.41-.2-.06-.02-.12-.04-.2-.07-.05-.02-.1-.03-.15-.04.14.15.31.33.37.43.03.05.13.16.23.27.14.16.29.32.36.44.17.29.2.39.16.48l-.04.07h-.09c-.05,0-.11-.02-.19-.08-.14-.1-.18-.17-.23-.24-.04-.06-.09-.13-.23-.25-.1-.09-.17-.14-.22-.16l-.24.58-.09-.4c-.03-.14-.14-.54-.25-.69-.08-.11-.17-.18-.29-.27-.09-.06-.18-.13-.27-.22-.03-.03-.06-.06-.08-.09l-.03.09s-.07.2-.22.47c-.15.27-.24.43-.24.43l-.14.23-.15-.38c-.05.04-.13.11-.21.18q-.19.16-.23.32l-.03.09c-.08.26.04.49.05.5l-.23.13ZM25.73,47.36c.07,0,.14.03.23.08-.07-.08-.13-.15-.16-.21-.06-.1-.37-.42-.55-.6l-.15-.15.2-.07s.07-.02.17-.02c.13,0,.27.03.42.08.07.03.14.05.19.07.22.07.37.13.51.26.13.13.22.28.25.34,0-.05-.01-.1.03-.15l.04-.04h.06s.06,0,.09.03c-.15-.24-.29-.41-.57-.5l-.08-.02c-.38-.11-.9-.26-1.09-1.15-.18-.86-.13-2.61-.06-3.35.08-.87.23-1.44.47-1.82.11-.16.19-.28.27-.38,0,0,0,0,0,0-.19.04-.39.02-.49-.08-.08-.07-.15-.22-.01-.49.07-.14.13-.28.18-.43.02-.06.04-.11.06-.16-.03.03-.05.06-.07.08-.02.06-.09.23-.22.42-.05.09-.11.18-.21.18-.15,0-.17-.14-.22-.37l-.03-.15c-.1-.42-.06-.98-.04-1.17-.08.2-.14.42-.13.53.02.12.02.25.02.38,0,.13,0,.27.01.4,0,.04.01.07.02.11.03.22.04.34-.03.43l-.04.04h-.08c-.1.01-.19-.07-.36-.29-.13-.17-.23-.28-.3-.37-.09-.11-.15-.18-.2-.26.04.11.12.21.21.31.08.1.16.19.2.29.01.04.03.09.06.15.12.27.19.45.11.56-.05.08-.14.1-.26.05-.12-.06-.28-.13-.43-.22.1.11.2.23.27.37.22.4.23.43.26.86l.02.21c.06.65.09,1.85.06,2.46,0,.15,0,.3,0,.45,0,.47-.01.91-.18,1.27-.19.41-.6.7-1.01.93.14.06.17.14.16.22.22-.21.33-.29.33-.29h.03s.6-.24.6-.24l-.21.32s-.3.47-.37.69c-.04.11-.07.19-.11.26.14-.12.2-.17.2-.17l.14-.1.08.21c.03-.05.06-.11.1-.18.14-.25.2-.43.2-.43l.12-.36.25.04h0s.03.07.17.21c.08.08.16.14.24.2.12.09.24.18.34.32.07.11.14.28.19.43h.02s.05-.04.11-.04"/>
    <path class="st27" d="M22.11,38.63c-.1-.11-.41-.41-.63-.47-.15-.04-.24-.07-.36-.09-.12-.03-.25-.06-.48-.12-.46-.12-.58-.25-.61-.28l.21-.15s.1.09.47.19c.22.06.35.09.47.12.12.03.22.05.37.1.32.1.7.5.74.55l-.19.18Z"/>
    <path class="st27" d="M20.48,39.23l-.07-.25.45-.13h.84c.45,0,.78.03.79.03l-.03.26s-.32-.03-.76-.03h-.82l-.4.12Z"/>
    <path class="st27" d="M23.08,37.54s-.36-.3-.78-.63c-.42-.33-.92-.72-.92-.72-.05-.04-.53-.41-.66-.64l.23-.13c.08.14.4.42.59.56,0,0,.51.39.93.72.42.33.78.63.78.63l-.16.2Z"/>
    <path class="st27" d="M23.68,37.76h-.26s0-.86-.03-1.18c-.03-.34,0-.78,0-.8,0,0,0-.62-.03-.91v-.14c-.03-.19-.04-.32-.1-.4l.21-.15c.1.13.11.3.13.53v.13c.04.31.04.92.04.94,0,.01-.03.45,0,.77.03.33.03,1.17.03,1.2"/>
    <path class="st27" d="M23.39,35.73s-.51-.31-.82-.75c-.17-.23-.34-.51-.43-.65-.14-.23-.24-.41-.24-.41l.23-.13s.1.17.24.4c.08.14.25.41.41.63.28.39.74.68.74.68l-.14.22Z"/>
    <path class="st27" d="M24.82,37.4c-.09-.06-.24-.25-.17-.58.06-.35.22-.58.23-.59l.21.15s-.13.19-.19.49c-.04.23.06.31.07.32l-.15.21Z"/>
    <path class="st27" d="M25.15,37.26l-.23-.12s.26-.53.32-.92c.01-.07.02-.14.04-.2.07-.32.12-.6-.2-1.1-.24-.37-.41-.58-.55-.74-.1-.12-.19-.22-.26-.34l-.07-.12c-.13-.22-.25-.44-.3-.66l.25-.06c.05.18.15.37.28.59l.07.12c.06.1.13.18.23.3.14.16.33.38.57.77.38.59.3.95.23,1.3-.01.06-.02.12-.04.19-.06.44-.33.98-.34,1"/>
    <path class="st27" d="M25.42,36.3l-.11-.24c.22-.1.38-.48.43-.65,0-.1-.02-.45.03-.73.03-.17.04-.28.04-.42,0-.1,0-.2.02-.32.02-.24.06-.39.13-.6l.06-.19c.09-.34.36-.79.37-.8l.22.13s-.26.43-.34.74l-.06.2c-.06.2-.1.34-.12.56-.01.12-.02.21-.02.3,0,.14,0,.27-.05.46-.05.28-.03.68-.03.68v.02s0,.02,0,.02c-.02.07-.21.66-.58.83"/>
    <polygon class="st27" points="25.83 34.17 25.26 33.39 25.47 33.24 26.03 34.01 25.83 34.17"/>
    <path class="st27" d="M25.07,37.41l-.08-.25s.37-.12.7-.44c.33-.33.6-.61.65-.76l.25.08c-.07.21-.34.48-.71.85-.39.38-.79.51-.81.51"/>
    <path class="st27" d="M26.5,37.91l-.18-.18s.55-.55.75-1.03c.2-.49.29-1.2.2-1.62-.09-.45-.12-.59-.12-.59l.25-.05s.03.14.12.6c.1.47,0,1.23-.21,1.77-.22.53-.78,1.09-.8,1.11"/>
    <path class="st27" d="M27.39,36.46l-.17-.2s.39-.32.64-.61c.15-.17.26-.24.35-.3.08-.05.15-.1.25-.21l.19.18c-.13.14-.22.2-.3.25-.09.06-.17.11-.29.25-.27.3-.65.62-.67.63"/>
    <path class="st27" d="M26.99,38.95l-.15-.21.64-.47s.18-.16.52-.3c.23-.08.33-.09.42-.09.07,0,.12,0,.24-.05.26-.11.48-.4.48-.4l.21.15s-.27.35-.59.49c-.17.07-.25.07-.33.07-.07,0-.15,0-.34.08-.33.13-.42.23-.42.23l-.02.02-.66.48Z"/>
    <path class="st12" d="M23.01,39.47l-.5.12s.05.18.35.12c.3-.06.42-.14.42-.14l-.27-.09Z"/>
    <path class="st27" d="M22.74,39.85c-.23,0-.34-.14-.36-.22l-.04-.13.67-.16.55.19-.21.15s-.15.1-.47.16c-.05.01-.1.02-.14.02"/>
    <path class="st12" d="M20.77,37.02s-.12-.03-.06.21c.06.24.51.66.51.66,0,0,.27.03-.09-.48-.36-.51-.36-.38-.36-.38"/>
    <path class="st27" d="M21.22,38.01h-.07s-.03-.03-.03-.03c-.05-.05-.47-.45-.54-.72-.03-.14-.02-.23.03-.3,0-.01.02-.02.03-.03v-.04h.14c.08-.01.15.02.45.44.19.28.25.45.18.58-.04.07-.11.11-.19.11"/>
    <path class="st12" d="M21.73,32.89s-.11-.05-.1.19c0,.25.36.75.36.75,0,0,.26.09.01-.48-.24-.57-.27-.46-.27-.46"/>
    <path class="st27" d="M22.02,33.96h0s-.07,0-.08-.01h-.04s-.02-.05-.02-.05c-.04-.05-.37-.54-.38-.81,0-.13.02-.22.07-.27.04-.04.08-.06.14-.06.01,0,.02,0,.04,0,.1,0,.18.08.38.54.12.29.14.47.07.58-.04.06-.1.09-.17.09"/>
    <path class="st12" d="M22.11,39.02s-.48.39-.27.42c.21.03.54-.39.54-.39l-.21-.06-.06.03Z"/>
    <path class="st27" d="M21.87,39.57h-.05c-.11-.02-.15-.1-.16-.13-.01-.05-.05-.18.36-.52l.13-.07.44.12-.12.15c-.06.07-.36.44-.62.44"/>
    <path class="st12" d="M20.38,39.08s-.06-.09-.24,0c-.18.09-.21.27-.21.27,0,0,.09.06.27-.03.18-.09.18-.24.18-.24"/>
    <path class="st27" d="M20.03,39.49c-.09,0-.15-.03-.16-.04l-.07-.05v-.08c.03-.09.11-.27.29-.36.19-.1.36-.03.41.04l.02.03v.04c0,.09-.06.26-.26.36-.08.04-.16.06-.23.06"/>
    <path class="st12" d="M22.02,38.96s-.12-.09-.3-.21c-.18-.12-.51-.12-.51-.12,0,0,.06.3.24.3s.5.03.5.03h.06Z"/>
    <path class="st27" d="M22.42,39.09h-.46s-.33-.03-.5-.03c-.28,0-.36-.36-.37-.4l-.03-.16h.16s.38,0,.58.14c.18.13.3.21.3.21l.33.23Z"/>
    <path class="st12" d="M20.2,37.62s-.21-.3-.3-.47c-.08-.19-.21-.15-.39-.25-.18-.09-.15.09.06.3.21.2.63.42.63.42"/>
    <path class="st27" d="M20.14,37.73s-.43-.22-.66-.44c-.1-.11-.26-.3-.2-.45.04-.1.15-.13.29-.07.05.03.1.04.14.05.11.03.23.07.31.25.09.16.29.45.29.45l-.17.19Z"/>
    <path class="st12" d="M20.83,35.49s-.03-.17-.06-.39c-.03-.21-.45-.48-.45-.48,0,0-.04.4.15.57.18.18.36.3.36.3"/>
    <path class="st27" d="M21,35.76l-.24-.16s-.19-.13-.38-.31c-.22-.21-.19-.62-.18-.67l.02-.21.18.12c.08.05.47.32.5.57.03.21.05.38.05.38l.05.29Z"/>
    <path class="st12" d="M21.34,36.16s-.21-.06-.48-.12c-.27-.06-.68.03-.68.03,0,0,.18.18.51.21.33.03.66-.12.66-.12"/>
    <path class="st27" d="M20.77,36.41s-.07,0-.1,0c-.37-.04-.58-.24-.59-.25l-.17-.17.23-.05s.5-.08.74-.02c.28.06.49.12.49.12l.34.1-.32.14s-.3.13-.62.13"/>
    <path class="st12" d="M20.26,37.74s-.09.21-.33.18c-.24-.03-.48-.09-.33.06.15.15.36.21.54.09.18-.12.12-.33.12-.33"/>
    <path class="st27" d="M19.94,38.26h0c-.15,0-.3-.07-.42-.19-.03-.03-.12-.12-.07-.22.03-.06.12-.11.38-.08.04,0,.08.01.13.02h0c.14,0,.19-.1.19-.1l.14-.33.1.34c.03.1.04.34-.17.47-.08.06-.18.09-.28.09"/>
    <path class="st12" d="M20.59,37.68s-.03-.36-.15-.45c-.12-.09-.24.03-.12.15.12.12.26.3.26.3"/>
    <path class="st27" d="M20.75,38.07l-.26-.31s-.14-.17-.26-.29c-.08-.08-.11-.18-.07-.27.05-.13.23-.17.36-.08.15.11.19.44.2.54l.03.41Z"/>
    <path class="st12" d="M22.05,36.48s.15-.36.09-.66c-.06-.3-.18-.42-.18-.42,0,0-.12.3-.12.51s.21.57.21.57"/>
    <path class="st27" d="M22.07,36.78l-.13-.23s-.23-.4-.23-.63.12-.54.13-.56l.07-.18.14.14s.16.16.22.49c.06.33-.09.71-.1.73l-.1.24Z"/>
    <path class="st12" d="M22.65,34.66s-.06-.33-.06-.6-.15-.6-.15-.6c0,0-.18.33-.18.48s.15.51.15.51l.24.21Z"/>
    <path class="st27" d="M22.85,35.01l-.56-.5c-.03-.06-.17-.39-.17-.56s.17-.48.2-.54l.13-.22.1.24s.16.35.16.65c0,.25.06.57.06.57l.07.37Z"/>
    <path class="st12" d="M23.1,32.99s.12.32.12.57.15.72.15.72c0,0-.39-.27-.42-.63-.03-.36.15-.66.15-.66"/>
    <path class="st27" d="M23.6,34.59l-.31-.21s-.44-.31-.47-.73c-.03-.39.16-.72.16-.73l.14-.24.09.26s.13.35.13.61c0,.18.1.55.14.68l.11.36Z"/>
    <path class="st12" d="M24.02,33.02s.15-.38.03-.59c-.12-.21-.36-.36-.36-.36,0,0,.06.3.12.51.06.21.21.45.21.45"/>
    <path class="st27" d="M24.05,33.31l-.14-.22s-.16-.26-.22-.48c-.06-.21-.12-.51-.12-.52l-.05-.29.25.16s.27.17.4.41c.15.25,0,.66-.02.7l-.09.24Z"/>
    <path class="st12" d="M24.98,34.42s.12-.15.12-.42-.15-.45-.15-.45c0,0-.18.21-.18.39s.12.48.12.48h.09Z"/>
    <path class="st27" d="M25.04,34.55h-.24l-.03-.08s-.13-.33-.13-.53c0-.22.19-.45.21-.48l.1-.12.1.12s.18.22.18.53-.13.48-.15.5l-.04.05Z"/>
    <path class="st12" d="M23.52,36.72s-.3-.15-.36-.33c-.06-.18-.3-.15-.12.18.18.33.42.39.42.39l.03-.3.03.06Z"/>
    <path class="st27" d="M23.57,37.12l-.15-.04s-.3-.08-.5-.45c-.09-.16-.11-.29-.05-.39.09-.15.34-.09.41.1.01.04.05.08.09.12l.03-.27.22.43h0s.18.37.18.37l-.21-.1-.02.22Z"/>
    <path class="st12" d="M24.8,36.45s-.15-.24-.35-.36c-.21-.12-.54-.12-.54-.12,0,0,.18.27.36.38.18.13.54.1.54.1"/>
    <path class="st27" d="M24.7,36.59c-.15,0-.37-.02-.51-.12-.19-.13-.39-.41-.39-.42l-.14-.2h.25s.36,0,.6.13c.24.14.4.39.4.41l.11.18-.21.02s-.04,0-.11,0"/>
    <path class="st12" d="M25.87,35.44l.3-.33.3-.18s-.09.48-.27.66c-.17.18-.57.36-.57.36l.18-.47.06-.04Z"/>
    <path class="st27" d="M25.4,36.19l.31-.81.08-.05.31-.34.55-.32-.05.28c-.01.05-.1.52-.3.73-.19.2-.59.38-.61.38l-.29.13ZM25.92,35.56l-.04.11c.09-.05.17-.11.23-.17.06-.06.11-.18.15-.3h-.01s-.33.36-.33.36Z"/>
    <path class="st12" d="M25.45,35.8s-.27-.18-.5-.24c-.24-.06-.39.03-.39.03,0,0,.24.15.39.27.15.12.36.15.36.15l.15-.21Z"/>
    <path class="st27" d="M25.37,36.15h-.08s-.25-.05-.42-.19c-.15-.11-.38-.26-.38-.26l-.17-.11.17-.11s.12-.07.3-.07c.06,0,.13,0,.19.02.25.06.53.25.54.26l.11.07-.27.38Z"/>
    <path class="st12" d="M23.07,39.02s0-.27-.07-.48c-.06-.21-.15-.09-.15.15s.21.33.21.33"/>
    <path class="st27" d="M23.2,39.21l-.18-.08c-.11-.04-.29-.19-.29-.45s.08-.39.21-.39c.09,0,.16.07.19.21.07.22.07.5.07.51v.2Z"/>
    <path class="st12" d="M22.44,36.87s0-.26-.06-.48c-.06-.21-.15-.09-.15.15s.21.33.21.33"/>
    <path class="st27" d="M22.57,37.06l-.18-.07c-.11-.04-.29-.19-.29-.45,0-.24.08-.38.21-.38.09,0,.16.07.19.2.07.23.07.5.07.51v.2Z"/>
    <path class="st12" d="M23.7,38.57s-.24-.09-.48-.15c-.24-.06-.42-.03-.42-.03,0,0,.3.26.53.33.24.06.48.06.48.06l-.12-.21Z"/>
    <path class="st27" d="M24.04,38.91h-.23s-.26,0-.51-.06c-.26-.07-.56-.33-.59-.36l-.2-.18.26-.05s.05,0,.14,0c.11,0,.22.01.33.04.25.06.48.15.49.15l.04.02.26.44Z"/>
    <path class="st12" d="M22.35,38.48s.03-.12-.02-.45c-.07-.33-.3-.36-.3-.36,0,0,.06.18.06.36s.09.45.09.45h.18Z"/>
    <path class="st27" d="M22.45,38.61h-.37l-.03-.09s-.1-.29-.1-.49c0-.15-.06-.31-.06-.31l-.07-.2.21.03s.33.05.41.46c.06.34.03.48.02.51l-.02.1Z"/>
    <path class="st12" d="M21.79,38.24s-.27.06-.6.12c-.33.06-.48.24-.48.24,0,0,.24.12.42.09.18-.03.6-.24.6-.24l.06-.21Z"/>
    <path class="st27" d="M21.07,38.83c-.2,0-.4-.1-.42-.11l-.15-.07.11-.13s.18-.21.56-.28c.32-.06.6-.12.6-.12l.21-.05-.14.47-.05.02s-.44.22-.63.25c-.03,0-.06,0-.08,0"/>
    <polygon class="st27" points="21.99 36.7 21.33 36.67 21.34 36.41 22 36.44 21.99 36.7"/>
    <rect class="st27" x="22.41" y="37.16" width=".56" height=".26"/>
    <path class="st12" d="M22.35,36.93s-.3-.09-.56-.09-.75.06-.19.21c.57.15.75-.12.75-.12"/>
    <path class="st27" d="M21.92,37.22h0c-.11,0-.23-.02-.35-.05-.16-.04-.38-.1-.36-.27,0-.07.03-.2.58-.2.28,0,.59.09.6.09l.16.05-.09.14s-.16.22-.54.22"/>
    <path class="st12" d="M22.83,37.17s.06-.3.06-.54-.24-.69-.24-.69v.63c0,.24.18.6.18.6"/>
    <path class="st27" d="M22.88,37.57l-.17-.34s-.19-.4-.19-.65v-.63l.24-.06s.25.49.25.75-.06.55-.06.56l-.07.37Z"/>
    <path class="st12" d="M21.25,35.83s.14-.21.18-.45c.02-.24-.12-.48-.12-.48,0,0-.12.18-.12.39s.03.48.03.48l.03.06Z"/>
    <path class="st27" d="M21.24,36.07l-.15-.29s-.03-.29-.03-.49c0-.25.14-.45.14-.46l.11-.17.11.17s.17.28.14.56c-.04.27-.2.5-.2.51l-.12.17Z"/>
    <path class="st12" d="M22.47,34.78s-.21,0-.38-.15c-.18-.15-.66-.21-.54-.03.12.18.27.27.51.27s.42-.09.42-.09"/>
    <path class="st27" d="M22.05,35c-.27,0-.46-.1-.61-.32-.06-.1-.04-.17-.02-.2.04-.07.12-.11.24-.11.15,0,.38.06.51.17.14.12.3.12.3.12l.06.24s-.21.1-.48.1"/>
    <path class="st12" d="M23.13,35.44s0,.06-.27.21c-.27.15-.21.45.06.27.27-.18.21-.48.21-.48"/>
    <path class="st27" d="M22.77,36.1h0c-.1,0-.18-.06-.21-.16-.04-.14.06-.31.23-.41.18-.1.21-.15.22-.15l.06.05.18-.02s.08.39-.26.61c-.08.05-.15.08-.22.08"/>
    <path class="st12" d="M22.09,34.07s-.18-.09-.39-.06c-.21.03-.21.3.09.27.3-.03.3-.21.3-.21"/>
    <path class="st27" d="M21.74,34.41c-.21,0-.32-.13-.32-.25,0-.14.11-.26.26-.28.03,0,.07,0,.1,0,.19,0,.34.07.36.08l.07.04v.08s0,.3-.41.34c-.02,0-.04,0-.06,0"/>
    <path class="st12" d="M23.96,32.99s-.23-.09-.41-.18c-.18-.09-.51,0-.18.23.33.24.48.27.63.27s-.03-.41-.03-.41v.09Z"/>
    <path class="st27" d="M23.99,33.44c-.19,0-.37-.05-.7-.29-.16-.11-.22-.23-.18-.34.03-.1.14-.16.29-.16.07,0,.15.02.22.05.15.07.34.15.39.17l.08-.02c.08.17.15.4.07.52-.03.05-.09.08-.15.08M23.4,32.91s.02.02.04.03c.25.18.38.23.48.24,0-.02-.01-.05-.02-.08-.06-.02-.25-.1-.41-.17-.03-.01-.06-.02-.09-.02"/>
    <path class="st12" d="M23.55,35.2l.3-.54s0,.42-.09.69c-.09.27-.27.36-.27.36v-.51h.06Z"/>
    <path class="st27" d="M23.36,35.92v-.85h.12l.26-.47.24.06s0,.44-.1.73c-.1.31-.31.42-.33.43l-.19.1Z"/>
    <path class="st12" d="M24.2,38.81s.18-.21.15-.45c-.03-.24-.12-.6-.12-.6,0,0-.15.18-.18.42-.02.24.16.63.16.63"/>
    <path class="st27" d="M24.17,39.05l-.08-.19s-.19-.43-.17-.7c.04-.28.2-.48.21-.49l.16-.19.06.24s.1.37.13.62c.03.29-.17.54-.18.55l-.13.16Z"/>
    <path class="st12" d="M23.7,37.92s.18,0,.27-.24c.09-.23-.03-.51-.03-.51,0,0-.21.18-.21.33s-.03.48-.03.48v-.06Z"/>
    <path class="st27" d="M23.56,38.06v-.27h.02c0-.1.02-.22.02-.29,0-.2.21-.39.25-.43l.13-.11.07.16s.14.32.03.6c-.08.22-.25.31-.37.32h-.15Z"/>
    <path class="st12" d="M24.59,37.86s-.27-.39-.39-.39.15.39.21.6c.06.21.27.24.27.24l-.09-.45Z"/>
    <path class="st27" d="M24.85,38.46l-.18-.03c-.11-.02-.31-.1-.38-.33-.02-.07-.07-.17-.11-.26-.1-.2-.17-.33-.11-.43l.04-.06h.1c.13-.01.29.14.5.43l.02.05.13.63Z"/>
    <path class="st12" d="M23.55,36.78s.08.18.27-.06c.18-.24.24-.27.24-.27,0,0,0,.3-.09.44-.09.15-.41.18-.41.18l-.03-.36.03.06Z"/>
    <path class="st27" d="M23.43,37.22l-.05-.49.24-.07.03.05s.03-.03.06-.07c.09-.12.21-.27.28-.31l.19-.09v.21s0,.34-.11.51c-.11.19-.44.23-.51.24h-.13Z"/>
    <path class="st12" d="M23.49,34.45s.15-.06.18-.33c.03-.27-.12-.42-.12-.42,0,0-.12.18-.12.33s.06.42.06.42"/>
    <path class="st27" d="M23.39,34.63l-.03-.15s-.07-.28-.07-.45c0-.18.13-.38.14-.4l.09-.13.11.12s.19.2.15.53c-.04.33-.24.42-.26.43l-.14.06Z"/>
    <path class="st12" d="M24.74,36.96s-.24-.09-.48-.09-.36.06-.36.06c0,0-.12.03.27.18.39.14.57.11.57.11v-.27Z"/>
    <path class="st27" d="M24.69,37.36c-.09,0-.27-.02-.57-.13-.25-.1-.38-.17-.37-.3v-.09s.12-.04.12-.04h0s.13-.06.39-.06.51.09.52.1l.08.03v.47l-.11.02s-.02,0-.07,0"/>
    <path class="st12" d="M25.25,34.99s-.66.14-.87-.15c-.21-.3-.3-.42.03-.33.33.09.84.48.84.48"/>
    <path class="st27" d="M24.9,35.16c-.3,0-.51-.08-.63-.24l-.03-.05c-.14-.21-.22-.32-.16-.42.02-.05.08-.13.36-.06.35.09.86.48.88.5l.22.17-.27.06s-.17.04-.37.04M24.4,34.65s.04.05.05.08l.03.05c.06.08.2.13.4.13-.15-.1-.34-.21-.49-.25"/>
    <path class="st12" d="M24.83,34.48s-.66-.09-.75-.21c-.09-.12,0-.27.21-.18.21.09.6.34.6.34l-.06.06Z"/>
    <path class="st27" d="M24.87,34.62h-.06c-.33-.05-.73-.13-.83-.27-.07-.09-.08-.19-.04-.28.06-.12.22-.17.39-.1.22.1.6.33.62.34l.14.09-.23.22Z"/>
    <path class="st12" d="M24.47,34.01s-.57.09-.74-.21c-.18-.3-.21-.24.12-.15.33.09.62.36.62.36"/>
    <path class="st27" d="M24.28,34.15c-.33,0-.56-.1-.67-.29-.04-.06-.06-.1-.09-.14-.05-.08-.09-.14-.05-.21l.04-.07h.09s.06,0,.12.02c.04.01.09.03.16.05.36.1.66.38.68.39l.2.18-.27.04s-.09.01-.2.01"/>
    <path class="st12" d="M25.45,33.29s.33-.09.33-.33-.09-.62-.09-.62c0,0-.21.26-.21.41s-.03.54-.03.54"/>
    <path class="st27" d="M25.31,33.46l.02-.18s.03-.38.03-.53c0-.18.18-.42.24-.5l.17-.21.06.26s.09.4.09.65c0,.27-.27.41-.43.45l-.18.05Z"/>
    <path class="st12" d="M25.36,33.31s.12-.5,0-.71c-.12-.21-.27-.3-.27-.3,0,0-.12.48-.03.62.09.15.3.39.3.39"/>
    <path class="st27" d="M25.43,33.59l-.16-.19s-.22-.25-.31-.4c-.11-.18-.01-.6.02-.72l.04-.17.15.09s.18.11.31.34c.14.24.04.72.01.81l-.06.24Z"/>
    <path class="st12" d="M25.31,33.17s-.27-.15-.48-.21c-.21-.06-.27.18.06.33.33.15.42-.12.42-.12"/>
    <path class="st27" d="M25.07,33.46h0c-.07,0-.15-.02-.24-.06-.26-.12-.33-.29-.3-.41.03-.13.16-.21.33-.16.22.07.5.21.51.22l.1.05-.03.1c-.03.09-.14.25-.36.25"/>
    <path class="st12" d="M26.5,32.43s.21-.06.27-.33c.06-.27-.12-.48-.12-.48,0,0-.21.15-.21.33s.06.48.06.48"/>
    <path class="st27" d="M26.4,32.59l-.03-.14s-.06-.32-.06-.51c0-.23.23-.41.26-.43l.1-.07.08.09s.23.26.15.6c-.07.34-.35.42-.36.43l-.14.04Z"/>
    <path class="st12" d="M26.23,32.99s.09-.09.36-.18c.27-.09.54-.18.54-.18,0,0-.24.36-.48.45-.24.09-.5.12-.5.12l.09-.21Z"/>
    <path class="st27" d="M25.94,33.36l.2-.46s.12-.11.41-.21c.27-.09.54-.18.54-.18l.36-.12-.21.31s-.27.39-.55.49c-.25.09-.52.13-.53.13l-.22.03Z"/>
    <path class="st12" d="M28.5,35.23s.33-.12.48-.33c.15-.21.15-.39.15-.39,0,0-.3.12-.44.3-.15.18-.18.42-.18.42"/>
    <path class="st27" d="M28.35,35.43l.03-.21s.04-.28.21-.49c.17-.2.48-.33.5-.34l.18-.07v.19s0,.23-.17.46c-.17.24-.52.37-.54.38l-.2.08Z"/>
    <path class="st12" d="M29.16,37.55s.27.03.48-.15c.21-.17.24-.51.24-.51,0,0-.3.15-.42.27-.12.12-.18.39-.18.39h-.12Z"/>
    <path class="st27" d="M29.11,37.7l.04-.18s0,0,0-.02v-.08h.02c.03-.1.09-.26.19-.35.13-.13.42-.28.45-.3l.21-.11-.02.23s-.03.39-.28.6c-.11.1-.23.14-.34.17h0s-.27.03-.27.03Z"/>
    <path class="st12" d="M25.72,38.33s0-.33-.03-.51c-.03-.17-.09-.38-.09-.38,0,0-.21.42-.18.62.02.21.15.42.15.42l.15-.15Z"/>
    <path class="st27" d="M25.55,38.7l-.09-.15s-.13-.24-.16-.47c-.04-.23.15-.62.19-.7l.15-.3.09.32s.06.21.09.39c.03.2.03.52.03.53v.05l-.3.32Z"/>
    <path class="st12" d="M26.12,38.03s.03-.15.06-.38c.03-.25-.03-.42-.03-.42,0,0-.3.15-.24.51.06.35.21.24.21.24v.06Z"/>
    <path class="st27" d="M26.06,38.12c-.1,0-.23-.06-.28-.36-.06-.36.18-.58.31-.65l.13-.06.05.14s.07.21.03.48c-.03.24-.06.39-.06.39h-.07s.02.02.02.02c-.01.01-.06.04-.13.04"/>
    <path class="st12" d="M26.68,37.38s.27-.51.03-.39c-.24.12-.3.3-.3.3l.27.09Z"/>
    <path class="st27" d="M26.74,37.53l-.5-.17.04-.12s.09-.23.36-.37c.12-.06.21-.04.26.05.02.04.08.14-.12.52l-.05.1Z"/>
    <path class="st12" d="M26.47,36.01s.17-.48.15-.6c-.03-.12-.15-.08-.27.21-.12.3-.06.6-.06.6l.18-.21Z"/>
    <path class="st27" d="M26.21,36.5l-.05-.26s-.07-.34.06-.67c.1-.24.21-.35.33-.35.07,0,.15.04.19.16.03.14-.08.49-.15.68l-.02.04-.35.41Z"/>
    <path class="st12" d="M26.03,36.42v-.26s-.21.06-.21.23.21.09.21.09v-.06Z"/>
    <path class="st27" d="M25.92,36.63c-.14,0-.24-.1-.24-.24,0-.22.2-.33.31-.36l.16-.04v.58l-.08.04s-.08.03-.16.03"/>
    <rect class="st27" x="20.38" y="35.52" width=".54" height=".26"/>
    <path class="st12" d="M25.9,38.66s.27-.06.48-.21c.21-.15.3-.33.3-.33,0,0-.53.09-.63.18-.09.09-.15.36-.15.36"/>
    <path class="st27" d="M25.73,38.83l.05-.2c.01-.05.07-.3.18-.42.11-.1.49-.18.7-.22l.25-.04-.12.23s-.11.21-.34.37c-.23.17-.52.23-.53.23l-.2.04Z"/>
    <path class="st12" d="M27.3,36.09s-.21-.15-.33-.42c-.11-.27-.18-.51-.18-.51,0,0,.31.08.42.3.15.3.06.69.06.69l.03-.06Z"/>
    <path class="st27" d="M27.38,36.33l-.18-.14c-.07-.06-.24-.21-.35-.45-.12-.28-.18-.52-.18-.53l-.05-.21.21.06s.37.1.5.36c.11.21.11.46.09.61l.02.02-.05.14-.02.14Z"/>
    <path class="st12" d="M27.13,37.02s.39.03.62-.12c.24-.15.63-.39.42-.39s-.75.18-.75.18l-.3.33Z"/>
    <path class="st27" d="M27.21,37.15c-.06,0-.09,0-.09,0l-.26-.02.49-.55h.03c.06-.03.56-.2.79-.2.14,0,.17.08.18.12.04.14-.09.24-.53.51-.19.12-.47.14-.61.14"/>
    <path class="st12" d="M27.25,34.72s-.09-.24-.36-.3c-.27-.07-.3.12-.06.33.24.21.47-.03.47-.03h-.05Z"/>
    <path class="st27" d="M27.04,34.97c-.11,0-.21-.04-.3-.12-.17-.14-.24-.3-.19-.42.02-.05.12-.19.37-.13.22.05.35.2.41.29h.29l-.22.22s-.16.16-.36.16"/>
    <path class="st12" d="M25.36,34.99s.12-.09.09-.36c-.03-.27-.12-.39-.12-.39l-.12.3.15.45Z"/>
    <path class="st27" d="M25.3,35.21l-.22-.67.22-.55.14.17s.12.16.15.46c.04.33-.12.46-.14.48l-.14.11Z"/>
    <path class="st12" d="M25.84,35.17s-.39-.18-.24-.78c.15-.6.18.12.18.12l.06.66Z"/>
    <path class="st27" d="M25.99,35.38l-.2-.09c-.17-.08-.45-.37-.31-.93.05-.18.1-.34.23-.34s.19.13.21.48l.08.88Z"/>
    <path class="st12" d="M26.03,34.48s.21.06.44-.21c.24-.27.27-.51.27-.51l-.42.24-.29.48Z"/>
    <path class="st27" d="M26.08,34.62s-.07,0-.09,0l-.16-.05.43-.67.64-.37-.03.25s-.04.28-.3.58c-.2.22-.39.26-.49.26"/>
    <path class="st12" d="M27.27,34.45s.03-.18,0-.39c-.02-.21-.18-.27-.18-.27l-.03.36.21.3Z"/>
    <path class="st27" d="M27.35,34.79l-.42-.6.05-.58.16.07c.08.03.23.15.26.37.03.22,0,.42,0,.42l-.05.31Z"/>
    <path class="st12" d="M27.69,36.12s0,.12.36.15c.36.03.54-.12.54-.12,0,0-.3-.15-.42-.15s-.48.12-.48.12"/>
    <path class="st27" d="M28.14,36.41h0s-.06,0-.1,0c-.43-.04-.48-.21-.48-.28v-.09l.09-.03c.06-.02.39-.12.52-.12s.4.13.48.17l.18.09-.16.13s-.2.15-.53.15"/>
    <path class="st12" d="M27.48,38.33s.12-.33.12-.47-.03-.42-.03-.42c0,0-.24.23-.24.42s.15.47.15.47"/>
    <path class="st27" d="M27.5,38.66l-.13-.27s-.16-.33-.16-.53c0-.23.23-.46.28-.51l.19-.19.03.26s.03.27.03.43c0,.17-.12.49-.13.52l-.1.28Z"/>
    <path class="st12" d="M28.47,37.92s.24-.24.32-.39c.09-.15.21-.39.21-.39,0,0-.3.15-.39.26-.09.13-.14.57-.14.57v-.06Z"/>
    <path class="st27" d="M28.29,38.29l.07-.44c.04-.26.09-.43.15-.52.11-.14.38-.28.44-.3l.34-.17-.17.34s-.12.24-.21.4c-.07.12-.23.29-.3.37v.03s-.02,0-.02,0c0,0,0,0,0,0l-.28.3Z"/>
    <path class="st12" d="M26.97,38.63l-.06-.45s-.11.18-.11.33.09.39.09.39l.09-.27Z"/>
    <path class="st27" d="M26.89,39.3l-.13-.36s-.09-.27-.09-.43c0-.18.12-.38.14-.4l.19-.3.11.83-.21.66Z"/>
    <path class="st12" d="M27.99,38.27s.21.09.36.18c.15.09.3.24.3.24,0,0-.42-.09-.63-.21-.21-.12-.12-.21-.12-.21h.09Z"/>
    <path class="st27" d="M29.04,38.91l-.42-.09s-.44-.09-.67-.22c-.12-.07-.19-.15-.2-.24-.01-.08.02-.14.05-.17l.04-.04h.2s.22.11.37.2c.16.1.32.26.33.26l.3.31Z"/>
    <path class="st12" d="M26.74,39.41s.21.06.45.18c.24.12.45.12.45.12,0,0-.15-.3-.3-.33-.15-.03-.54.06-.54.06l-.06-.03Z"/>
    <path class="st27" d="M27.84,39.83h-.21s-.24,0-.5-.13c-.12-.06-.23-.11-.32-.14h-.01s-.13-.05-.13-.05l-.33-.11.41-.09v-.03s.03,0,.07.02c.13-.03.4-.08.53-.05.2.04.35.31.39.4l.1.19Z"/>
    <path class="st12" d="M27.72,39.2s-.09.27.24.27.6-.03.42-.09c-.18-.06-.59-.17-.59-.17h-.06Z"/>
    <path class="st27" d="M27.96,39.6c-.15,0-.26-.05-.32-.14-.09-.13-.05-.28-.04-.3l.03-.09h.19s.42.12.6.18c.14.05.15.13.14.18-.02.11-.11.16-.6.16"/>
    <path class="st12" d="M28.38,38.96s.12.09.39.15c.27.06.42-.12.42-.12,0,0-.33-.18-.45-.18s-.27.06-.27.06l-.09.09Z"/>
    <path class="st27" d="M28.87,39.25h0s-.09,0-.13-.01c-.29-.07-.42-.16-.44-.17l-.13-.09.25-.22s.17-.07.32-.07.43.15.51.19l.14.08-.1.12c-.06.07-.21.18-.42.18"/>
    <path class="st12" d="M28.08,38v-.39s-.15.09-.24.3c-.09.21-.12.33-.12.33l.33-.3.03.06Z"/>
    <path class="st27" d="M27.47,38.64l.12-.43s.04-.13.13-.35c.1-.24.27-.35.29-.36l.2-.12v.62l-.09.02v.02s-.65.6-.65.6Z"/>
    <path class="st12" d="M28.02,38.9s-.3-.18-.72-.06c-.42.11-.47.11-.06.14.42.03.87-.06.87-.06l-.09-.03Z"/>
    <path class="st27" d="M27.44,39.12c-.07,0-.13,0-.2,0-.31-.02-.39-.03-.4-.15-.01-.12.07-.15.32-.21l.11-.03c.11-.03.22-.05.33-.05.29,0,.48.12.49.12l.07.02-.02.25s-.34.07-.7.07"/>
    <path class="st12" d="M28.23,35.35s.12-.18.18-.36c.06-.18,0-.36-.12-.18-.12.18-.18.75-.18.75l.12-.21Z"/>
    <path class="st27" d="M28.23,35.62l-.24-.08c0-.06.07-.61.2-.81.11-.16.26-.17.34-.06.07.1.05.25.01.35-.06.19-.19.38-.19.39l-.11.2Z"/>
    <polygon class="st27" points="27.18 36.68 26.79 36.41 26.93 36.19 27.32 36.47 27.18 36.68"/>
    <path class="st7" d="M15.46,14.48s-.72-.38.12-1.04c.83-.66,5.67-2,9.58-1.85,3.91.15,8.52.78,9.94,2.03.51.45.26,1,.12,1.17-.21.24-.21.27-.21.27l.39.78-.59.39s-.09.38-.09.54.45.59-.24.92c-.69.33-4.78,1.31-9.25,1.31-5.14,0-8.6-1.07-8.6-1.07,0,0-.98-.33-1.11-.63-.12-.29.33-.44.36-.56.02-.13-.18-.39-.18-.39l-.57-.48.45-.75-.12-.63Z"/>
    <path class="st27" d="M25.22,19.12c-5.1,0-8.6-1.07-8.63-1.08-.18-.06-1.05-.37-1.19-.71-.11-.29.14-.48.27-.58.03-.03.08-.06.09-.08,0-.01-.08-.15-.17-.26l-.63-.53.48-.8-.1-.53c-.09-.07-.28-.22-.3-.47-.02-.25.13-.5.45-.76.87-.68,5.69-2.02,9.67-1.88,3.88.15,8.55.77,10.02,2.06.56.49.33,1.12.13,1.35-.09.1-.13.16-.16.19l.41.81-.65.42c-.03.13-.08.36-.08.46,0,0,.02.05.04.09.09.19.3.64-.35.95-.68.32-4.76,1.33-9.31,1.33M15.3,15.83l.48.41c.09.11.26.35.23.52-.03.09-.1.14-.18.21-.16.12-.22.19-.19.28.06.15.58.41,1.03.56.03,0,3.5,1.07,8.56,1.07,4.51,0,8.54-.99,9.2-1.3.41-.2.32-.41.22-.61-.03-.07-.06-.13-.06-.19,0-.17.09-.53.1-.57v-.05s.55-.36.55-.36l-.35-.73s0-.08.24-.35c.09-.11.35-.59-.11-.98-1.42-1.25-6.2-1.86-9.86-2-3.85-.14-8.68,1.18-9.5,1.82-.24.19-.37.38-.35.53.02.18.21.29.22.3l.05.03.14.74-.41.69Z"/>
    <path class="st1" d="M17.46,17.02c1.96-.47,3.61-.98,7.76-.98s7.76,1.02,7.76,1.02c0,0,2,.23.06.71-1.94.48-4.69.99-7.76.99s-7.7-.9-7.7-.9c0,0-2.09-.36-.12-.84"/>
    <path class="st27" d="M25.28,18.89c-3.05,0-7.68-.89-7.73-.9-.39-.07-1.06-.23-1.07-.54,0-.22.27-.39.94-.55l.54-.13c1.78-.44,3.47-.86,7.25-.86,4.12,0,7.76,1.01,7.79,1.02.44.05.99.17,1,.43.01.21-.25.36-.95.53-2.67.66-5.29.99-7.79.99M25.22,16.17c-3.75,0-5.42.41-7.19.85l-.54.13c-.69.17-.75.29-.75.3.04.07.45.22.86.29.05,0,4.65.9,7.68.9,2.48,0,5.09-.33,7.73-.99.52-.13.68-.22.73-.26-.1-.07-.44-.15-.78-.19-.06-.01-3.66-1.02-7.74-1.02"/>
    <path class="st27" d="M35.22,14.67s-2.69-2.21-10.03-2.21-9.62,2.09-9.64,2.11l-.18-.19c.09-.09,2.36-2.18,9.82-2.18s10.09,2.17,10.2,2.27l-.17.2Z"/>
    <path class="st27" d="M35.13,14.82s-2.61-2.12-9.95-2.12-9.56,2.06-9.58,2.08l-.18-.19c.09-.09,2.31-2.15,9.76-2.15s10.01,2.09,10.11,2.18l-.17.2Z"/>
    <path class="st27" d="M34.69,16.88s-3.65-1.58-9.3-1.58c-.06,0-.11,0-.17,0-6.22.03-9.25,1.52-9.28,1.54l-.12-.23s3.11-1.54,9.4-1.57h.17c5.71,0,9.37,1.58,9.4,1.6l-.1.24Z"/>
    <path class="st27" d="M15.63,17.17l-.11-.23s3.41-1.62,9.7-1.65h.17c5.71,0,9.37,1.58,9.4,1.6l-.1.24s-3.65-1.58-9.3-1.58h-.17c-6.22.03-9.56,1.61-9.59,1.63"/>
    <path class="st27" d="M17.86,14.55c-.2,0-.35-.16-.35-.35s.16-.35.35-.35.35.16.35.35-.16.35-.35.35"/>
    <path class="st27" d="M21.95,13.69c-.2,0-.35-.16-.35-.35s.16-.35.35-.35.36.16.36.35-.16.35-.36.35"/>
    <path class="st27" d="M22.12,15.15c-.19,0-.35-.16-.35-.35s.16-.35.35-.35.36.16.36.35-.16.35-.36.35"/>
    <path class="st27" d="M18.08,15.87c-.19,0-.35-.16-.35-.35s.16-.35.35-.35.36.16.36.35-.16.35-.36.35"/>
    <path class="st27" d="M28.44,13.75c-.2,0-.35-.16-.35-.36s.16-.35.35-.35.35.16.35.35-.16.36-.35.36"/>
    <path class="st27" d="M28.5,15.12c-.2,0-.35-.16-.35-.35s.15-.35.35-.35.35.16.35.35-.16.35-.35.35"/>
    <path class="st27" d="M32.56,15.75c-.2,0-.35-.15-.35-.35s.16-.35.35-.35.35.16.35.35-.16.35-.35.35"/>
    <path class="st27" d="M32.83,14.55c-.2,0-.35-.15-.35-.35s.16-.35.35-.35.35.16.35.35-.16.35-.35.35"/>
    <path class="st25" d="M19.22,14.51c-.02-.25.35-.49.84-.54.49-.05.91.1.94.35.03.25-.35.49-.84.54-.49.05-.92-.11-.94-.35"/>
    <path class="st27" d="M19.99,15c-.5,0-.87-.2-.89-.48-.03-.33.38-.62.96-.68.59-.07,1.05.14,1.08.46.01.1-.02.21-.09.3-.16.19-.48.34-.86.38-.07,0-.13.01-.19.01M20.25,14.09c-.06,0-.11,0-.17,0-.47.05-.74.27-.73.4.01.12.27.25.64.25.05,0,.11,0,.16,0,.35-.04.59-.17.68-.29.03-.04.04-.08.04-.11-.01-.12-.25-.24-.62-.24"/>
    <path class="st27" d="M19.95,15.15c-.6,0-1.03-.25-1.06-.61-.02-.13.03-.27.13-.4.19-.24.58-.42,1.01-.46.69-.07,1.24.2,1.29.6.04.41-.46.78-1.14.85-.07,0-.15.01-.22.01M20.23,13.93c-.06,0-.12,0-.18.01-.36.04-.68.18-.83.36-.06.07-.08.14-.07.21.02.24.47.43,1,.37.57-.06.93-.34.91-.57-.03-.22-.38-.38-.82-.38"/>
    <path class="st25" d="M29.54,14.21c.03-.24.46-.39.95-.32.49.07.86.32.83.57-.03.25-.46.39-.95.32-.49-.07-.86-.32-.82-.57"/>
    <path class="st27" d="M30.6,14.93c-.08,0-.17,0-.25-.02-.37-.05-.7-.21-.84-.41-.07-.1-.1-.2-.09-.31.04-.32.51-.51,1.09-.42.37.05.7.2.84.41.07.1.1.2.09.31-.04.26-.37.44-.84.44M30.24,14.01c-.34,0-.56.12-.57.22,0,.04,0,.08.04.12.11.14.37.26.67.31.07.01.15.02.22.02.35,0,.57-.11.59-.22,0-.04,0-.07-.04-.12-.09-.12-.33-.26-.67-.3-.08-.01-.16-.02-.23-.02"/>
    <path class="st27" d="M30.59,15.08c-.09,0-.19,0-.28-.02-.42-.06-.8-.25-.99-.5-.1-.13-.14-.27-.12-.4.06-.4.62-.65,1.31-.55.43.06.79.24.98.48.1.13.14.27.12.41-.05.34-.47.58-1.03.58M30.22,13.84c-.41,0-.73.15-.76.35,0,.07.01.14.07.21.14.19.46.35.82.4.52.07.98-.1,1.01-.34,0-.07-.01-.14-.07-.21-.14-.19-.46-.34-.81-.39-.09-.01-.17-.02-.25-.02"/>
    <polygon class="st6" points="23.57 13.89 25.16 12.96 26.74 13.95 25.22 14.7 23.57 13.89"/>
    <path class="st27" d="M25.22,14.84l-1.92-.94,1.86-1.09,1.84,1.15-1.78.88ZM23.85,13.88l1.37.67,1.25-.62-1.32-.82-1.31.77Z"/>
    <path class="st27" d="M25.23,15.02l-.06-.03-2.2-1.08,2.18-1.28,2.18,1.35-2.11,1.03ZM23.52,13.89l1.71.84,1.57-.77-1.65-1.02-1.64.96Z"/>
    <polygon class="st27" points="15.82 16.51 15.64 16.33 16.82 15.18 15.57 15.15 15.58 14.89 17.44 14.93 15.82 16.51"/>
    <polygon class="st27" points="34.67 16.53 33.42 15.26 35 14.78 35.07 15.03 33.9 15.38 34.86 16.34 34.67 16.53"/>
    <polygon class="st13" points="15.52 15.14 16.74 15.17 15.69 16.28 15.13 15.86 15.52 15.14"/>
    <path class="st27" d="M15.71,16.45l-.75-.55.48-.88,1.6.04-1.33,1.4ZM15.3,15.82l.38.28.77-.81-.85-.02-.3.55Z"/>
    <polygon class="st13" points="35.01 15.06 34.02 15.35 34.8 16.22 35.39 15.83 35.01 15.06"/>
    <path class="st27" d="M34.78,16.39l-.99-1.1,1.29-.39.49.97-.79.51ZM34.25,15.42l.57.64.4-.27-.29-.58-.69.21Z"/>
    <rect class="st24" x="25.04" y="13.41" width=".3" height=".42"/>
    <rect class="st27" x="24.91" y="13.28" width=".56" height=".68"/>
    <path class="st7" d="M24.73,14.27s.08-.01.1-.03c.02-.02.03-.04.03-.1v-.63c0-.06,0-.09-.03-.1,0,0-.05-.02-.1-.03v-.04h.46c.13,0,.22.02.28.06.07.04.1.11.1.21,0,.04-.02.09-.04.13-.02.04-.06.07-.12.1-.04.01-.09.03-.13.03-.04,0-.11,0-.19,0v.27c0,.06,0,.09.02.11.02.01.05.02.1.03v.04h-.48v-.04Z"/>
    <path class="st27" d="M25.33,14.44h-.74v-.29h.12s0-.64,0-.64c0,0,0,0-.01,0l-.11-.02v-.28h.59c.14,0,.26.02.34.07.08.05.17.14.17.32,0,.06-.02.13-.06.2-.04.07-.1.11-.18.16-.07.02-.13.04-.18.04-.02,0-.04,0-.07,0v.14h0s.12.01.12.01v.29Z"/>
    <path class="st7" d="M25.25,13.79s.06-.09.06-.19c0-.06,0-.12-.03-.16-.02-.04-.06-.06-.12-.06-.03,0-.05,0-.06.01,0,0-.02.02-.02.04v.39c.09,0,.14-.01.17-.03"/>
    <path class="st27" d="M25.08,13.95h-.13v-.52c0-.06.04-.11.06-.13.06-.05.11-.05.15-.05.11,0,.2.05.24.14.03.05.04.13.04.21,0,.09-.01.22-.12.29-.06.04-.13.05-.24.05"/>
    <path class="st25" d="M29.58,24.67c0-.6.48-1.09,1.08-1.09s1.09.49,1.09,1.09-.49,1.09-1.09,1.09-1.08-.49-1.08-1.09"/>
    <path class="st27" d="M30.67,25.9c-.67,0-1.21-.55-1.21-1.22s.54-1.22,1.21-1.22,1.22.55,1.22,1.22-.55,1.22-1.22,1.22M30.67,23.72c-.53,0-.95.43-.95.96s.43.96.95.96.96-.43.96-.96-.43-.96-.96-.96"/>
    <path class="st28" d="M46.61,45.81h-1.43l-.26.97s-.09.01-.14.02c-.05,0-.09,0-.14,0-.05,0-.1,0-.14,0s-.09-.01-.13-.02l1.23-4.19s.09-.01.15-.02c.05,0,.11,0,.16,0,.05,0,.1,0,.15,0,.05,0,.1.01.15.02l1.22,4.19s-.09.01-.14.02-.1,0-.15,0c-.05,0-.09,0-.14,0-.05,0-.09-.01-.13-.02l-.26-.97ZM45.32,45.29h1.15l-.58-2.14-.57,2.14Z"/>
    <path class="st28" d="M47.85,46.23c.09.04.2.08.31.1.11.02.23.04.34.04.08,0,.16-.01.23-.03.07-.02.14-.05.19-.09.05-.04.1-.09.13-.14.03-.06.05-.12.05-.19,0-.08-.01-.14-.04-.19-.03-.05-.06-.09-.11-.13-.04-.03-.09-.06-.15-.09-.06-.02-.12-.05-.19-.07l-.18-.08c-.22-.09-.39-.2-.49-.32-.1-.12-.15-.27-.15-.47,0-.26.08-.47.25-.63.17-.16.42-.23.75-.23.14,0,.27.02.4.04.13.03.25.06.34.1,0,.08-.02.16-.04.23-.02.08-.04.15-.07.22-.08-.03-.17-.06-.27-.09-.11-.03-.22-.04-.34-.04s-.24.03-.34.08c-.1.05-.15.14-.15.27,0,.07.01.12.04.17.03.05.06.09.1.12.04.03.09.06.14.08.05.02.11.05.18.07l.23.09c.08.03.16.07.24.11.08.04.14.1.19.16s.1.14.13.23c.03.09.05.2.05.33,0,.14-.03.28-.08.39-.05.12-.13.22-.22.3-.1.08-.21.15-.35.2-.14.05-.29.07-.45.07s-.32-.01-.44-.04c-.13-.02-.24-.06-.35-.1,0-.08.02-.16.04-.24.02-.08.05-.16.08-.24"/>
    <path class="st28" d="M50.06,46.23c.09.04.2.08.31.1.11.02.23.04.34.04.08,0,.16-.01.23-.03.07-.02.14-.05.19-.09.05-.04.1-.09.13-.14.03-.06.05-.12.05-.19,0-.08-.01-.14-.04-.19-.03-.05-.06-.09-.11-.13-.04-.03-.09-.06-.15-.09-.06-.02-.12-.05-.19-.07l-.18-.08c-.22-.09-.39-.2-.49-.32-.1-.12-.15-.27-.15-.47,0-.26.08-.47.25-.63.17-.16.42-.23.75-.23.14,0,.27.02.4.04.13.03.25.06.34.1,0,.08-.02.16-.04.23-.02.08-.04.15-.07.22-.08-.03-.17-.06-.27-.09-.11-.03-.22-.04-.34-.04s-.24.03-.34.08c-.1.05-.15.14-.15.27,0,.07.01.12.04.17.03.05.06.09.1.12.04.03.09.06.14.08.05.02.11.05.18.07l.23.09c.08.03.16.07.24.11.08.04.14.1.19.16s.1.14.13.23c.03.09.05.2.05.33,0,.14-.03.28-.08.39-.05.12-.13.22-.22.3-.1.08-.21.15-.35.2-.14.05-.29.07-.45.07s-.32-.01-.44-.04c-.13-.02-.24-.06-.35-.1,0-.08.02-.16.04-.24.02-.08.05-.16.08-.24"/>
    <path class="st28" d="M52.83,45.42c0,.33.08.57.23.72.14.15.36.23.64.23.25,0,.48-.05.71-.15.03.06.05.13.07.21.02.08.03.17.03.25-.11.05-.24.09-.38.12-.14.03-.29.04-.46.04-.24,0-.45-.04-.63-.11-.18-.07-.32-.18-.43-.32-.11-.14-.2-.3-.25-.49-.05-.19-.08-.4-.08-.62s.03-.43.08-.62c.05-.19.13-.36.23-.5.11-.14.24-.25.4-.34.16-.08.35-.13.56-.13.19,0,.35.04.49.11.14.07.26.17.35.29.1.12.17.27.22.44.05.17.07.35.07.55,0,.05,0,.11,0,.17,0,.06,0,.11,0,.15h-1.83ZM54.16,44.99c0-.11-.01-.21-.04-.31-.03-.1-.07-.19-.12-.26-.05-.07-.12-.13-.19-.18-.08-.04-.17-.07-.28-.07-.21,0-.38.07-.49.22-.11.14-.18.34-.21.6h1.33Z"/>
    <path class="st28" d="M55.27,46.23c.09.04.2.08.31.1.11.02.23.04.34.04.08,0,.16-.01.23-.03.07-.02.14-.05.19-.09.05-.04.1-.09.13-.14.03-.06.05-.12.05-.19,0-.08-.01-.14-.04-.19-.03-.05-.06-.09-.11-.13-.04-.03-.09-.06-.15-.09-.06-.02-.12-.05-.19-.07l-.18-.08c-.22-.09-.39-.2-.49-.32-.1-.12-.15-.27-.15-.47,0-.26.08-.47.25-.63.17-.16.42-.23.75-.23.14,0,.27.02.4.04.13.03.25.06.34.1,0,.08-.02.16-.04.23-.02.08-.04.15-.07.22-.08-.03-.17-.06-.27-.09-.11-.03-.22-.04-.34-.04s-.24.03-.34.08c-.1.05-.15.14-.15.27,0,.07.01.12.04.17.03.05.06.09.1.12.04.03.09.06.14.08.05.02.11.05.18.07l.23.09c.08.03.16.07.24.11.08.04.14.1.19.16s.1.14.13.23c.03.09.05.2.05.33,0,.14-.03.28-.08.39-.05.12-.13.22-.22.3-.1.08-.21.15-.35.2-.14.05-.29.07-.45.07s-.32-.01-.44-.04c-.13-.02-.24-.06-.35-.1,0-.08.02-.16.04-.24.02-.08.05-.16.08-.24"/>
    <path class="st28" d="M57.47,46.23c.09.04.2.08.31.1.11.02.23.04.34.04.08,0,.16-.01.23-.03.07-.02.14-.05.19-.09.05-.04.1-.09.13-.14.03-.06.05-.12.05-.19,0-.08-.01-.14-.04-.19-.03-.05-.06-.09-.11-.13-.04-.03-.09-.06-.15-.09-.06-.02-.12-.05-.19-.07l-.18-.08c-.22-.09-.39-.2-.49-.32-.1-.12-.15-.27-.15-.47,0-.26.08-.47.25-.63.17-.16.42-.23.75-.23.14,0,.27.02.4.04.13.03.25.06.34.1,0,.08-.02.16-.04.23-.02.08-.04.15-.07.22-.08-.03-.17-.06-.27-.09-.11-.03-.22-.04-.34-.04s-.24.03-.34.08c-.1.05-.15.14-.15.27,0,.07.01.12.04.17.03.05.06.09.1.12.04.03.09.06.14.08.05.02.11.05.18.07l.23.09c.08.03.16.07.24.11.08.04.14.1.19.16s.1.14.13.23c.03.09.05.2.05.33,0,.14-.03.28-.08.39-.05.12-.13.22-.22.3-.1.08-.21.15-.35.2-.14.05-.29.07-.45.07s-.32-.01-.44-.04c-.13-.02-.24-.06-.35-.1,0-.08.02-.16.04-.24.02-.08.05-.16.08-.24"/>
    <path class="st28" d="M60.95,46.84c-.21,0-.39-.04-.55-.12-.16-.08-.29-.19-.39-.33-.1-.14-.18-.31-.23-.5s-.08-.4-.08-.62.03-.43.08-.62c.05-.19.13-.36.23-.49.11-.14.24-.25.39-.33.16-.08.34-.12.55-.12s.39.04.55.12c.16.08.29.19.39.33.1.14.18.3.23.49.05.19.08.4.08.62s-.03.43-.08.62c-.05.19-.13.36-.23.5-.1.14-.24.25-.39.33-.16.08-.34.12-.55.12M60.95,46.39c.24,0,.42-.1.53-.29.12-.19.17-.46.17-.81s-.06-.62-.17-.81c-.11-.19-.29-.29-.53-.29s-.42.1-.53.29c-.11.19-.17.46-.17.81s.06.62.17.81c.11.19.29.29.53.29"/>
    <path class="st28" d="M62.83,43.79s.08-.01.11-.02c.04,0,.07,0,.11,0s.08,0,.12,0c.04,0,.07.01.11.02,0,.06.02.14.03.23,0,.1.02.18.02.24.07-.13.17-.25.29-.34.12-.1.27-.15.46-.15.03,0,.06,0,.09,0,.03,0,.05,0,.07,0,0,.04.01.07.02.11,0,.04,0,.08,0,.12,0,.05,0,.1,0,.15,0,.05-.01.1-.02.15-.03,0-.06-.01-.09-.01h-.07c-.09,0-.19.01-.27.04-.09.03-.16.08-.23.15-.07.07-.12.17-.16.3-.04.13-.06.29-.06.5v1.49s-.08.01-.13.02c-.05,0-.09,0-.13,0s-.08,0-.13,0c-.05,0-.09,0-.13-.02v-2.99Z"/>
    <path class="st28" d="M66.11,44.81c0-.23-.05-.39-.16-.48-.11-.09-.26-.13-.46-.13-.12,0-.24.01-.34.03-.11.02-.21.05-.31.08-.07-.13-.1-.28-.1-.46.12-.04.25-.08.39-.1.14-.02.28-.04.41-.04.35,0,.62.09.8.27.18.18.27.46.27.85v1.87c-.12.03-.27.06-.45.1-.18.03-.35.05-.54.05-.17,0-.33-.02-.46-.05-.14-.03-.26-.09-.35-.17-.1-.08-.17-.18-.22-.3-.05-.12-.08-.27-.08-.44s.03-.31.09-.44c.06-.13.15-.23.25-.32.1-.08.23-.15.36-.19.14-.04.28-.06.43-.06.11,0,.2,0,.28,0,.07,0,.13.01.18.02v-.11ZM66.11,45.37c-.05,0-.12-.02-.2-.02-.08,0-.15-.01-.2-.01-.22,0-.38.04-.5.13-.11.09-.17.23-.17.41,0,.12.02.21.06.27.04.07.09.12.15.15.06.04.12.06.19.06.07,0,.14.01.2.01.08,0,.16,0,.25-.01.08-.01.16-.02.23-.04v-.95Z"/>
    <path class="st28" d="M67.45,44.25h-.41l-.02-.08.9-1.12h.04v.74h.68c.01.07.02.14.02.22,0,.04,0,.08,0,.12,0,.04,0,.08-.02.12h-.68v1.36c0,.16,0,.29.02.39.01.1.03.17.06.22.03.05.07.09.12.1.05.02.11.03.19.03.06,0,.12,0,.17-.01.05,0,.1-.02.14-.03.02.08.04.16.04.24,0,.08,0,.15,0,.22-.07.02-.14.03-.22.04-.08.01-.16.02-.25.02-.25,0-.45-.07-.59-.2-.14-.14-.21-.36-.21-.68v-1.7Z"/>
    <path class="st28" d="M70.27,46.84c-.21,0-.39-.04-.55-.12-.16-.08-.29-.19-.39-.33-.1-.14-.18-.31-.23-.5s-.08-.4-.08-.62.03-.43.08-.62c.05-.19.13-.36.23-.49.11-.14.24-.25.39-.33.16-.08.34-.12.55-.12s.39.04.55.12c.16.08.29.19.39.33.1.14.18.3.23.49.05.19.08.4.08.62s-.03.43-.08.62c-.05.19-.13.36-.23.5-.1.14-.24.25-.39.33-.16.08-.34.12-.55.12M70.27,46.39c.24,0,.42-.1.53-.29.12-.19.17-.46.17-.81s-.06-.62-.17-.81c-.11-.19-.29-.29-.53-.29s-.42.1-.53.29c-.11.19-.17.46-.17.81s.06.62.17.81c.11.19.29.29.53.29"/>
    <path class="st28" d="M46.14,51.37c0-.23-.05-.39-.16-.48-.11-.09-.26-.13-.46-.13-.12,0-.24.01-.34.03-.11.02-.21.05-.31.08-.07-.13-.1-.28-.1-.46.12-.04.25-.08.39-.1.14-.02.28-.04.41-.04.35,0,.62.09.8.27.18.18.27.46.27.85v1.87c-.12.03-.27.06-.45.1-.18.03-.35.05-.54.05-.17,0-.33-.02-.46-.05-.14-.03-.26-.09-.35-.17-.1-.08-.17-.18-.22-.3-.05-.12-.08-.27-.08-.44s.03-.31.09-.44c.06-.13.15-.23.25-.32.1-.08.23-.15.36-.19.14-.04.28-.06.43-.06.11,0,.2,0,.28,0,.07,0,.13.01.18.02v-.11ZM46.14,51.93c-.05,0-.12-.02-.2-.02-.08,0-.15-.01-.2-.01-.22,0-.38.04-.5.13-.11.09-.17.23-.17.41,0,.12.02.21.06.27.04.07.09.12.15.15.06.04.12.06.19.06.07,0,.14.01.2.01.08,0,.16,0,.25-.01.08-.01.16-.02.23-.04v-.95Z"/>
    <path class="st28" d="M47.37,49.06s.08-.01.13-.02c.05,0,.09,0,.13,0,.04,0,.08,0,.13,0,.05,0,.09.01.13.02v3.37c0,.11,0,.19.03.26.02.06.04.11.07.14.03.03.06.05.1.06.04,0,.08.01.13.01.03,0,.07,0,.11,0,.04,0,.08,0,.1-.02.03.14.05.28.05.44-.05.02-.11.03-.18.04-.07,0-.13,0-.19,0-.1,0-.2-.01-.28-.04-.09-.03-.16-.07-.23-.13-.07-.06-.12-.15-.16-.25-.04-.1-.06-.23-.06-.39v-3.5Z"/>
    <path class="st28" d="M48.88,49.06s.08-.01.13-.02c.05,0,.09,0,.13,0,.04,0,.08,0,.13,0,.05,0,.09.01.13.02v3.37c0,.11,0,.19.03.26.02.06.04.11.07.14.03.03.06.05.1.06.04,0,.08.01.13.01.03,0,.07,0,.11,0,.04,0,.08,0,.1-.02.03.14.05.28.05.44-.05.02-.11.03-.18.04-.07,0-.13,0-.19,0-.1,0-.2-.01-.28-.04-.09-.03-.16-.07-.23-.13-.07-.06-.12-.15-.16-.25-.04-.1-.06-.23-.06-.39v-3.5Z"/>
    <path class="st28" d="M50.79,51.98c0,.33.08.57.23.72.14.15.36.23.64.23.25,0,.48-.05.71-.15.03.06.05.13.07.21.02.08.03.17.03.25-.11.05-.24.09-.38.12-.14.03-.29.04-.46.04-.24,0-.45-.04-.63-.11-.18-.07-.32-.18-.43-.32-.11-.14-.2-.3-.25-.49-.05-.19-.08-.4-.08-.62s.03-.43.08-.62c.05-.19.13-.36.23-.5.11-.14.24-.25.4-.34.16-.08.35-.13.56-.13.19,0,.35.04.49.11.14.07.26.17.35.29.1.12.17.27.22.44.05.17.07.35.07.55,0,.05,0,.11,0,.17,0,.06,0,.11,0,.15h-1.83ZM52.13,51.55c0-.11-.01-.21-.04-.31-.03-.1-.07-.19-.12-.26-.05-.07-.12-.13-.19-.18-.08-.04-.17-.07-.28-.07-.21,0-.38.07-.49.22-.11.14-.18.34-.21.6h1.33Z"/>
    <path class="st28" d="M54.52,49.14c.05,0,.11-.01.19-.02.07,0,.15-.01.22-.02.08,0,.16-.01.24-.02.08,0,.15,0,.23,0,.19,0,.38.02.55.06.17.04.33.12.46.22.13.1.24.24.31.42.08.17.12.39.12.65s-.04.5-.12.68c-.08.18-.19.33-.32.43-.14.11-.29.19-.46.23-.17.04-.35.07-.53.07-.07,0-.12,0-.18,0-.05,0-.11,0-.16-.02v1.52c-.08.01-.17.02-.27.02-.04,0-.09,0-.13,0-.05,0-.09,0-.13-.01v-4.2ZM55.05,51.3c.06,0,.1.01.15.02.04,0,.1,0,.18,0,.11,0,.22-.01.32-.04.11-.03.2-.07.29-.14.09-.07.15-.16.2-.27.05-.11.08-.26.08-.45,0-.16-.02-.29-.07-.4-.05-.11-.11-.2-.18-.26-.08-.07-.17-.11-.28-.14-.11-.03-.23-.04-.35-.04s-.24,0-.34.02v1.7Z"/>
    <path class="st28" d="M58.38,53.41c-.21,0-.39-.04-.55-.12-.16-.08-.29-.19-.39-.33-.1-.14-.18-.31-.23-.5s-.08-.4-.08-.62.03-.43.08-.62c.05-.19.13-.36.23-.49.11-.14.24-.25.39-.33.16-.08.34-.12.55-.12s.39.04.55.12c.16.08.29.19.39.33.1.14.18.3.23.49.05.19.08.4.08.62s-.03.43-.08.62c-.05.19-.13.36-.23.5-.1.14-.24.25-.39.33-.16.08-.34.12-.55.12M58.38,52.95c.24,0,.42-.1.53-.29.12-.19.17-.46.17-.81s-.06-.62-.17-.81c-.11-.19-.29-.29-.53-.29s-.42.1-.53.29c-.11.19-.17.46-.17.81s.06.62.17.81c.11.19.29.29.53.29"/>
    <path class="st28" d="M60.26,49.06s.08-.01.13-.02c.05,0,.09,0,.13,0,.04,0,.08,0,.13,0,.05,0,.09.01.13.02v3.37c0,.11,0,.19.03.26.02.06.04.11.07.14.03.03.06.05.1.06.04,0,.08.01.13.01.03,0,.07,0,.11,0,.04,0,.08,0,.1-.02.03.14.05.28.05.44-.05.02-.11.03-.18.04-.07,0-.13,0-.19,0-.1,0-.2-.01-.28-.04-.09-.03-.16-.07-.23-.13-.07-.06-.12-.15-.16-.25-.04-.1-.06-.23-.06-.39v-3.5Z"/>
    <path class="st28" d="M61.94,50.8h-.34s-.01-.07-.02-.11c0-.04,0-.08,0-.12s0-.08,0-.12c0-.04,0-.08.02-.11h.85v2.99s-.08.01-.13.02c-.05,0-.09,0-.13,0-.04,0-.08,0-.12,0-.05,0-.09-.01-.13-.02v-2.53ZM61.83,49.69s-.01-.1-.01-.15c0-.05,0-.1,0-.15s0-.09,0-.15c0-.05,0-.1.01-.15.05,0,.09-.01.15-.02.05,0,.1,0,.14,0,.04,0,.08,0,.14,0,.05,0,.1.01.14.02,0,.04,0,.09.01.15,0,.05,0,.1,0,.15s0,.09,0,.15c0,.05,0,.1-.01.15-.04,0-.09.01-.14.02-.05,0-.1,0-.13,0-.04,0-.09,0-.14,0-.05,0-.1-.01-.15-.02"/>
    <path class="st28" d="M63.35,50.81h-.41l-.02-.08.9-1.12h.04v.74h.68c.01.07.02.14.02.22,0,.04,0,.08,0,.12,0,.04,0,.08-.02.12h-.68v1.36c0,.16,0,.29.02.39.01.1.03.17.06.22.03.05.07.09.12.1.05.02.11.03.19.03.06,0,.12,0,.17-.01.05,0,.1-.02.14-.03.02.08.04.16.04.24,0,.08,0,.15,0,.22-.07.02-.14.03-.22.04-.08.01-.16.02-.25.02-.25,0-.45-.07-.59-.2-.14-.14-.21-.36-.21-.68v-1.7Z"/>
    <path class="st28" d="M65.24,50.8h-.34s-.01-.07-.02-.11c0-.04,0-.08,0-.12s0-.08,0-.12c0-.04,0-.08.02-.11h.85v2.99s-.08.01-.13.02c-.05,0-.09,0-.13,0-.04,0-.08,0-.12,0-.05,0-.09-.01-.13-.02v-2.53ZM65.12,49.69s-.01-.1-.01-.15c0-.05,0-.1,0-.15s0-.09,0-.15c0-.05,0-.1.01-.15.05,0,.09-.01.15-.02.05,0,.1,0,.14,0,.04,0,.08,0,.14,0,.05,0,.1.01.14.02,0,.04,0,.09.01.15,0,.05,0,.1,0,.15s0,.09,0,.15c0,.05,0,.1-.01.15-.04,0-.09.01-.14.02-.05,0-.1,0-.13,0-.04,0-.09,0-.14,0-.05,0-.1-.01-.15-.02"/>
    <path class="st28" d="M68.34,52.82c.03.05.05.12.07.2.02.08.03.16.04.25-.21.09-.44.13-.71.13-.45,0-.79-.14-1.01-.42s-.34-.66-.34-1.14c0-.22.03-.43.08-.62.06-.19.14-.36.25-.49.11-.14.25-.25.41-.33.17-.08.36-.12.57-.12.15,0,.28.01.39.03.11.02.22.05.32.09,0,.07,0,.14-.02.23-.02.09-.04.16-.07.23-.17-.07-.37-.1-.59-.1-.27,0-.47.1-.6.3-.13.2-.2.46-.2.79,0,.37.07.65.23.82.15.17.36.26.62.26.11,0,.2,0,.29-.02.09-.02.18-.04.27-.08"/>
    <path class="st28" d="M69,49.06s.08-.01.13-.02c.05,0,.09,0,.13,0,.04,0,.08,0,.13,0,.05,0,.09.01.13.02v1.74c.03-.05.07-.11.12-.18.05-.06.11-.12.17-.17.07-.05.15-.1.24-.13.09-.03.19-.05.3-.05.31,0,.54.1.69.3.15.2.22.49.22.87v1.89s-.08.01-.13.02c-.05,0-.09,0-.13,0s-.08,0-.13,0c-.05,0-.09,0-.13-.02v-1.74c0-.28-.04-.48-.12-.61-.08-.13-.21-.2-.38-.2-.09,0-.19.02-.27.05-.09.04-.16.1-.23.18-.07.08-.12.18-.16.31-.04.13-.06.28-.06.47v1.53s-.08.01-.13.02c-.05,0-.09,0-.13,0s-.08,0-.13,0c-.05,0-.09,0-.13-.02v-4.27Z"/>
    <path class="st28" d="M72.37,51.98c0,.33.08.57.23.72.14.15.36.23.64.23.25,0,.48-.05.71-.15.03.06.05.13.07.21.02.08.03.17.03.25-.11.05-.24.09-.38.12-.14.03-.29.04-.46.04-.24,0-.45-.04-.63-.11-.18-.07-.32-.18-.43-.32-.11-.14-.2-.3-.25-.49-.05-.19-.08-.4-.08-.62s.03-.43.08-.62c.05-.19.13-.36.23-.5.11-.14.24-.25.4-.34.16-.08.35-.13.56-.13.19,0,.35.04.49.11.14.07.26.17.35.29.1.12.17.27.22.44.05.17.07.35.07.55,0,.05,0,.11,0,.17,0,.06,0,.11,0,.15h-1.83ZM73.71,51.55c0-.11-.01-.21-.04-.31-.03-.1-.07-.19-.12-.26-.05-.07-.12-.13-.19-.18-.08-.04-.17-.07-.28-.07-.21,0-.38.07-.49.22-.11.14-.18.34-.21.6h1.33Z"/>
    <path class="st28" d="M78.27,51.17s.09-.01.13-.02c.05,0,.09,0,.14,0,.05,0,.09,0,.14,0,.05,0,.09.01.13.02v2.05c-.07.04-.15.07-.24.09-.09.03-.18.04-.27.06-.1.01-.19.02-.28.03-.09,0-.18,0-.27,0-.28,0-.53-.05-.76-.15-.23-.1-.41-.24-.57-.42-.15-.18-.27-.41-.35-.67-.08-.26-.12-.56-.12-.9s.04-.64.13-.9c.08-.27.2-.5.36-.69.16-.19.34-.34.56-.44.21-.1.45-.16.72-.16.2,0,.37.01.52.04.15.03.28.07.4.12,0,.09-.02.17-.04.25-.02.08-.05.16-.08.24-.1-.04-.2-.07-.32-.09-.11-.03-.26-.04-.43-.04-.19,0-.35.04-.51.11-.15.07-.28.18-.39.32-.11.14-.19.32-.25.52-.06.21-.09.45-.09.71s.03.51.09.71.15.37.26.5c.11.13.24.23.4.3.15.06.32.1.51.1.11,0,.21,0,.29-.02.08-.01.16-.03.21-.05v-1.64Z"/>
    <path class="st28" d="M79.78,50.8h-.34s-.01-.07-.02-.11c0-.04,0-.08,0-.12s0-.08,0-.12c0-.04,0-.08.02-.11h.85v2.99s-.08.01-.13.02c-.05,0-.09,0-.13,0-.04,0-.08,0-.12,0-.05,0-.09-.01-.13-.02v-2.53ZM79.67,49.69s-.01-.1-.01-.15c0-.05,0-.1,0-.15s0-.09,0-.15c0-.05,0-.1.01-.15.05,0,.09-.01.15-.02.05,0,.1,0,.14,0,.04,0,.08,0,.14,0,.05,0,.1.01.14.02,0,.04,0,.09.01.15,0,.05,0,.1,0,.15s0,.09,0,.15c0,.05,0,.1-.01.15-.04,0-.09.01-.14.02-.05,0-.1,0-.13,0-.04,0-.09,0-.14,0-.05,0-.1-.01-.15-.02"/>
    <path class="st28" d="M82.18,53.41c-.21,0-.39-.04-.55-.12-.16-.08-.29-.19-.39-.33-.1-.14-.18-.31-.23-.5s-.08-.4-.08-.62.03-.43.08-.62c.05-.19.13-.36.23-.49.11-.14.24-.25.39-.33.16-.08.34-.12.55-.12s.39.04.55.12c.16.08.29.19.39.33.1.14.18.3.23.49.05.19.08.4.08.62s-.03.43-.08.62c-.05.19-.13.36-.23.5-.1.14-.24.25-.39.33-.16.08-.34.12-.55.12M82.18,52.95c.24,0,.42-.1.53-.29.12-.19.17-.46.17-.81s-.06-.62-.17-.81c-.11-.19-.29-.29-.53-.29s-.42.1-.53.29c-.11.19-.17.46-.17.81s.06.62.17.81c.11.19.29.29.53.29"/>
    <path class="st28" d="M83.63,50.35s.1-.01.15-.02c.05,0,.1,0,.14,0,.04,0,.09,0,.15,0,.05,0,.1.01.14.02l.73,2.47.74-2.47s.08-.01.13-.02c.05,0,.1,0,.14,0,.04,0,.08,0,.13,0,.05,0,.1.01.15.02l-1.05,2.99s-.09.01-.14.02c-.05,0-.09,0-.13,0-.04,0-.08,0-.12,0-.04,0-.09,0-.13-.02l-1.04-2.99Z"/>
    <path class="st28" d="M88.12,51.37c0-.23-.05-.39-.16-.48-.11-.09-.26-.13-.46-.13-.12,0-.24.01-.34.03-.11.02-.21.05-.31.08-.07-.13-.1-.28-.1-.46.12-.04.25-.08.39-.1.14-.02.28-.04.41-.04.35,0,.62.09.8.27.18.18.27.46.27.85v1.87c-.12.03-.27.06-.45.1-.18.03-.35.05-.54.05-.17,0-.33-.02-.46-.05-.14-.03-.26-.09-.35-.17-.1-.08-.17-.18-.22-.3-.05-.12-.08-.27-.08-.44s.03-.31.09-.44c.06-.13.15-.23.25-.32.1-.08.23-.15.36-.19.14-.04.28-.06.43-.06.11,0,.2,0,.28,0,.07,0,.13.01.18.02v-.11ZM88.12,51.93c-.05,0-.12-.02-.2-.02-.08,0-.15-.01-.2-.01-.22,0-.38.04-.5.13-.11.09-.17.23-.17.41,0,.12.02.21.06.27.04.07.09.12.15.15.06.04.12.06.19.06.07,0,.14.01.2.01.08,0,.16,0,.25-.01.08-.01.16-.02.23-.04v-.95Z"/>
    <path class="st28" d="M89.37,50.35s.08-.01.11-.02c.04,0,.07,0,.11,0s.07,0,.11,0c.03,0,.07.01.11.02,0,.06.02.14.03.24,0,.1.02.18.02.25.03-.07.08-.13.13-.2.05-.07.12-.13.18-.18.07-.05.15-.09.24-.13.09-.03.19-.05.3-.05.31,0,.54.1.68.29.15.2.22.49.22.87v1.89s-.08.01-.13.02c-.05,0-.09,0-.13,0s-.08,0-.13,0c-.05,0-.09,0-.13-.02v-1.74c0-.27-.04-.48-.12-.61-.08-.13-.2-.2-.37-.2-.1,0-.19.02-.28.06-.09.04-.17.1-.23.18-.07.08-.12.19-.16.32-.04.13-.06.29-.06.47v1.51s-.08.01-.13.02c-.05,0-.09,0-.13,0s-.08,0-.13,0c-.05,0-.09,0-.13-.02v-2.99Z"/>
    <path class="st28" d="M92.51,50.8h-.34s-.01-.07-.02-.11c0-.04,0-.08,0-.12s0-.08,0-.12c0-.04,0-.08.02-.11h.85v2.99s-.08.01-.13.02c-.05,0-.09,0-.13,0-.04,0-.08,0-.12,0-.05,0-.09-.01-.13-.02v-2.53ZM92.39,49.69s-.01-.1-.01-.15c0-.05,0-.1,0-.15s0-.09,0-.15c0-.05,0-.1.01-.15.05,0,.09-.01.15-.02.05,0,.1,0,.14,0,.04,0,.08,0,.14,0,.05,0,.1.01.14.02,0,.04,0,.09.01.15,0,.05,0,.1,0,.15s0,.09,0,.15c0,.05,0,.1-.01.15-.04,0-.09.01-.14.02-.05,0-.1,0-.13,0-.04,0-.09,0-.14,0-.05,0-.1-.01-.15-.02"/>
    <path class="st28" d="M93.8,49.06s.08-.01.13-.02c.05,0,.09,0,.13,0,.04,0,.08,0,.13,0,.05,0,.09.01.13.02v3.37c0,.11,0,.19.03.26.02.06.04.11.07.14.03.03.06.05.1.06.04,0,.08.01.13.01.03,0,.07,0,.11,0,.04,0,.08,0,.1-.02.03.14.05.28.05.44-.05.02-.11.03-.18.04-.07,0-.13,0-.19,0-.1,0-.2-.01-.28-.04-.09-.03-.16-.07-.23-.13-.07-.06-.12-.15-.16-.25-.04-.1-.06-.23-.06-.39v-3.5Z"/>
    <path class="st28" d="M95.49,50.8h-.34s-.01-.07-.02-.11c0-.04,0-.08,0-.12s0-.08,0-.12c0-.04,0-.08.02-.11h.85v2.99s-.08.01-.13.02c-.05,0-.09,0-.13,0-.04,0-.08,0-.12,0-.05,0-.09-.01-.13-.02v-2.53ZM95.37,49.69s-.01-.1-.01-.15c0-.05,0-.1,0-.15s0-.09,0-.15c0-.05,0-.1.01-.15.05,0,.09-.01.15-.02.05,0,.1,0,.14,0,.04,0,.08,0,.14,0,.05,0,.1.01.14.02,0,.04,0,.09.01.15,0,.05,0,.1,0,.15s0,.09,0,.15c0,.05,0,.1-.01.15-.04,0-.09.01-.14.02-.05,0-.1,0-.13,0-.04,0-.09,0-.14,0-.05,0-.1-.01-.15-.02"/>
    <path class="st28" d="M44.91,21.79c.23-.03.45-.05.66-.07.2-.02.43-.03.68-.03.29,0,.58.03.86.08.28.05.54.15.77.28.23.14.41.32.55.55.14.23.21.52.21.88,0,.21-.03.4-.08.56-.05.16-.12.3-.2.43-.08.12-.17.23-.27.32-.1.09-.19.16-.27.21l-.14.09,1.39,2.42c-.11.01-.22.02-.33.03-.12.01-.24.02-.36.02-.2,0-.4-.02-.6-.05l-1.5-2.66.19-.1c.07-.04.16-.08.27-.14.11-.06.21-.13.31-.22.1-.09.18-.19.25-.32.07-.13.1-.27.1-.44,0-.33-.1-.58-.29-.74-.19-.16-.44-.23-.74-.23-.12,0-.22,0-.32.02v4.83c-.09.01-.19.02-.29.03-.1,0-.19.01-.28.01s-.19,0-.29,0c-.1,0-.2-.02-.31-.03v-5.72Z"/>
    <path class="st28" d="M49.55,21.79h3.25c.03.16.05.32.05.49,0,.18-.02.34-.05.5h-2.09v1.24h1.66c.03.17.05.33.05.49,0,.17-.02.34-.05.5h-1.66v1.51h2.14c.03.16.05.32.05.49,0,.18-.02.34-.05.5h-3.3v-5.72Z"/>
    <path class="st28" d="M56.76,24.54c.2-.03.39-.05.57-.05s.38.02.58.05v2.81c-.28.1-.57.17-.86.2-.3.03-.56.05-.78.05-.47,0-.87-.07-1.22-.22-.35-.15-.64-.35-.87-.61-.23-.26-.41-.57-.53-.93-.12-.36-.18-.75-.18-1.18s.06-.82.18-1.18c.12-.36.3-.68.53-.94.23-.27.52-.47.85-.62s.72-.22,1.15-.22c.25,0,.49.02.71.05.22.03.45.1.69.2-.01.16-.04.31-.09.47-.05.15-.11.3-.18.46-.19-.06-.35-.11-.49-.13-.14-.03-.31-.04-.51-.04-.51,0-.9.17-1.18.5-.27.33-.41.82-.41,1.48s.14,1.14.41,1.46c.27.32.67.48,1.19.48.09,0,.17,0,.24-.02.07-.01.14-.02.2-.03v-2.01Z"/>
    <path class="st28" d="M58.78,21.79c.2-.03.39-.05.58-.05s.39.02.59.05v5.72c-.2.03-.4.05-.58.05-.2,0-.39-.02-.59-.05v-5.72Z"/>
    <path class="st28" d="M63.24,27.61c-.43,0-.8-.07-1.11-.22s-.57-.35-.77-.62c-.2-.26-.35-.57-.45-.93s-.15-.75-.15-1.17.05-.82.15-1.18c.1-.36.25-.68.45-.94.2-.27.46-.47.77-.62s.68-.22,1.11-.22.8.07,1.11.22c.31.15.57.36.77.62.2.27.35.58.45.94.1.36.15.76.15,1.18s-.05.82-.15,1.17-.25.67-.45.93c-.2.26-.46.47-.77.62-.31.15-.68.22-1.11.22M63.24,26.64c.82,0,1.23-.66,1.23-1.97,0-.66-.1-1.15-.3-1.48-.2-.33-.51-.49-.93-.49-.83,0-1.25.66-1.25,1.97s.41,1.97,1.24,1.97"/>
    <path class="st28" d="M66.52,21.79c.16-.03.32-.05.47-.05.16,0,.32.02.49.05l2.21,3.65v-3.65c.19-.03.37-.05.55-.05.17,0,.32.02.48.05v5.72c-.17.03-.32.05-.46.05-.15,0-.31-.02-.49-.05l-2.23-3.64v3.64c-.17.03-.34.05-.52.05s-.34-.02-.51-.05v-5.72Z"/>
    <path class="st28" d="M71.68,21.79h3.25c.03.16.05.32.05.49,0,.18-.02.34-.05.5h-2.09v1.24h1.66c.03.17.05.33.05.49,0,.17-.02.34-.05.5h-1.66v1.51h2.14c.03.16.05.32.05.49,0,.18-.02.34-.05.5h-3.3v-5.72Z"/>
    <path class="st28" d="M44.85,29.64c.24-.02.49-.04.74-.05.25-.01.5-.02.76-.02s.54.03.81.08c.27.05.52.15.74.3.22.15.4.35.54.61.14.26.21.6.21,1.01s-.07.75-.21,1.01c-.14.26-.31.46-.53.61-.22.15-.46.25-.73.3-.27.05-.53.08-.79.08-.07,0-.13,0-.2,0s-.12,0-.17-.01v1.84c-.1.02-.2.03-.29.03-.09,0-.19,0-.28,0s-.18,0-.28,0c-.1,0-.2-.02-.31-.03v-5.75ZM46.01,32.58c.06.01.12.02.18.02h.2c.13,0,.26-.02.39-.05.13-.03.24-.09.34-.17.1-.08.18-.18.23-.31.06-.13.09-.29.09-.48s-.03-.36-.09-.5c-.06-.14-.14-.24-.23-.33-.1-.08-.21-.14-.34-.18-.13-.03-.26-.05-.39-.05-.06,0-.11,0-.16,0-.05,0-.12.01-.22.02v2.03Z"/>
    <path class="st28" d="M49.3,29.66c.1-.02.2-.03.29-.03.1,0,.19,0,.29,0,.09,0,.18,0,.28,0,.1,0,.19.02.29.03v2.97c0,.32.01.6.04.83.02.23.07.42.14.57.07.15.17.26.3.33.13.07.3.11.51.11s.38-.04.5-.11c.13-.07.23-.18.3-.33.07-.15.12-.34.14-.57.02-.23.04-.51.04-.83v-2.97c.11-.02.21-.03.3-.03.1,0,.19,0,.28,0s.19,0,.29,0c.1,0,.2.02.3.03v3.22c0,.39-.03.74-.1,1.06-.06.32-.18.6-.34.82-.16.23-.38.41-.66.53-.28.12-.63.19-1.05.19s-.77-.06-1.05-.19c-.28-.12-.5-.3-.66-.53-.17-.23-.28-.5-.34-.82-.06-.32-.09-.68-.09-1.06v-3.22Z"/>
    <path class="st28" d="M57.66,32.42c.2-.03.39-.05.57-.05s.38.02.58.05v2.81c-.28.1-.57.17-.86.2-.3.03-.56.05-.78.05-.47,0-.87-.07-1.22-.22-.35-.15-.64-.35-.87-.61-.23-.26-.41-.57-.53-.93-.12-.36-.18-.75-.18-1.18s.06-.82.18-1.18c.12-.36.3-.68.53-.94.23-.27.52-.47.85-.62s.72-.22,1.15-.22c.25,0,.49.02.71.05.22.03.45.1.69.2-.01.16-.04.31-.09.47-.05.15-.11.3-.18.46-.19-.06-.35-.11-.49-.13-.14-.03-.31-.04-.51-.04-.51,0-.9.17-1.18.5-.27.33-.41.82-.41,1.48s.14,1.14.41,1.46c.27.32.67.48,1.19.48.09,0,.17,0,.24-.02.07-.01.14-.02.2-.03v-2.01Z"/>
    <path class="st28" d="M59.67,29.66c.2-.03.39-.05.57-.05s.38.02.58.05v4.72h1.98c.02.09.03.18.03.26,0,.08,0,.16,0,.23,0,.09,0,.17,0,.25,0,.08-.02.17-.03.26h-3.13v-5.72Z"/>
    <path class="st28" d="M63.43,29.66c.2-.03.39-.05.58-.05s.39.02.59.05v5.72c-.2.03-.4.05-.58.05-.2,0-.39-.02-.59-.05v-5.72Z"/>
    <path class="st28" d="M66.89,29.66c.11-.01.22-.03.32-.04.1,0,.21-.01.33-.01.11,0,.21,0,.31.01.1,0,.21.02.34.04l1.79,5.72c-.22.03-.43.05-.64.05s-.4-.02-.59-.05l-.32-1.15h-1.89l-.33,1.15c-.19.03-.37.05-.55.05-.2,0-.39-.02-.58-.05l1.81-5.72ZM68.16,33.28l-.66-2.4-.69,2.4h1.35Z"/>
  </g>
  <g>
    <g>
      <path class="st29" d="M102.25,53.74v-10.63h4.13c1.22,0,2.21.34,2.97,1.01.76.68,1.13,1.6,1.13,2.76,0,1.09-.43,2.01-1.3,2.74-.87.74-2.06,1.1-3.59,1.1h-.78v3.01h-2.57ZM104.82,45.11v3.65h.87c.75,0,1.3-.17,1.65-.5.35-.34.52-.77.52-1.32,0-1.22-.6-1.83-1.8-1.83h-1.23ZM116.98,53.93c-.65,0-1.26-.08-1.82-.23-.56-.16-1.08-.4-1.56-.73s-.86-.8-1.14-1.41c-.28-.61-.42-1.33-.42-2.15v-6.3h2.59v6.21c0,1.68.79,2.53,2.36,2.53s2.36-.95,2.36-2.84v-5.89h2.51v5.94c0,.89-.14,1.67-.42,2.32-.28.66-.66,1.16-1.13,1.53-.48.36-.99.62-1.54.79-.55.17-1.14.25-1.77.25h0ZM129.17,53.89c-1.82,0-3.25-.45-4.28-1.35-1.03-.9-1.55-2.25-1.55-4.04,0-1.89.5-3.29,1.5-4.19,1-.9,2.49-1.35,4.45-1.35,1.07,0,2.13.22,3.19.65l-.68,1.85c-.45-.11-.75-.19-.91-.23-.16-.04-.38-.08-.68-.11-.3-.04-.62-.05-.96-.05-1.01,0-1.82.27-2.41.8-.6.53-.89,1.36-.89,2.48s.33,1.97.98,2.55c.65.58,1.49.86,2.53.86.08,0,.2,0,.35,0,.15,0,.26,0,.33,0v-3.26h2.56v4.8c-1.06.41-2.23.62-3.5.62h0ZM135.09,53.74v-10.63h2.56v8.61h4.43v2.01h-6.98,0ZM143.58,53.74v-10.63h2.56v10.63h-2.56ZM147.47,53.74l4.09-10.63h3.29l3.58,10.63h-2.65l-1.01-3.11h-3.59l-1.16,3.11h-2.56ZM151.86,48.78h2.31l-1.07-4.09-1.25,4.09h0Z"/>
      <path class="st29" d="M189.92,41.98s-.61-.64-.61-1.42.61-1.42.61-1.42c0,0,.61.64.61,1.42s-.61,1.42-.61,1.42ZM185.31,40.94s-.35.81-.08,1.55c.27.74,1.06,1.13,1.06,1.13,0,0,.35-.81.08-1.55-.27-.74-1.06-1.13-1.06-1.13h0ZM182.82,45.25c-.39-.68-1.24-.93-1.24-.93,0,0-.21.86.19,1.54.39.68,1.24.93,1.24.93,0,0,.21-.86-.19-1.54ZM190.54,46.13c0-.32-.1-.61-.22-.85-.17-.35-.39-.58-.39-.58,0,0-.11.11-.23.3-.17.26-.38.67-.38,1.13,0,.79.61,1.42.61,1.42,0,0,.61-.64.61-1.42ZM185.06,47.95s.02.88.58,1.44c.56.56,1.44.58,1.44.58,0,0-.02-.88-.58-1.44-.56-.56-1.44-.58-1.44-.58ZM194.63,42.49c.27-.74-.08-1.55-.08-1.55,0,0-.79.39-1.06,1.13-.27.74.08,1.55.08,1.55,0,0,.79-.39,1.06-1.13ZM198.08,45.86c.39-.68.19-1.54.19-1.54,0,0-.85.25-1.24.93-.39.68-.19,1.54-.19,1.54,0,0,.85-.25,1.24-.93ZM192.77,49.96s.88-.02,1.44-.58c.56-.56.58-1.44.58-1.44,0,0-.88.02-1.44.58-.56.56-.58,1.44-.58,1.44ZM200.56,44.37v8.1c0,.23-.09.44-.25.6l-5.73,5.73c-.16.16-.38.25-.6.25h-8.1c-.23,0-.44-.09-.6-.25l-5.73-5.73c-.16-.16-.25-.38-.25-.6v-8.1c0-.23.09-.44.25-.6l5.73-5.73c.16-.16.38-.25.6-.25h8.1c.23,0,.44.09.6.25l5.73,5.73c.16.16.25.38.25.6h0ZM183.33,41.69c.3,1.12.93,2.05,1.76,2.87-.33.22-.65.46-.96.72-.74-.76-1.36-1.63-1.75-2.64l-1.87,1.87c.08,1.53.95,2.63,2.04,3.66,1.22-2.34,3.4-3.47,5.38-4.49.06-.03.12-.06.18-.09.38.29.77.54,1.17.78-.26.14-.52.27-.78.41-2.04,1.06-4,2.07-4.99,4.25.04.03.09.07.13.11.97.83,1.95,1.68,2.58,2.72.48-1,1.25-1.83,2.16-2.59.36.24.7.47,1.03.71-1.46,1.16-2.52,2.45-2.52,4.23v3.65h6.09v-3.65c0-2.67-2.4-4.25-4.94-5.93-.65-.43-1.32-.87-1.97-1.34.34-.25.7-.48,1.08-.7.5.35,1.02.7,1.55,1.04,1.98,1.3,4.01,2.64,4.94,4.58.63-1.05,1.61-1.89,2.58-2.72.05-.04.09-.08.13-.12-.39-.84-.92-1.51-1.54-2.07.32-.26.64-.53.94-.81.6.56,1.14,1.22,1.56,2.03,1.09-1.02,1.95-2.12,2.03-3.65l-1.87-1.87c-.98,2.56-3.43,4.18-5.66,5.64-.1.07-.2.13-.3.2-.33-.26-.68-.51-1.03-.76.22-.15.44-.29.66-.44,2.41-1.59,4.7-3.1,5.37-5.59l-2.64-2.64c-.29,1.72-1.12,2.88-2.2,3.78-.42-.22-.81-.43-1.18-.65,1.05-.77,1.83-1.72,2.12-3.18h-5.39c.5,2.5,2.47,3.52,4.7,4.68.59.31,1.2.62,1.8.98-.33.28-.68.56-1.06.82-.43-.24-.87-.47-1.31-.7-2.39-1.24-4.85-2.52-5.39-5.74l-2.65,2.65h0ZM185.68,57.51v-3.31c0-1.73-1.31-2.86-2.83-4.16-.81-.7-1.68-1.45-2.36-2.34v4.63l5.18,5.18h0ZM199.36,52.33v-4.63c-.67.9-1.54,1.64-2.36,2.34-1.52,1.3-2.83,2.43-2.83,4.16v3.31l5.18-5.18Z"/>
    </g>
    <g>
      <path class="st29" d="M101.52,17.4l1.83-4.71h1.48l1.6,4.71h-1.19l-.45-1.38h-1.61l-.52,1.38h-1.15ZM103.48,15.2h1.04l-.48-1.81-.56,1.81Z"/>
      <path class="st29" d="M111.53,17.48c-.42-.02-.78-.12-1.06-.31s-.58-.45-.88-.79l-.54-.62c-.05,0-.14,0-.26,0h-.35v1.62h-1.15v-4.71h1.85c.56,0,1.01.13,1.34.39.33.26.5.64.5,1.15,0,.56-.26.98-.77,1.27l.48.52c.27.28.62.48,1.08.6l-.26.87ZM108.45,14.98h.39c.65,0,.97-.24.97-.73,0-.24-.06-.41-.18-.52-.12-.1-.33-.16-.63-.16h-.55v1.4Z"/>
      <path class="st29" d="M113.39,17.4v-3.82h-1.5v-.88h4.14v.88h-1.5v3.82h-1.15Z"/>
      <path class="st29" d="M116.88,17.4v-4.71h1.15v4.71h-1.15Z"/>
      <path class="st29" d="M101.5,25.2l1.3-3.26h.67l1.17,3.26h-.53l-.4-1.14h-1.25l-.45,1.14h-.5ZM102.6,23.68h.97l-.46-1.4-.52,1.4Z"/>
      <path class="st29" d="M106.19,26.24c-.31,0-.61-.04-.89-.11l.08-.4c.29.06.53.1.72.1.24,0,.42-.04.54-.11.12-.08.18-.23.18-.47v-.2c-.15.12-.33.19-.54.19-.12,0-.24,0-.34-.02-.1-.01-.21-.05-.31-.1-.11-.05-.2-.12-.27-.22-.07-.09-.13-.22-.18-.37-.05-.16-.07-.35-.07-.57,0-.43.12-.76.36-.99.24-.23.54-.35.91-.35.25,0,.56.03.92.1v2.59c0,.31-.1.54-.31.69-.21.15-.47.23-.79.23ZM106.31,24.85c.15,0,.32-.06.5-.17v-1.61c-.17-.03-.32-.05-.44-.05-.27,0-.47.09-.59.26-.13.17-.19.4-.19.68,0,.32.06.54.18.68.12.14.3.21.55.21Z"/>
      <path class="st29" d="M109.38,25.25c-.41,0-.72-.1-.93-.29-.21-.19-.32-.52-.32-.98,0-.91.4-1.36,1.19-1.36.65,0,.97.42.97,1.27v.17h-1.67c0,.17.03.3.07.41.04.11.11.19.19.24.09.05.18.09.27.11.09.02.21.03.35.03.15,0,.37-.03.66-.1l.08.38c-.24.08-.52.12-.85.12ZM108.63,23.72h1.16c0-.23-.04-.41-.13-.55-.09-.14-.22-.2-.39-.2s-.32.07-.44.19-.18.31-.2.56Z"/>
      <path class="st29" d="M111.08,25.2v-2.52h.48v.28c.33-.23.62-.34.87-.34.15,0,.27.02.38.06s.18.09.24.14c.06.06.1.13.13.23.03.1.05.18.06.26,0,.08,0,.17,0,.29v1.61h-.48v-1.54c0-.22-.03-.38-.09-.48s-.19-.14-.38-.14c-.18,0-.43.09-.73.26v1.9h-.48Z"/>
      <path class="st29" d="M114,25.2v-.37l1.41-1.74h-1.31v-.41h1.87v.35l-1.42,1.76h1.44v.4h-2Z"/>
      <path class="st29" d="M117,22.27l-.36-.37.36-.36.37.36-.37.37ZM116.77,25.2v-2.52h.49v2.52h-.49Z"/>
      <path class="st29" d="M118.8,25.23c-.25,0-.44-.06-.57-.18-.13-.12-.2-.3-.2-.54,0-.15.03-.27.09-.38.06-.1.15-.18.25-.24s.21-.09.32-.11c.11-.02.22-.03.35-.03h.56v-.29c0-.17-.05-.28-.14-.34-.09-.06-.24-.09-.46-.09-.14,0-.36.04-.67.12l-.1-.36c.26-.11.55-.17.88-.17s.56.06.72.17.24.29.24.54v1.32c0,.12.08.19.23.2l-.02.37s-.06,0-.1,0c-.13,0-.25-.03-.36-.08-.11-.05-.17-.13-.19-.23,0,0-.02.02-.06.04-.03.03-.06.04-.07.05-.02,0-.04.03-.08.05-.04.02-.07.04-.1.05-.03.01-.06.03-.11.05s-.09.03-.13.04c-.04,0-.09.01-.14.02s-.1.01-.16.01ZM118.92,24.85c.06,0,.13-.01.21-.03s.14-.04.19-.06c.05-.02.11-.05.18-.08.07-.03.1-.05.11-.05v-.58l-.55.02c-.17,0-.31.04-.41.11-.1.07-.14.17-.14.28,0,.26.14.38.41.38Z"/>
      <path class="st29" d="M125.16,25.25c-.38-.01-.71-.21-.99-.57l-.54-.74c-.07.01-.16.02-.27.02h-.39v1.24h-.5v-3.26h1.13c.35,0,.62.08.82.25.2.17.31.41.31.74,0,.42-.2.72-.6.89l.47.62c.16.22.39.36.68.43l-.11.38ZM122.97,23.57h.42c.55,0,.82-.21.82-.62,0-.22-.06-.37-.17-.47-.11-.1-.29-.14-.54-.14h-.53v1.24Z"/>
      <path class="st29" d="M127,25.25c-.41,0-.72-.1-.93-.29-.21-.19-.32-.52-.32-.98,0-.91.4-1.36,1.19-1.36.65,0,.97.42.97,1.27v.17h-1.67c0,.17.03.3.07.41.04.11.11.19.19.24.09.05.18.09.27.11.09.02.21.03.35.03.15,0,.37-.03.66-.1l.08.38c-.24.08-.52.12-.85.12ZM126.25,23.72h1.16c0-.23-.04-.41-.13-.55-.09-.14-.22-.2-.39-.2s-.32.07-.44.19-.18.31-.2.56Z"/>
      <path class="st29" d="M129.63,26.24c-.31,0-.61-.04-.89-.11l.08-.4c.29.06.53.1.72.1.24,0,.42-.04.54-.11.12-.08.18-.23.18-.47v-.2c-.15.12-.33.19-.54.19-.12,0-.24,0-.34-.02-.1-.01-.21-.05-.31-.1-.11-.05-.2-.12-.27-.22-.07-.09-.13-.22-.18-.37-.05-.16-.07-.35-.07-.57,0-.43.12-.76.36-.99.24-.23.54-.35.91-.35.25,0,.56.03.92.1v2.59c0,.31-.1.54-.31.69-.21.15-.47.23-.79.23ZM129.75,24.85c.15,0,.32-.06.5-.17v-1.61c-.17-.03-.32-.05-.44-.05-.27,0-.47.09-.59.26-.13.17-.19.4-.19.68,0,.32.06.54.18.68.12.14.3.21.55.21Z"/>
      <path class="st29" d="M131.97,22.27l-.36-.37.36-.36.37.36-.37.37ZM131.74,25.2v-2.52h.49v2.52h-.49Z"/>
      <path class="st29" d="M134.23,25.25c-.37,0-.66-.11-.87-.34-.21-.23-.31-.54-.31-.95s.11-.75.34-.99c.22-.24.52-.36.88-.36.39,0,.69.11.89.34s.3.56.3.98-.11.75-.34.98-.52.34-.88.34ZM134.26,24.86c.46,0,.69-.31.69-.92,0-.12-.01-.24-.03-.34-.02-.1-.06-.2-.1-.29-.05-.09-.12-.17-.22-.22-.1-.05-.21-.08-.35-.08-.26,0-.44.09-.55.27-.11.18-.16.4-.16.67,0,.61.24.92.72.92Z"/>
      <path class="st29" d="M136.27,25.2v-2.52h.48v.28c.33-.23.62-.34.87-.34.15,0,.27.02.38.06s.18.09.24.14c.06.06.1.13.13.23.03.1.05.18.06.26,0,.08,0,.17,0,.29v1.61h-.48v-1.54c0-.22-.03-.38-.09-.48s-.19-.14-.38-.14c-.18,0-.43.09-.73.26v1.9h-.48Z"/>
      <path class="st29" d="M139.96,25.23c-.25,0-.44-.06-.57-.18-.13-.12-.2-.3-.2-.54,0-.15.03-.27.09-.38.06-.1.15-.18.25-.24s.21-.09.32-.11c.11-.02.22-.03.35-.03h.56v-.29c0-.17-.05-.28-.14-.34-.09-.06-.24-.09-.46-.09-.14,0-.36.04-.67.12l-.1-.36c.26-.11.55-.17.88-.17s.56.06.72.17.24.29.24.54v1.32c0,.12.08.19.23.2l-.02.37s-.06,0-.1,0c-.13,0-.25-.03-.36-.08-.11-.05-.17-.13-.19-.23,0,0-.02.02-.06.04-.03.03-.06.04-.07.05-.02,0-.04.03-.08.05-.04.02-.07.04-.1.05-.03.01-.06.03-.11.05s-.09.03-.13.04c-.04,0-.09.01-.14.02s-.1.01-.16.01ZM140.08,24.85c.06,0,.13-.01.21-.03s.14-.04.19-.06c.05-.02.11-.05.18-.08.07-.03.1-.05.11-.05v-.58l-.55.02c-.17,0-.31.04-.41.11-.1.07-.14.17-.14.28,0,.26.14.38.41.38Z"/>
      <path class="st29" d="M142.32,25.2v-3.47h.48v3.47h-.48Z"/>
      <path class="st29" d="M144.77,25.25c-.41,0-.72-.1-.93-.29-.21-.19-.32-.52-.32-.98,0-.91.4-1.36,1.19-1.36.65,0,.97.42.97,1.27v.17h-1.67c0,.17.03.3.07.41.04.11.11.19.19.24.09.05.18.09.27.11.09.02.21.03.35.03.15,0,.37-.03.66-.1l.08.38c-.24.08-.52.12-.85.12ZM144.01,23.72h1.16c0-.23-.04-.41-.13-.55-.09-.14-.22-.2-.39-.2s-.32.07-.44.19-.18.31-.2.56Z"/>
      <path class="st29" d="M147.69,26.21v-3.53h.48v.2c.23-.17.46-.26.68-.26.34,0,.6.1.78.31s.28.51.28.92c0,.25-.03.47-.1.66-.07.19-.17.33-.29.44-.12.1-.26.18-.41.23-.15.05-.31.07-.48.07-.1,0-.25-.01-.46-.04v1h-.48ZM148.65,24.86c.25,0,.44-.09.57-.26.13-.17.2-.4.2-.67s-.05-.5-.15-.66c-.1-.16-.28-.24-.54-.24-.14,0-.32.06-.55.19v1.59c.23.03.39.05.47.05Z"/>
      <path class="st29" d="M151.83,25.25c-.41,0-.72-.1-.93-.29-.21-.19-.32-.52-.32-.98,0-.91.4-1.36,1.19-1.36.65,0,.97.42.97,1.27v.17h-1.67c0,.17.03.3.07.41.04.11.11.19.19.24.09.05.18.09.27.11.09.02.21.03.35.03.15,0,.37-.03.66-.1l.08.38c-.24.08-.52.12-.85.12ZM151.07,23.72h1.16c0-.23-.04-.41-.13-.55s-.22-.2-.39-.2-.32.07-.44.19-.18.31-.2.56Z"/>
      <path class="st29" d="M153.53,25.2v-2.52h.48v.34c.07-.11.17-.2.29-.28.12-.08.26-.11.42-.11.12,0,.22.01.31.04l-.07.41c-.09-.02-.19-.03-.31-.03-.13,0-.25.03-.37.1-.11.07-.2.15-.27.25v1.81h-.48Z"/>
      <path class="st29" d="M156.82,25.2v-3.47h.48v3.47h-.48Z"/>
      <path class="st29" d="M158.74,25.23c-.25,0-.43-.06-.57-.18-.13-.12-.2-.3-.2-.54,0-.15.03-.27.09-.38.06-.1.15-.18.25-.24.1-.05.21-.09.32-.11s.22-.03.35-.03h.56v-.29c0-.17-.05-.28-.14-.34-.09-.06-.24-.09-.46-.09-.14,0-.36.04-.67.12l-.1-.36c.26-.11.55-.17.88-.17s.56.06.73.17c.16.11.24.29.24.54v1.32c0,.12.08.19.23.2l-.02.37s-.06,0-.1,0c-.13,0-.25-.03-.36-.08-.1-.05-.17-.13-.19-.23,0,0-.02.02-.06.04-.03.03-.06.04-.07.05-.02,0-.04.03-.08.05-.04.02-.07.04-.1.05-.03.01-.06.03-.11.05s-.09.03-.13.04c-.04,0-.09.01-.14.02-.05,0-.1.01-.16.01ZM158.86,24.85c.06,0,.13-.01.21-.03.08-.02.14-.04.19-.06.05-.02.11-.05.18-.08.07-.03.1-.05.11-.05v-.58l-.55.02c-.17,0-.31.04-.41.11-.1.07-.14.17-.14.28,0,.26.14.38.41.38Z"/>
      <path class="st29" d="M102.56,30.94v-2.85h-1.1v-.41h2.7v.41h-1.1v2.85h-.5Z"/>
      <path class="st29" d="M105.62,30.99c-.41,0-.72-.1-.93-.29-.21-.19-.32-.52-.32-.98,0-.91.4-1.36,1.19-1.36.65,0,.97.42.97,1.27v.17h-1.67c0,.17.03.3.07.41.04.11.11.19.19.24.09.05.18.09.27.11.09.02.21.03.35.03.15,0,.37-.03.66-.1l.08.38c-.24.08-.52.12-.85.12ZM104.86,29.46h1.16c0-.23-.04-.41-.13-.55-.09-.14-.22-.2-.39-.2s-.32.07-.44.19-.18.31-.2.56Z"/>
      <path class="st29" d="M108.5,30.98c-.48,0-.82-.1-1.03-.31s-.32-.54-.32-1c0-.4.11-.72.34-.96.23-.24.53-.35.92-.35.29,0,.53.05.73.15l-.14.37c-.19-.08-.39-.12-.59-.12-.23,0-.41.08-.55.23-.14.15-.21.38-.21.67,0,.33.06.56.19.7.13.14.36.21.7.21.06,0,.12,0,.18-.01.06,0,.12-.02.19-.03s.11-.02.13-.02l.08.38c-.23.06-.44.09-.62.09Z"/>
      <path class="st29" d="M109.88,30.94v-2.52h.48v.28c.33-.23.62-.34.87-.34.15,0,.27.02.38.06s.18.09.24.14c.06.06.1.13.13.23.03.1.05.18.06.26,0,.08,0,.17,0,.29v1.61h-.48v-1.54c0-.22-.03-.38-.09-.48s-.19-.14-.38-.14c-.18,0-.43.09-.73.26v1.9h-.48Z"/>
      <path class="st29" d="M114.03,30.99c-.37,0-.66-.11-.87-.34-.21-.23-.31-.54-.31-.95s.11-.75.34-.99c.22-.24.52-.36.88-.36.39,0,.69.11.89.34s.3.56.3.98-.11.75-.34.98-.52.34-.88.34ZM114.06,30.6c.46,0,.69-.31.69-.92,0-.12-.01-.24-.03-.34-.02-.1-.06-.2-.1-.29-.05-.09-.12-.17-.22-.22-.1-.05-.21-.08-.35-.08-.26,0-.44.09-.55.27-.11.18-.16.4-.16.67,0,.61.24.92.72.92Z"/>
      <path class="st29" d="M116.07,30.94v-3.47h.48v3.47h-.48Z"/>
      <path class="st29" d="M118.44,30.99c-.37,0-.66-.11-.87-.34-.21-.23-.31-.54-.31-.95s.11-.75.34-.99c.22-.24.52-.36.88-.36.39,0,.69.11.89.34s.3.56.3.98-.11.75-.34.98-.52.34-.88.34ZM118.47,30.6c.46,0,.69-.31.69-.92,0-.12-.01-.24-.03-.34-.02-.1-.06-.2-.1-.29-.05-.09-.12-.17-.22-.22-.1-.05-.21-.08-.35-.08-.26,0-.44.09-.55.27-.11.18-.16.4-.16.67,0,.61.24.92.72.92Z"/>
      <path class="st29" d="M121.4,31.98c-.31,0-.61-.04-.89-.11l.08-.4c.29.06.53.1.72.1.24,0,.42-.04.54-.11.12-.08.18-.23.18-.47v-.2c-.15.12-.33.19-.54.19-.12,0-.24,0-.34-.02-.1-.01-.21-.05-.31-.1-.11-.05-.2-.12-.27-.22-.07-.09-.13-.22-.18-.37-.05-.16-.07-.35-.07-.57,0-.43.12-.76.36-.99.24-.23.54-.35.91-.35.25,0,.56.03.92.1v2.59c0,.31-.1.54-.31.69-.21.15-.47.23-.79.23ZM121.53,30.59c.15,0,.32-.06.5-.17v-1.61c-.17-.03-.32-.05-.44-.05-.27,0-.47.09-.59.26-.13.17-.19.4-.19.68,0,.32.06.54.18.68.12.14.3.21.55.21Z"/>
      <path class="st29" d="M123.75,28.01l-.36-.37.36-.36.37.36-.37.37ZM123.51,30.94v-2.52h.49v2.52h-.49Z"/>
      <path class="st29" d="M125.54,30.98c-.25,0-.44-.06-.57-.18-.13-.12-.2-.3-.2-.54,0-.15.03-.27.09-.38.06-.1.15-.18.25-.24s.21-.09.32-.11c.11-.02.22-.03.35-.03h.56v-.29c0-.17-.05-.28-.14-.34-.09-.06-.24-.09-.46-.09-.14,0-.36.04-.67.12l-.1-.36c.26-.11.55-.17.88-.17s.56.06.72.17.24.29.24.54v1.32c0,.12.08.19.23.2l-.02.37s-.06,0-.1,0c-.13,0-.25-.03-.36-.08-.11-.05-.17-.13-.19-.23,0,0-.02.02-.06.04-.03.03-.06.04-.07.05-.02,0-.04.03-.08.05-.04.02-.07.04-.1.05-.03.01-.06.03-.11.05s-.09.03-.13.04c-.04,0-.09.01-.14.02s-.1.01-.16.01ZM125.66,30.59c.06,0,.13-.01.21-.03s.14-.04.19-.06c.05-.02.11-.05.18-.08.07-.03.1-.05.11-.05v-.58l-.55.02c-.17,0-.31.04-.41.11-.1.07-.14.17-.14.28,0,.26.14.38.41.38Z"/>
      <path class="st29" d="M127.9,31.52c.08-.21.12-.41.12-.62v-.46h.51v.22c0,.33-.07.61-.21.85h-.42Z"/>
      <path class="st29" d="M130.97,28.01l-.36-.37.36-.36.37.36-.37.37ZM130.73,30.94v-2.52h.49v2.52h-.49Z"/>
      <path class="st29" d="M132.21,30.94v-3.47h.48v3.47h-.48Z"/>
      <path class="st29" d="M135.47,30.94v-2.85h-1.1v-.41h2.7v.41h-1.1v2.85h-.5Z"/>
      <path class="st29" d="M137.44,30.94v-2.52h.48v.34c.07-.11.17-.2.29-.28.12-.08.26-.11.42-.11.12,0,.22.01.31.04l-.08.41c-.09-.02-.19-.03-.31-.03-.13,0-.25.03-.37.1s-.2.15-.27.25v1.81h-.48Z"/>
      <path class="st29" d="M140.05,30.98c-.25,0-.44-.06-.57-.18-.13-.12-.2-.3-.2-.54,0-.15.03-.27.09-.38.06-.1.15-.18.25-.24s.21-.09.32-.11c.11-.02.22-.03.35-.03h.56v-.29c0-.17-.05-.28-.14-.34-.09-.06-.24-.09-.46-.09-.14,0-.36.04-.67.12l-.1-.36c.26-.11.55-.17.88-.17s.56.06.72.17.24.29.24.54v1.32c0,.12.08.19.23.2l-.02.37s-.06,0-.1,0c-.13,0-.25-.03-.36-.08-.11-.05-.17-.13-.19-.23,0,0-.02.02-.06.04-.03.03-.06.04-.07.05-.02,0-.04.03-.08.05-.04.02-.07.04-.1.05-.03.01-.06.03-.11.05s-.09.03-.13.04c-.04,0-.09.01-.14.02s-.1.01-.16.01ZM140.17,30.59c.06,0,.13-.01.21-.03s.14-.04.19-.06c.05-.02.11-.05.18-.08.07-.03.1-.05.11-.05v-.58l-.55.02c-.17,0-.31.04-.41.11-.1.07-.14.17-.14.28,0,.26.14.38.41.38Z"/>
      <path class="st29" d="M143.03,30.99c-.3,0-.56-.03-.8-.11l.07-.38c.36.06.59.09.69.09.19,0,.33-.03.43-.09.1-.06.15-.14.15-.24,0-.09-.04-.16-.13-.22-.09-.06-.2-.11-.32-.16-.12-.05-.25-.09-.38-.15-.13-.05-.23-.14-.32-.25s-.13-.25-.13-.41c0-.23.09-.41.26-.53s.4-.19.67-.19c.22,0,.45.04.69.11l-.08.37c-.26-.06-.46-.09-.62-.09-.14,0-.25.03-.32.09s-.11.13-.11.22.04.17.13.23c.09.06.19.12.32.17.13.05.25.1.38.15.12.06.23.14.32.24s.13.24.13.39c0,.14-.03.26-.1.37-.06.1-.15.18-.25.24-.1.05-.21.09-.32.11-.11.02-.22.03-.34.03Z"/>
      <path class="st29" d="M144.87,31.89v-3.11h-.37v-.36h.37v-.2c0-.31.08-.53.24-.67s.37-.2.64-.2c.15,0,.29.02.41.06l-.08.39c-.1-.02-.2-.03-.31-.03-.14,0-.25.04-.31.11-.07.08-.1.19-.1.36v.18h.55v.36h-.55v3.11h-.48Z"/>
      <path class="st29" d="M147.68,30.99c-.41,0-.72-.1-.93-.29-.21-.19-.32-.52-.32-.98,0-.91.4-1.36,1.19-1.36.65,0,.97.42.97,1.27v.17h-1.67c0,.17.03.3.07.41.04.11.11.19.19.24.09.05.18.09.27.11.09.02.21.03.35.03.15,0,.37-.03.66-.1l.08.38c-.24.08-.52.12-.85.12ZM146.93,29.46h1.16c0-.23-.04-.41-.13-.55-.09-.14-.22-.2-.39-.2s-.32.07-.44.19-.18.31-.2.56Z"/>
      <path class="st29" d="M149.38,30.94v-2.52h.48v.34c.07-.11.17-.2.29-.28.12-.08.26-.11.42-.11.12,0,.22.01.31.04l-.08.41c-.09-.02-.19-.03-.31-.03-.13,0-.25.03-.37.1s-.2.15-.27.25v1.81h-.48Z"/>
      <path class="st29" d="M151.69,28.01l-.36-.37.36-.36.37.36-.37.37ZM151.46,30.94v-2.52h.49v2.52h-.49Z"/>
      <path class="st29" d="M152.93,30.94v-2.52h.48v.29c.29-.23.57-.35.83-.35.36,0,.59.12.7.37.31-.25.61-.37.9-.37.15,0,.27.02.38.07.11.04.18.09.24.15.05.06.09.14.12.23s.05.18.05.25c0,.07,0,.16,0,.27v1.61h-.48v-1.54c0-.21-.03-.36-.09-.47-.06-.1-.18-.15-.37-.15-.2,0-.43.09-.69.26.01.08.02.17.02.29v1.61h-.48v-1.54c0-.21-.03-.37-.09-.47-.06-.1-.18-.15-.37-.15s-.41.09-.68.27v1.89h-.48Z"/>
      <path class="st29" d="M158.7,30.99c-.41,0-.72-.1-.94-.29-.21-.19-.32-.52-.32-.98,0-.91.4-1.36,1.19-1.36.65,0,.97.42.97,1.27v.17h-1.67c0,.17.03.3.07.41s.11.19.19.24c.09.05.18.09.27.11.1.02.21.03.35.03.15,0,.37-.03.66-.1l.08.38c-.24.08-.52.12-.85.12ZM157.95,29.46h1.16c0-.23-.04-.41-.13-.55s-.22-.2-.39-.2-.32.07-.44.19c-.11.13-.18.31-.2.56Z"/>
      <path class="st29" d="M160.4,30.94v-2.52h.48v.28c.33-.23.62-.34.87-.34.15,0,.27.02.38.06.1.04.18.09.24.14.06.06.1.13.13.23.03.1.05.18.06.26,0,.08,0,.17,0,.29v1.61h-.48v-1.54c0-.22-.03-.38-.09-.48s-.19-.14-.38-.14c-.18,0-.43.09-.73.26v1.9h-.48Z"/>
      <path class="st29" d="M164.55,30.99c-.12,0-.22,0-.28,0-.07,0-.15-.02-.24-.05-.1-.03-.17-.06-.22-.11-.05-.05-.09-.13-.12-.23-.04-.1-.05-.23-.05-.38v-1.41h-.37v-.38h.37v-.52h.48v.52h.79v.38h-.79v1.41c0,.15.03.25.08.3.06.04.17.07.35.07.16,0,.31-.02.44-.07l.07.4c-.19.05-.36.08-.5.08Z"/>
      <path class="st29" d="M166.75,30.99c-.37,0-.66-.11-.87-.34s-.31-.54-.31-.95.11-.75.33-.99c.22-.24.52-.36.88-.36.39,0,.69.11.89.34.2.23.3.56.3.98s-.11.75-.34.98c-.22.23-.52.34-.88.34ZM166.78,30.6c.46,0,.69-.31.69-.92,0-.12-.01-.24-.03-.34-.02-.1-.06-.2-.1-.29-.05-.09-.12-.17-.22-.22-.1-.05-.21-.08-.35-.08-.26,0-.44.09-.54.27-.11.18-.16.4-.16.67,0,.61.24.92.72.92Z"/>
      <path class="st29" d="M102.85,36.73c-.12,0-.22,0-.28,0-.07,0-.15-.02-.24-.05s-.17-.06-.21-.11c-.05-.05-.09-.13-.13-.23-.04-.1-.05-.23-.05-.38v-1.41h-.37v-.38h.37v-.52h.48v.52h.79v.38h-.79v1.41c0,.15.03.25.08.3.06.04.17.07.35.07.16,0,.31-.02.44-.07l.07.4c-.19.05-.36.08-.5.08Z"/>
      <path class="st29" d="M105.12,36.74c-.41,0-.72-.1-.93-.29-.21-.19-.32-.52-.32-.98,0-.91.4-1.36,1.19-1.36.65,0,.97.42.97,1.27v.17h-1.67c0,.17.03.3.07.41.04.11.11.19.19.25.09.05.18.09.27.11.09.02.21.03.35.03.15,0,.37-.03.66-.1l.08.38c-.24.08-.52.12-.85.12ZM104.37,35.2h1.16c0-.23-.04-.41-.13-.55-.09-.14-.22-.2-.39-.2s-.32.07-.44.19-.18.31-.2.56Z"/>
      <path class="st29" d="M108.01,36.73c-.48,0-.82-.1-1.03-.31-.21-.21-.32-.54-.32-1.01,0-.4.11-.72.34-.96.23-.24.53-.35.92-.35.29,0,.53.05.73.15l-.14.37c-.19-.08-.39-.12-.59-.12-.23,0-.41.08-.55.23-.14.15-.21.38-.21.67,0,.33.06.56.19.7.13.14.36.21.7.21.06,0,.12,0,.18-.01.06,0,.12-.02.19-.03.07-.01.11-.02.13-.02l.08.38c-.23.06-.44.09-.62.09Z"/>
      <path class="st29" d="M109.39,36.68v-2.52h.48v.28c.33-.23.62-.34.87-.34.15,0,.27.02.38.06s.18.09.24.14c.06.06.1.13.13.23.03.1.05.18.06.26,0,.08,0,.17,0,.29v1.61h-.48v-1.54c0-.22-.03-.38-.09-.48s-.19-.14-.38-.14c-.18,0-.43.09-.73.26v1.9h-.48Z"/>
      <path class="st29" d="M113.53,36.74c-.37,0-.66-.11-.87-.34-.21-.23-.31-.54-.31-.95s.11-.75.34-.99c.22-.24.52-.36.88-.36.39,0,.69.11.89.34s.3.56.3.98-.11.75-.34.97-.52.34-.88.34ZM113.56,36.34c.46,0,.69-.31.69-.92,0-.12-.01-.24-.03-.34-.02-.1-.06-.2-.1-.29-.05-.09-.12-.17-.22-.22-.1-.05-.21-.08-.35-.08-.26,0-.44.09-.55.27-.11.18-.16.4-.16.67,0,.61.24.92.72.92Z"/>
      <path class="st29" d="M115.57,36.68v-3.47h.48v3.47h-.48Z"/>
      <path class="st29" d="M117.95,36.74c-.37,0-.66-.11-.87-.34-.21-.23-.31-.54-.31-.95s.11-.75.34-.99c.22-.24.52-.36.88-.36.39,0,.69.11.89.34s.3.56.3.98-.11.75-.34.97-.52.34-.88.34ZM117.97,36.34c.46,0,.69-.31.69-.92,0-.12-.01-.24-.03-.34-.02-.1-.06-.2-.1-.29-.05-.09-.12-.17-.22-.22-.1-.05-.21-.08-.35-.08-.26,0-.44.09-.55.27-.11.18-.16.4-.16.67,0,.61.24.92.72.92Z"/>
      <path class="st29" d="M120.91,37.72c-.31,0-.61-.04-.89-.11l.08-.4c.29.06.53.1.72.1.24,0,.42-.04.54-.11s.18-.23.18-.47v-.2c-.15.12-.33.19-.54.19-.12,0-.24,0-.34-.02s-.21-.05-.31-.1-.2-.12-.27-.22c-.07-.09-.13-.22-.18-.37-.05-.16-.07-.35-.07-.57,0-.43.12-.76.36-.99.24-.23.54-.35.91-.35.25,0,.56.03.92.1v2.6c0,.31-.1.54-.31.69s-.47.23-.79.23ZM121.03,36.34c.15,0,.32-.06.5-.17v-1.61c-.17-.03-.32-.05-.44-.05-.27,0-.47.09-.59.26-.13.17-.19.4-.19.68,0,.32.06.54.18.68.12.14.3.21.55.21Z"/>
      <path class="st29" d="M123.25,33.75l-.36-.37.36-.36.37.36-.37.37ZM123.01,36.68v-2.52h.49v2.52h-.49Z"/>
      <path class="st29" d="M125.68,36.73c-.48,0-.82-.1-1.03-.31-.21-.21-.32-.54-.32-1.01,0-.4.11-.72.34-.96.23-.24.53-.35.92-.35.29,0,.53.05.73.15l-.14.37c-.19-.08-.39-.12-.59-.12-.23,0-.41.08-.55.23-.14.15-.21.38-.21.67,0,.33.06.56.19.7.13.14.36.21.7.21.06,0,.12,0,.18-.01.06,0,.12-.02.19-.03.07-.01.11-.02.13-.02l.08.38c-.23.06-.44.09-.62.09Z"/>
      <path class="st29" d="M128.07,36.74c-.37,0-.66-.11-.87-.34-.21-.23-.31-.54-.31-.95s.11-.75.34-.99c.22-.24.52-.36.88-.36.39,0,.69.11.89.34s.3.56.3.98-.11.75-.34.97-.52.34-.88.34ZM128.09,36.34c.46,0,.69-.31.69-.92,0-.12-.01-.24-.03-.34-.02-.1-.06-.2-.1-.29-.05-.09-.12-.17-.22-.22-.1-.05-.21-.08-.35-.08-.26,0-.44.09-.55.27-.11.18-.16.4-.16.67,0,.61.24.92.72.92Z"/>
      <path class="st29" d="M132.41,36.74c-.41,0-.72-.1-.93-.29-.21-.19-.32-.52-.32-.98,0-.91.4-1.36,1.19-1.36.65,0,.97.42.97,1.27v.17h-1.67c0,.17.03.3.07.41.04.11.11.19.19.25.09.05.18.09.27.11.09.02.21.03.35.03.15,0,.37-.03.66-.1l.08.38c-.24.08-.52.12-.85.12ZM131.66,35.2h1.16c0-.23-.04-.41-.13-.55-.09-.14-.22-.2-.39-.2s-.32.07-.44.19-.18.31-.2.56Z"/>
      <path class="st29" d="M135.34,36.68v-3.47h.48v3.47h-.48Z"/>
      <path class="st29" d="M136.58,34.22c.09-.18.13-.37.13-.58v-.44h.46v.26c0,.29-.07.54-.22.76h-.37Z"/>
      <path class="st29" d="M138,36.68v-3.26h.5v3.26h-.5Z"/>
      <path class="st29" d="M139.56,36.68v-2.52h.48v.28c.33-.23.62-.34.87-.34.15,0,.27.02.38.06s.18.09.24.14c.06.06.1.13.13.23.03.1.05.18.06.26,0,.08,0,.17,0,.29v1.61h-.48v-1.54c0-.22-.03-.38-.09-.48s-.19-.14-.38-.14c-.18,0-.43.09-.73.26v1.9h-.48Z"/>
      <path class="st29" d="M142.69,36.68v-2.52h.48v.28c.33-.23.62-.34.87-.34.15,0,.27.02.38.06s.18.09.24.14c.06.06.1.13.13.23.03.1.05.18.06.26,0,.08,0,.17,0,.29v1.61h-.48v-1.54c0-.22-.03-.38-.09-.48s-.19-.14-.38-.14c-.18,0-.43.09-.73.26v1.9h-.48Z"/>
      <path class="st29" d="M146.84,36.74c-.37,0-.66-.11-.87-.34-.21-.23-.31-.54-.31-.95s.11-.75.34-.99c.22-.24.52-.36.88-.36.39,0,.69.11.89.34s.3.56.3.98-.11.75-.34.97-.52.34-.88.34ZM146.87,36.34c.46,0,.69-.31.69-.92,0-.12-.01-.24-.03-.34-.02-.1-.06-.2-.1-.29-.05-.09-.12-.17-.22-.22-.1-.05-.21-.08-.35-.08-.26,0-.44.09-.55.27-.11.18-.16.4-.16.67,0,.61.24.92.72.92Z"/>
      <path class="st29" d="M149.4,36.68l-.85-2.52h.53l.5,1.62.15.53.17-.53.56-1.61h.5l-.93,2.52h-.64Z"/>
      <path class="st29" d="M152.17,36.72c-.25,0-.44-.06-.57-.19-.13-.12-.2-.3-.2-.54,0-.15.03-.27.09-.38.06-.1.15-.18.25-.24.11-.05.21-.09.32-.11.11-.02.22-.03.35-.03h.56v-.29c0-.17-.05-.28-.14-.34-.09-.06-.24-.09-.46-.09-.14,0-.36.04-.67.12l-.1-.36c.26-.11.55-.17.88-.17s.56.06.72.17c.16.11.24.29.24.54v1.32c0,.12.08.19.23.2l-.02.37s-.06,0-.1,0c-.13,0-.25-.02-.36-.07-.11-.05-.17-.13-.19-.23,0,0-.02.02-.06.04-.03.03-.06.04-.07.05-.02.01-.04.03-.08.05-.04.02-.07.04-.1.05-.03.01-.06.03-.11.05s-.09.03-.13.04c-.04,0-.09.01-.14.02-.05,0-.1.01-.16.01ZM152.28,36.34c.06,0,.13-.01.21-.03.08-.02.14-.04.19-.06s.11-.05.18-.08c.07-.03.1-.05.11-.05v-.58l-.54.02c-.17,0-.31.04-.41.11-.1.07-.14.17-.14.28,0,.26.14.38.41.38Z"/>
      <path class="st29" d="M154.31,36.68v-.37l1.41-1.74h-1.3v-.41h1.87v.35l-1.42,1.76h1.44v.4h-2Z"/>
      <path class="st29" d="M157.32,33.75l-.36-.37.36-.36.37.36-.37.37ZM157.08,36.68v-2.52h.49v2.52h-.49Z"/>
      <path class="st29" d="M159.57,36.74c-.37,0-.66-.11-.87-.34s-.31-.54-.31-.95.11-.75.33-.99c.22-.24.52-.36.88-.36.39,0,.69.11.89.34.2.23.3.56.3.98s-.11.75-.34.97c-.22.23-.52.34-.88.34ZM159.6,36.34c.46,0,.69-.31.69-.92,0-.12-.01-.24-.03-.34-.02-.1-.06-.2-.1-.29-.05-.09-.12-.17-.22-.22-.1-.05-.21-.08-.35-.08-.26,0-.44.09-.54.27-.11.18-.16.4-.16.67,0,.61.24.92.72.92Z"/>
      <path class="st29" d="M161.61,36.68v-2.52h.48v.28c.33-.23.62-.34.87-.34.15,0,.27.02.37.06.1.04.18.09.24.14.06.06.1.13.13.23.03.1.05.18.06.26,0,.08,0,.17,0,.29v1.61h-.48v-1.54c0-.22-.03-.38-.09-.48s-.19-.14-.38-.14-.43.09-.73.26v1.9h-.48Z"/>
      <path class="st29" d="M165.83,36.74c-.41,0-.72-.1-.93-.29-.21-.19-.32-.52-.32-.98,0-.91.4-1.36,1.19-1.36.65,0,.98.42.98,1.27v.17h-1.67c0,.17.03.3.07.41.04.11.1.19.19.25.09.05.18.09.27.11.09.02.21.03.35.03.15,0,.37-.03.66-.1l.08.38c-.24.08-.52.12-.85.12ZM165.07,35.2h1.16c0-.23-.04-.41-.13-.55-.09-.14-.22-.2-.39-.2s-.32.07-.44.19c-.11.13-.18.31-.2.56Z"/>
    </g>
  </g>
</svg>