<?xml version="1.0" encoding="UTF-8"?>
<svg id="logo_x5F_01" xmlns="http://www.w3.org/2000/svg" version="1.1" viewBox="0 0 883.46 310.52">
  <!-- Generator: Adobe Illustrator 29.4.0, SVG Export Plug-In . SVG Version: 2.1.0 Build 152)  -->
  <defs>
    <style>
      .st0 {
        fill: #fff;
      }
    </style>
  </defs>
  <g>
    <path class="st0" d="M100.64,77.27c14.32,0,26.54,6.67,33.95,16.91l-12.1,9.63c-4.94-6.42-11.98-10.99-20.62-10.99-15.43,0-24.94,11.11-24.94,25.43s9.63,25.43,25.06,25.43c9.51,0,16.91-6.05,20.49-15.43h-20.99v-13.21h39.51c0,24.45-16.17,44.2-40.49,44.2s-40.99-18.02-40.99-40.99,18.02-40.99,41.11-40.99Z"/>
    <path class="st0" d="M149.77,127.76c0-17.16,13.7-31.36,29.75-31.36,7.16,0,13.09,3.09,17.66,7.65v-5.8h16.05v44.69h9.01v14.44h-25.06v-6.54c-4.57,4.81-10.62,8.39-17.66,8.39-16.05,0-29.75-14.32-29.75-31.48ZM198.17,127.76c0-9.01-7.16-16.67-15.93-16.67s-16.05,7.65-16.05,16.67,7.16,16.79,16.05,16.79,15.93-7.65,15.93-16.79Z"/>
    <path class="st0" d="M244.59,142.95h22.22v-61.48h-22.22v-14.45h38.27v75.93h22.22v14.44h-60.5v-14.44Z"/>
    <path class="st0" d="M322.61,127.76c0-17.16,13.7-31.36,29.75-31.36,7.16,0,13.09,3.09,17.66,7.65v-5.8h16.05v44.69h9.01v14.44h-25.06v-6.54c-4.57,4.81-10.62,8.39-17.66,8.39-16.05,0-29.75-14.32-29.75-31.48ZM371.01,127.76c0-9.01-7.16-16.67-15.93-16.67s-16.05,7.65-16.05,16.67,7.16,16.79,16.05,16.79,15.93-7.65,15.93-16.79Z"/>
    <path class="st0" d="M410.39,98.26h16.54v-18.89h16.05v18.89h21.48v14.44h-21.48v22.22c0,5.93,3.46,9.63,8.52,9.63s8.4-3.7,8.4-9.63v-8.52h15.93v8.4c0,14.07-10.37,24.44-24.32,24.44s-24.57-9.88-24.57-23.83v-22.72h-16.54v-14.44Z"/>
    <path class="st0" d="M496.81,98.26h16.54v-18.89h16.05v18.89h21.48v14.44h-21.48v22.22c0,5.93,3.46,9.63,8.52,9.63s8.4-3.7,8.4-9.63v-8.52h15.93v8.4c0,14.07-10.37,24.44-24.32,24.44s-24.57-9.88-24.57-23.83v-22.72h-16.54v-14.44Z"/>
    <path class="st0" d="M590.51,142.95h22.35v-30.25h-22.35v-14.44h38.27v44.69h22.35v14.44h-60.62v-14.44ZM609.52,74.68c0-6.17,5.06-11.36,11.24-11.36s11.23,5.18,11.23,11.36-5.19,11.11-11.23,11.11-11.24-4.94-11.24-11.11Z"/>
    <path class="st0" d="M707.79,96.4c10.25,0,21.73,3.09,28.15,8.77v18.27h-14.82v-10.12c-3.46-1.6-7.53-2.22-12.35-2.22-10.25,0-18.15,7.41-18.15,16.91s7.65,16.54,18.15,16.54c5.8,0,12.96-2.35,16.91-6.54l10.86,9.26c-5.56,7.28-17.9,11.98-29.14,11.98-18.77,0-33.21-13.33-33.21-31.23s15.19-31.61,33.58-31.61Z"/>
    <path class="st0" d="M754.7,127.76c0-17.16,13.7-31.36,29.75-31.36,7.16,0,13.09,3.09,17.66,7.65v-5.8h16.05v44.69h9.01v14.44h-25.06v-6.54c-4.57,4.81-10.62,8.39-17.66,8.39-16.05,0-29.75-14.32-29.75-31.48ZM803.1,127.76c0-9.01-7.16-16.67-15.93-16.67s-16.05,7.65-16.05,16.67,7.16,16.79,16.05,16.79,15.93-7.65,15.93-16.79Z"/>
  </g>
  <g>
    <path class="st0" d="M56.75,228.03h6.16l4.94-30.57h-6.28l.52-3.14h21.33c5.41,0,9.59,4.01,9.59,9.3,0,6.62-6.1,12.26-12.38,12.26l6.74,12.15h5.35l-.46,3.14h-6.97l-8.72-15.29h-8.43l-1.98,12.15h7.44l-.58,3.14h-16.74l.46-3.14ZM71.05,197.46l-2.44,15.29h12.09c4.82,0,9.01-4.42,9.01-9.01,0-3.6-2.73-6.28-6.63-6.28h-12.03Z"/>
    <path class="st0" d="M116.27,231.92c-7.56,0-12.9-5.23-12.9-11.92,0-8.83,7.9-16.33,17.2-16.33,5.99,0,10.81,3.25,10.81,7.73,0,5.06-5.64,8.25-14.53,8.25h-10.17c.12,5.17,4.18,9.12,9.94,9.12,4.42,0,9.18-2.33,11.68-5.35l2.21,2.33c-3.14,3.55-8.95,6.16-14.24,6.16ZM107.08,216.69h10.4c6.33,0,10.64-1.98,10.64-5s-3.14-4.88-7.73-4.88c-6.68,0-11.92,4.59-13.31,9.88Z"/>
    <path class="st0" d="M150.85,220.82l2.09-13.25h-8.66l.52-3.14h8.6l1.63-10.11h3.25l-1.63,10.11h11.04l-.52,3.14h-11.04l-2.09,13.25c-.81,5,.87,7.96,4.36,7.96s6.63-3.2,8.6-8.72l.81-2.21,2.85,1.28-.93,2.38c-2.27,6.63-6.68,10.4-11.74,10.4s-8.2-4.48-7.15-11.1Z"/>
    <path class="st0" d="M197.63,231.92c-7.56,0-12.9-5.23-12.9-11.92,0-8.83,7.9-16.33,17.2-16.33,5.99,0,10.81,3.25,10.81,7.73,0,5.06-5.64,8.25-14.53,8.25h-10.17c.12,5.17,4.18,9.12,9.94,9.12,4.42,0,9.18-2.33,11.68-5.35l2.21,2.33c-3.14,3.55-8.95,6.16-14.24,6.16ZM188.45,216.69h10.4c6.33,0,10.64-1.98,10.64-5s-3.14-4.88-7.73-4.88c-6.68,0-11.92,4.59-13.31,9.88Z"/>
    <path class="st0" d="M278.13,231.92c-9.3,0-15.69-6.97-15.69-16.04,0-11.74,10-22.32,21.33-22.32,6.16,0,11.28,2.96,14.47,8.31l-2.79,1.74c-2.44-4.36-6.39-6.8-11.51-6.8-10,0-18.08,9.01-18.08,19.01,0,7.32,4.88,12.84,12.67,12.84s14.07-5.35,16.51-13.14h-13.6l.46-3.08h17.2c-1.74,11.33-10.35,19.47-20.98,19.47Z"/>
    <path class="st0" d="M314.63,223.49c0-.87.06-1.8.23-2.79l2.15-13.13h-8.95l.46-3.14h12.15l-2.62,16.27c-.12.93-.23,1.8-.23,2.62,0,3.49,1.51,5.46,4.59,5.46,3.49,0,6.51-3.43,8.37-8.08l.93-2.44,2.85,1.28-1.16,2.91c-1.92,5.06-6.1,9.47-11.45,9.47-4.53,0-7.32-3.2-7.32-8.43ZM316.72,193.44c0-2.15,1.74-3.95,3.95-3.95,2.09,0,3.89,1.8,3.89,3.95s-1.8,3.95-3.89,3.95c-2.21,0-3.95-1.69-3.95-3.95Z"/>
    <path class="st0" d="M346.77,219.83c0-8.54,7.85-16.16,16.22-16.16,7.09,0,12.15,5.35,12.15,12.15,0,8.49-7.73,16.1-16.22,16.1-7.21,0-12.15-5.35-12.15-12.09ZM371.87,215.88c0-5.17-3.72-9.07-9.01-9.07-6.68,0-12.84,6.1-12.84,12.9,0,5.12,3.72,9.07,9.01,9.07,6.68,0,12.84-6.1,12.84-12.9Z"/>
    <path class="st0" d="M386.64,204.43h14.36l-.46,3.14h-6.16l5.7,19.99,12.09-19.99h-6.16l.46-3.14h14.41l-.46,3.14h-4.53l-14.47,23.6h-3.6l-6.97-23.6h-4.65l.46-3.14Z"/>
    <path class="st0" d="M426.62,219.89c0-8.54,7.44-16.22,15.4-16.22,4.3,0,7.73,2.44,9.47,6.04l.81-5.29h3.2l-3.43,21.5c-.29,1.74,0,2.91,1.1,2.91,1.28,0,2.5-1.39,3.49-3.78l.64-1.57,2.67,1.16-.64,1.45c-1.63,4.01-4.19,5.81-6.86,5.81s-4.01-2.38-3.66-5.58c-2.79,3.37-6.68,5.58-10.75,5.58-6.63,0-11.45-5.23-11.45-12.03ZM450.68,215.82c0-5.17-3.55-9.01-8.54-9.01-6.45,0-12.26,6.16-12.26,12.96,0,5.11,3.55,9.01,8.6,9.01,6.39,0,12.21-6.1,12.21-12.96Z"/>
    <path class="st0" d="M473.47,207.57h-5.81l.52-3.14h8.83l-.58,3.72-.06.58c2.21-3.02,5.41-5.06,9.18-5.06,5.23,0,9.07,3.66,9.07,9.65,0,.81,0,1.8-.17,2.79l-1.57,9.88c-.29,1.8-.12,2.85,1.1,2.85s2.09-1.05,2.96-3.25l.93-2.32,2.67,1.16-.7,1.63c-1.92,4.71-4.07,5.87-6.57,5.87-3.2,0-4.13-2.91-3.55-6.22l1.51-9.71c.12-.7.17-1.63.17-2.27,0-4.53-2.67-6.92-6.57-6.92-4.3,0-8.08,3.02-9.36,8.14l-2.56,16.22h-3.25l3.78-23.6Z"/>
    <path class="st0" d="M518.04,223.49c0-.87.06-1.8.23-2.79l2.15-13.13h-8.95l.46-3.14h12.15l-2.62,16.27c-.12.93-.23,1.8-.23,2.62,0,3.49,1.51,5.46,4.59,5.46,3.49,0,6.51-3.43,8.37-8.08l.93-2.44,2.85,1.28-1.16,2.91c-1.92,5.06-6.1,9.47-11.45,9.47-4.53,0-7.32-3.2-7.32-8.43ZM520.13,193.44c0-2.15,1.74-3.95,3.95-3.95,2.09,0,3.89,1.8,3.89,3.95s-1.8,3.95-3.89,3.95c-2.21,0-3.95-1.69-3.95-3.95Z"/>
    <path class="st0" d="M586.21,228.03h6.74l4.82-30.57h-6.8l.52-3.14h21.33c5.87,0,10.29,4.42,10.29,9.94,0,7.03-6.45,13.08-13.66,13.08h-11.57l-1.74,10.69h8.83l-.52,3.14h-18.77l.52-3.14ZM601.04,197.46l-2.67,16.74h11.22c5.46,0,10.11-4.71,10.11-9.59,0-3.95-3.25-7.15-7.56-7.15h-11.1Z"/>
    <path class="st0" d="M633.41,222.1c0-.87.06-1.74.17-2.67l1.92-11.86h-5.81l.52-3.14h9.01l-2.44,15.23c-.12.81-.17,1.57-.17,2.21,0,4.65,2.79,6.97,6.51,6.97,4.48,0,8.78-3.6,9.71-9.42l1.92-11.86h-5.75l.46-3.14h9.01l-3.43,21.5c-.29,1.74,0,2.91,1.1,2.91,1.28,0,2.5-1.39,3.49-3.78l.64-1.57,2.67,1.16-.64,1.45c-1.63,4.01-4.18,5.81-6.86,5.81-2.5,0-3.84-2.21-3.66-5.23-2.21,3.08-5.52,5.23-9.3,5.23-5.29,0-9.07-3.66-9.07-9.82Z"/>
    <path class="st0" d="M668.11,240.06c0-3.49,2.5-6.63,5.87-7.9-1.45-.81-2.32-2.21-2.32-4.13,0-3.37,2.03-5.75,4.71-6.97-1.22-1.45-1.92-3.25-1.92-5.29,0-6.51,5.81-11.33,13.37-11.33h17.55l-.47,2.91h-9.07c1.63,1.57,2.5,3.66,2.5,6.04,0,6.33-5.75,11.1-13.31,11.1-2.67,0-5-.64-6.74-1.8-1.86.7-3.6,2.62-3.6,5,0,2.03,1.4,3.25,4.24,3.25h12.96c4.3,0,7.44,3.08,7.44,7.03,0,4.94-4.94,9.24-10.46,9.24h-12.26c-4.88,0-8.49-3.14-8.49-7.15ZM696.12,238.14c0-2.5-1.98-4.3-4.94-4.3h-13.54c-3.25,0-6.39,2.91-6.39,5.93,0,2.56,2.21,4.53,5.58,4.53h12.09c3.78,0,7.21-2.79,7.21-6.16ZM695.19,213.26c0-3.49-3.08-5.93-7.61-5.93-5.64,0-10.05,3.49-10.05,8.31,0,3.43,3.08,5.93,7.56,5.93,5.64,0,10.11-3.6,10.11-8.31Z"/>
    <path class="st0" d="M719.83,220.7l4.59-28.94h-9.18l.52-3.14h12.44l-5.11,32.14c-.81,5.06.46,8.02,4.3,8.02,3.49,0,6.45-3.43,8.31-8.08l.99-2.44,2.79,1.28-1.1,2.91c-1.98,5.06-6.16,9.47-11.51,9.47s-8.08-4.48-7.03-11.22Z"/>
    <path class="st0" d="M762.14,223.49c0-.87.06-1.8.23-2.79l2.15-13.13h-8.95l.46-3.14h12.15l-2.62,16.27c-.12.93-.23,1.8-.23,2.62,0,3.49,1.51,5.46,4.59,5.46,3.49,0,6.51-3.43,8.37-8.08l.93-2.44,2.85,1.28-1.16,2.91c-1.92,5.06-6.1,9.47-11.45,9.47-4.53,0-7.32-3.2-7.32-8.43ZM764.23,193.44c0-2.15,1.74-3.95,3.95-3.95,2.09,0,3.89,1.8,3.89,3.95s-1.8,3.95-3.89,3.95c-2.21,0-3.95-1.69-3.95-3.95Z"/>
    <path class="st0" d="M792.77,219.89c0-8.54,7.44-16.22,15.4-16.22,4.3,0,7.73,2.44,9.47,6.04l.81-5.29h3.2l-3.43,21.5c-.29,1.74,0,2.91,1.1,2.91,1.28,0,2.5-1.39,3.49-3.78l.64-1.57,2.67,1.16-.64,1.45c-1.63,4.01-4.19,5.81-6.86,5.81s-4.01-2.38-3.66-5.58c-2.79,3.37-6.68,5.58-10.75,5.58-6.63,0-11.45-5.23-11.45-12.03ZM816.83,215.82c0-5.17-3.55-9.01-8.54-9.01-6.45,0-12.26,6.16-12.26,12.96,0,5.11,3.55,9.01,8.6,9.01,6.39,0,12.21-6.1,12.21-12.96Z"/>
  </g>
</svg>